<svg width="64" height="64" viewBox="0 0 64 64" fill="none" xmlns="http://www.w3.org/2000/svg">
<path opacity="0.3" d="M55.1182 14.5695C56.0791 13.4474 57.7745 13.3109 58.9049 14.2648C60.0354 15.2186 60.1729 16.9015 59.212 18.0237L36.3775 44.6902C35.4015 45.83 33.6721 45.9501 32.5458 44.9563L20.457 34.2896C19.348 33.3112 19.2482 31.6257 20.2339 30.5249C21.2196 29.4242 22.9176 29.325 24.0265 30.3035L34.0625 39.1588L55.1182 14.5695Z" fill="#07B852"/>
<path d="M42.0811 16.9397C43.042 15.8175 44.7374 15.6811 45.8678 16.6349C46.9983 17.5887 47.1358 19.2716 46.1749 20.3938L23.3403 47.0604C22.3644 48.2001 20.635 48.3202 19.5087 47.3264L7.41985 36.6597C6.31094 35.6813 6.21106 33.9958 7.19675 32.895C8.18245 31.7943 9.88045 31.6951 10.9894 32.6736L21.0254 41.5289L42.0811 16.9397Z" fill="#07B852"/>
</svg>
