<svg width="87" height="88" viewBox="0 0 87 88" fill="none" xmlns="http://www.w3.org/2000/svg">
<g opacity="0.4" filter="url(#filter0_f_34_124)">
<circle cx="43.3078" cy="44.0769" r="26.9231" fill="#FF6151"/>
<circle cx="43.3078" cy="44.0769" r="26.9231" fill="black" fill-opacity="0.1"/>
</g>
<circle cx="43.3077" cy="33.3077" r="32.3077" fill="#FF6151"/>
<path fill-rule="evenodd" clip-rule="evenodd" d="M47.6349 24.5161L45.1231 40.0238H41.683L39.1166 24.5161V13.9229H47.6349V24.5161ZM47.0616 51.4908C46.3154 52.2916 45.0686 52.6921 43.3212 52.6921C41.5739 52.6921 40.3271 52.2916 39.5808 51.4908C38.8346 50.6899 38.4614 49.707 38.4614 48.5421V47.2316C38.4614 46.0667 38.8346 45.0838 39.5808 44.283C40.3271 43.4821 41.5739 43.0817 43.3212 43.0817C45.0686 43.0817 46.3154 43.4821 47.0616 44.283C47.8079 45.0838 48.181 46.0667 48.181 47.2316V48.5421C48.181 49.707 47.8079 50.6899 47.0616 51.4908Z" fill="white"/>
<defs>
<filter id="filter0_f_34_124" x="0.0750751" y="0.844118" width="86.4656" height="86.4656" filterUnits="userSpaceOnUse" color-interpolation-filters="sRGB">
<feFlood flood-opacity="0" result="BackgroundImageFix"/>
<feBlend mode="normal" in="SourceGraphic" in2="BackgroundImageFix" result="shape"/>
<feGaussianBlur stdDeviation="8.15485" result="effect1_foregroundBlur_34_124"/>
</filter>
</defs>
</svg>
