<svg width="120" height="120" viewBox="0 0 120 120" fill="none" xmlns="http://www.w3.org/2000/svg">
<path d="M77.8013 48.6091L74.6091 46.1987L56.3858 70.3323L46.1881 58.6778L43.1778 61.3119L56.6142 76.6677L77.8013 48.6091Z" fill="#447BFF"/>
<path fill-rule="evenodd" clip-rule="evenodd" d="M98 60C98 80.9868 80.9868 98 60 98C39.0132 98 22 80.9868 22 60C22 39.0132 39.0132 22 60 22C80.9868 22 98 39.0132 98 60ZM94 60C94 78.7777 78.7777 94 60 94C41.2223 94 26 78.7777 26 60C26 41.2223 41.2223 26 60 26C78.7777 26 94 41.2223 94 60Z" fill="#447BFF"/>
</svg>
