<svg width="120" height="120" viewBox="0 0 120 120" fill="none" xmlns="http://www.w3.org/2000/svg">
<path d="M45.5858 48.4142L57.1716 60L45.5858 71.5858L48.4142 74.4142L60 62.8284L71.5858 74.4142L74.4142 71.5858L62.8284 60L74.4142 48.4142L71.5858 45.5858L60 57.1716L48.4142 45.5858L45.5858 48.4142Z" fill="#EE505A"/>
<path fill-rule="evenodd" clip-rule="evenodd" d="M98 60C98 80.9868 80.9868 98 60 98C39.0132 98 22 80.9868 22 60C22 39.0132 39.0132 22 60 22C80.9868 22 98 39.0132 98 60ZM94 60C94 78.7777 78.7777 94 60 94C41.2223 94 26 78.7777 26 60C26 41.2223 41.2223 26 60 26C78.7777 26 94 41.2223 94 60Z" fill="#EE505A"/>
</svg>
