<svg width="28" height="29" viewBox="0 0 28 29" fill="none" xmlns="http://www.w3.org/2000/svg">
<path fill-rule="evenodd" clip-rule="evenodd" d="M21.9076 8.40743C22.4088 7.90625 22.4088 7.09369 21.9076 6.59252C21.4064 6.09135 20.5938 6.09135 20.0927 6.59252L14.0001 12.6851L7.90761 6.59255C7.40644 6.09137 6.59388 6.09137 6.09271 6.59255C5.59153 7.09372 5.59153 7.90628 6.09271 8.40745L12.1852 14.5L6.09268 20.5925C5.5915 21.0937 5.5915 21.9063 6.09268 22.4074C6.59385 22.9086 7.40641 22.9086 7.90758 22.4074L14.0001 16.3149L20.0927 22.4075C20.5939 22.9086 21.4064 22.9086 21.9076 22.4075C22.4088 21.9063 22.4088 21.0937 21.9076 20.5925L15.815 14.5L21.9076 8.40743Z" fill="#A3A7BC"/>
</svg>
