<svg width="26" height="22" viewBox="0 0 26 22" fill="none" xmlns="http://www.w3.org/2000/svg">
<path d="M3.58175 15.9095C3.5 16.0699 3.5 16.28 3.5 16.7V17.3C3.5 17.72 3.5 17.9301 3.58175 18.0905C3.65365 18.2316 3.76839 18.3463 3.90951 18.4183C4.06994 18.5 4.27996 18.5 4.7 18.5H6.3C6.72004 18.5 6.93006 18.5 7.09049 18.4183C7.23161 18.3463 7.34635 18.2316 7.41825 18.0905C7.5 17.9301 7.5 17.72 7.5 17.3V16.7C7.5 16.28 7.5 16.0699 7.41825 15.9095C7.34635 15.7684 7.23161 15.6537 7.09049 15.5817C6.93006 15.5 6.72004 15.5 6.3 15.5H4.7C4.27996 15.5 4.06994 15.5 3.90951 15.5817C3.76839 15.6537 3.65365 15.7684 3.58175 15.9095Z" fill="#050507"/>
<path fill-rule="evenodd" clip-rule="evenodd" d="M0.272484 7.36502C0 7.8998 0 8.59987 0 10V18C0 19.4001 0 20.1002 0.272484 20.635C0.512167 21.1054 0.894619 21.4878 1.36502 21.7275C1.8998 22 2.59987 22 4 22H16C17.4001 22 18.1002 22 18.635 21.7275C19.1054 21.4878 19.4878 21.1054 19.7275 20.635C20 20.1002 20 19.4001 20 18V10C20 8.59987 20 7.8998 19.7275 7.36502C19.4878 6.89462 19.1054 6.51217 18.635 6.27248C18.1002 6 17.4001 6 16 6H4C2.59987 6 1.8998 6 1.36502 6.27248C0.894619 6.51217 0.512167 6.89462 0.272484 7.36502ZM16 7.5H4C3.27518 7.5 2.82178 7.50117 2.48015 7.52908C2.15603 7.55556 2.0667 7.59845 2.04601 7.60899C1.85785 7.70487 1.70487 7.85785 1.60899 8.04601C1.59845 8.0667 1.55556 8.15603 1.52908 8.48015C1.50117 8.82178 1.5 9.27518 1.5 10H18.5C18.5 9.27518 18.4988 8.82178 18.4709 8.48015C18.4444 8.15603 18.4015 8.0667 18.391 8.04601C18.2951 7.85785 18.1422 7.70487 17.954 7.60899C17.9333 7.59845 17.844 7.55556 17.5198 7.52908C17.1782 7.50117 16.7248 7.5 16 7.5ZM1.5 18V12H18.5V18C18.5 18.7248 18.4988 19.1782 18.4709 19.5198C18.4444 19.844 18.4015 19.9333 18.391 19.954C18.2951 20.1422 18.1422 20.2951 17.954 20.391C17.9333 20.4015 17.844 20.4444 17.5198 20.4709C17.1782 20.4988 16.7248 20.5 16 20.5H4C3.27518 20.5 2.82178 20.4988 2.48015 20.4709C2.15603 20.4444 2.0667 20.4015 2.04601 20.391C1.85785 20.2951 1.70487 20.1422 1.60899 19.954C1.59845 19.9333 1.55556 19.844 1.52908 19.5198C1.50117 19.1782 1.5 18.7248 1.5 18Z" fill="#050507"/>
<circle cx="18" cy="8" r="7.5" fill="white" stroke="#1C1C1E"/>
<path d="M13.5825 10H14.6045V5.06787H13.5791L12.3042 5.95312V6.88281L13.562 6.01465H13.5825V10ZM15.8188 6.55127V6.56836H16.7758V6.55127C16.7758 6.09668 17.1279 5.76172 17.6064 5.76172C18.0644 5.76172 18.3891 6.05566 18.3891 6.4248C18.3891 6.7666 18.2353 7.01611 17.7363 7.51514L15.8769 9.30615V10H19.4624V9.17969H17.2373V9.15918L18.4404 8.00049C18.9838 7.46045 19.394 6.99902 19.394 6.38379C19.394 5.56006 18.6796 4.9585 17.6406 4.9585C16.5639 4.9585 15.8188 5.61816 15.8188 6.55127ZM21.4662 7.84668H22.0746C22.6318 7.84668 22.9701 8.12012 22.9701 8.57129C22.9701 8.98828 22.6078 9.27881 22.0917 9.27881C21.5483 9.27881 21.2065 9.00537 21.1757 8.58838H20.1879C20.2358 9.49756 20.9638 10.1094 22.078 10.1094C23.2162 10.1094 24.0195 9.52148 24.0195 8.63623C24.0195 7.95264 23.5444 7.5083 22.8095 7.44678V7.42627C23.4145 7.31689 23.828 6.87939 23.828 6.27441C23.828 5.48486 23.1274 4.9585 22.102 4.9585C21.0321 4.9585 20.3212 5.55322 20.2836 6.46582H21.2338C21.2612 6.03516 21.579 5.75146 22.0575 5.75146C22.5702 5.75146 22.8539 6.01465 22.8539 6.41455C22.8539 6.82129 22.5361 7.10156 22.0644 7.10156H21.4662V7.84668Z" fill="black"/>
</svg>
