<svg width="45" height="28" viewBox="0 0 45 28" fill="none" xmlns="http://www.w3.org/2000/svg">
<path d="M0 2.1025V25.375C0 26.535 0.988543 27.4775 2.20521 27.4775H41.8989C43.1156 27.4775 44.1042 26.535 44.1042 25.375V2.1025C44.1042 0.942496 43.1156 0 41.8989 0H2.20521C0.988543 0 0 0.942496 0 2.1025Z" fill="#90A7B2" fill-opacity="0.502"/>
<path d="M3.04166 17.4V18.85H36.424V17.4H3.04166ZM3.04166 21.75V23.2H19.7708V21.75H3.04166ZM22.7364 21.75V23.2H31.8615V21.75H22.7364ZM3.04166 10.585V12.615C3.04166 13.63 3.95416 14.5 5.01874 14.5H10.1896C11.2542 14.5 12.1667 13.63 12.1667 12.615V10.585C12.1667 9.57002 11.2542 8.70001 10.1896 8.70001H5.01874C3.95416 8.70001 3.04166 9.57002 3.04166 10.585Z" fill="#E5E5E5"/>
</svg>
