<svg xmlns="http://www.w3.org/2000/svg" width="16" height="16" viewBox="0 0 16 16">
    <g fill="none" fill-rule="evenodd">
        <g fill="#C23D3D">
            <g>
                <g>
                    <path d="M10.971 10.028c.261.261.261.682 0 .943-.13.13-.3.195-.471.195-.17 0-.341-.065-.471-.195L8 8.942l-2.029 2.03c-.13.13-.3.194-.471.194-.17 0-.341-.065-.471-.195-.261-.26-.261-.682 0-.943L7.057 8 5.03 5.97c-.261-.26-.261-.682 0-.943.26-.26.682-.26.942 0L8 7.058l2.029-2.03c.26-.26.682-.26.942 0 .261.261.261.682 0 .943L8.943 8l2.028 2.028zM8 1.334C4.319 1.334 1.333 4.318 1.333 8c0 3.682 2.986 6.667 6.667 6.667 3.681 0 6.667-2.985 6.667-6.667S11.68 1.334 8 1.334z" transform="translate(-628 -492) translate(628 432) translate(0 60)"/>
                </g>
            </g>
        </g>
    </g>
</svg>
