<svg width="76" height="76" viewBox="0 0 76 76" fill="none" xmlns="http://www.w3.org/2000/svg">
<path d="M23.5858 26.4142L35.1716 38L23.5858 49.5858L26.4142 52.4142L38 40.8284L49.5858 52.4142L52.4142 49.5858L40.8284 38L52.4142 26.4142L49.5858 23.5858L38 35.1716L26.4142 23.5858L23.5858 26.4142Z" fill="#EE505A"/>
<path fill-rule="evenodd" clip-rule="evenodd" d="M76 38C76 58.9868 58.9868 76 38 76C17.0132 76 0 58.9868 0 38C0 17.0132 17.0132 0 38 0C58.9868 0 76 17.0132 76 38ZM72 38C72 56.7777 56.7777 72 38 72C19.2223 72 4 56.7777 4 38C4 19.2223 19.2223 4 38 4C56.7777 4 72 19.2223 72 38Z" fill="#EE505A"/>
</svg>
