<svg width="243" height="55" viewBox="0 0 243 55" fill="none" xmlns="http://www.w3.org/2000/svg">
    <path fill-rule="evenodd" clip-rule="evenodd"
          d="M1.6507 27.3667C1.68003 13.1213 13.1987 1.59999 27.444 1.57466C41.6854 1.59999 53.208 13.1213 53.2334 27.3667C53.208 41.6107 41.6854 53.132 27.444 53.1573C13.1987 53.132 1.68003 41.6107 1.6507 27.3667Z"
          stroke="#2255D7" stroke-width="1.14667" stroke-miterlimit="79.8403"/>
    <path fill-rule="evenodd" clip-rule="evenodd"
          d="M46.7627 27.1587C48.044 25.1787 46.588 23.8973 45.8894 22.8467C46.18 21.9733 46.9374 19.76 44.0254 17.836C44.492 15.8547 42.1 13.756 39.888 12.7667C39.828 11.308 35.4574 7.52133 27.94 7.52133C20.42 7.52133 16.168 10.6093 16.168 10.6093C17.5067 10.0253 22.6347 8.56933 27.356 8.56933C34.5827 8.68667 37.148 11.6573 37.148 11.6573C37.148 11.6573 32.3107 10.2013 25.2587 10.5493C18.9654 10.784 12.0867 14.3973 12.0867 14.3973C12.0867 14.3973 11.3294 15.036 11.5054 15.504C12.5534 15.096 17.1574 12.824 24.5 11.8907C31.8427 10.9573 37.4387 13.4067 37.4387 13.4067C37.4387 13.4067 36.6827 14.5733 35.9814 14.9227C31.96 13.9293 26.424 13.872 20.5374 14.748C14.6507 15.6227 8.94005 19.9333 8.94005 19.9333C8.94005 19.9333 8.18138 20.748 8.76538 21.1C10.3387 20.1653 14.8254 17.1373 22.1107 15.972C29.396 14.804 33.3 15.68 34.1747 16.2613C33.3 16.7867 26.1294 17.7787 20.42 19.0613C14.7094 20.3413 10.8627 22.4973 9.11338 24.0707C7.36671 25.644 7.19205 28.268 8.41605 30.0733C8.29738 30.6573 7.13338 32.6973 10.2227 34.2707C10.1654 35.3787 8.64671 37.476 13.4267 39.692C13.836 42.372 18.4387 45.7533 25.7814 46.684C33.184 47.6747 36.972 44.4107 36.972 44.4107C36.972 44.4107 32.7187 45.9867 26.5414 45.52C20.8294 45.52 16.0507 40.9733 16.0507 40.9733C16.0507 40.9733 18.9654 43.072 27.7654 43.8867C36.6227 44.2373 41.2867 41.3227 41.2867 41.3227L41.636 40.74C39.9454 41.3227 34.2334 42.6053 27.9974 42.548C21.7614 42.4907 15.6414 38.8173 15.6414 38.8173L15.7574 38.0587C15.7574 38.0587 15.584 37.5333 16.168 37.708C16.748 37.8827 21.7027 40.8547 30.56 40.68C39.42 40.5053 43.9654 37.6507 43.9654 37.6507C43.9654 37.6507 44.5494 36.8333 44.2587 36.8333C40.5867 38.232 35.108 39.4573 29.6294 39.4573C24.1507 39.4573 18.0294 36.6613 18.0294 36.6613L20.3627 35.7293C20.3627 35.7293 24.384 37.4187 32.776 37.184C41.168 36.952 46.2387 32.8133 46.2387 32.8133C46.2387 32.8133 46.4134 32.6973 46.356 32.3467C42.4494 34.2707 36.9147 35.6693 32.776 35.96C28.6387 36.252 24.1507 34.912 24.1507 34.912C24.1507 34.912 28.464 34.3307 35.4574 32.8707C42.9174 31.764 46.7627 27.1587 46.7627 27.1587ZM43.2667 19.468C44.5774 19.8733 44.0254 21.3627 44.0254 21.3627C44.0254 21.3627 42.2174 20.3987 42.4494 20.3987C42.6827 20.1107 43.2667 19.468 43.2667 19.468ZM38.72 15.6227C39.0707 15.5613 39.652 14.3973 39.652 14.3973C40.8187 15.1547 41.2267 15.7387 41.344 16.3787C40.936 16.1467 38.3694 15.68 38.72 15.6227ZM37.264 16.7867C37.264 16.7867 40.2947 17.6613 40.876 18.068C40.6454 18.8853 39.476 19.468 39.476 19.468C39.476 19.468 36.7987 18.3587 35.2254 18.1853C36.564 17.6027 37.264 16.7867 37.264 16.7867ZM10.204 27.9947L9.65871 27.92C9.65871 27.92 9.15338 26.9467 9.89205 26.1707C10.6294 25.3933 12.7254 23.2573 19.9934 21.5467C27.26 19.836 32.5827 19.1373 36.5854 20.3413C36.8947 20.5347 36.4294 20.6133 36.4294 20.6133C36.4294 20.6133 26.4427 22.672 23.3347 23.216C20.2267 23.7613 12.2987 25.508 10.204 27.9947ZM11.1827 33.0467C10.5134 32.8427 10.3387 31.2973 10.3387 31.2973C10.832 31.792 11.7654 32.232 11.7654 32.232C11.7654 32.232 11.4467 32.436 11.1827 33.0467ZM17.4294 27.024C20.4974 26.0147 31.4174 24.2667 33.8627 23.6827C36.196 23.1787 40.3534 21.7013 40.3534 21.7013C40.3534 21.7013 42.7227 22.672 42.6454 22.828C42.5667 22.9853 40.6254 23.9947 37.788 24.8893C34.952 25.7813 22.52 28.112 19.8014 28.6173C17.08 29.1253 13.5827 30.9493 13.5827 30.9493L11.9107 29.7067C12.884 28.3853 17.4294 27.024 17.4294 27.024ZM13.3107 37.7373L12.2907 36.3373L12.2614 35.8747C12.3494 36.3693 13.892 36.6893 13.892 36.6893L13.3107 37.7373ZM15.2334 35.4933C15.2334 35.4933 13.4867 34.736 13.2814 34.1827C13.6307 33.7467 14.0987 33.3947 14.0987 33.3947C15.1747 34.1547 16.1374 34.3867 17.012 34.5907C16.5174 34.7947 15.2334 35.4933 15.2334 35.4933ZM19.6054 33.6307L16.6907 32.232C17.1574 32.076 20.1494 30.9493 23.1814 30.4053C29.8254 29.392 35.392 28.352 38.4894 27.3747C42.1787 26.2093 44.356 24.4213 44.356 24.4213C44.356 24.4213 44.396 24.6547 44.432 26.364C41.092 30.0947 28.2694 31.8827 25.7454 32.3467C23.2187 32.8133 19.6054 33.6307 19.6054 33.6307ZM70.388 16.504V38.3293H75.6574V21.7987H80.6534V16.504H70.388ZM90.76 16.504L95.1614 38.3293H89.7814L89.1827 34.584H85.6534L85.0534 38.3293H80.004L84.3507 16.504H90.76ZM87.5 23.552L86.4134 29.9173H88.5334L87.5 23.552ZM203.808 16.504L208.211 38.3293H202.831L202.233 34.584H198.703L198.105 38.3293H193.055L197.399 16.504H203.808ZM200.549 23.552L199.463 29.9173H201.583L200.549 23.552ZM97.2787 16.5107V21.396C97.2787 21.396 98.8547 20.644 100.107 20.644C101.353 20.644 102.113 21.3013 102.113 22.5107C102.113 23.7173 101.299 24.98 99.8867 24.98H97.6587V29.5893H99.8307C100.484 29.5893 102.221 30.1387 102.221 31.7827C102.221 33.4307 99.9961 34.4147 96.6827 33.212V37.7653C96.6827 37.7653 98.3667 38.8067 101.787 38.8067C105.208 38.8067 107.544 36.4333 107.819 33.5933C108.087 30.7987 107.764 28.3267 104.448 27.0053C107.6 25.2 107.547 23.3333 107.547 21.192C107.547 19.0533 105.589 16.088 102.113 16.088C98.6361 16.088 97.2787 16.5107 97.2787 16.5107ZM110.155 16.504V38.3293H115.259V21.6867H118.573V38.3293H123.733V16.504H110.155ZM134.055 16.504C136.555 16.504 139.979 17.6267 139.979 23.9333C139.979 30.2453 135.248 30.8733 134.383 30.9613C133.459 31.052 131.719 31.0147 131.719 31.0147V38.3293H126.615V16.504H134.055ZM131.719 21.5227V26.1867C131.719 26.1867 132.701 26.2187 133.349 26.168C134.055 26.1173 134.871 25.5133 134.871 23.8107C134.871 22.108 134.273 21.5227 133.188 21.5227H131.719ZM157.841 27.3093C157.841 33.6 154.097 38.696 149.485 38.696C144.871 38.696 141.129 33.6 141.129 27.3093C141.129 21.024 144.871 15.9253 149.485 15.9253C154.097 15.9253 157.841 21.024 157.841 27.3093ZM149.485 21.4133C147.895 21.4133 146.605 24.1267 146.605 27.4747C146.605 30.8253 147.895 33.5413 149.485 33.5413C151.075 33.5413 152.364 30.8253 152.364 27.4747C152.364 24.1267 151.075 21.4133 149.485 21.4133ZM159.751 16.504V38.3293H164.968V25.1427L167.792 28.6L171.105 24.868V38.3293H176.159V16.504H171.487L167.792 21.36L164.041 16.504H159.751ZM210.275 16.504V38.3293H215.352V29.8107H218.504V38.3293H223.8V16.504H218.504V24.2693H215.352V16.504H210.275ZM226.841 16.504V38.3293H232.059V29.26H232.82L235.915 38.3293H242L237.275 26.7907L241.132 16.504H235.645L232.82 24.4307H232.059V16.504H226.841ZM190.933 16.504V21.4693H184.089V24.54H185.176C186.644 24.54 192.181 25.0907 192.181 31.344C192.181 37.5987 186.807 38.3293 185.773 38.3293H179.255V16.504H190.933ZM184.089 29.092V34.072C184.089 34.072 185.141 34.1067 185.792 34.0533C186.497 33.9947 187.312 33.3507 187.312 31.5347C187.312 29.7187 186.716 29.092 185.629 29.092H184.089Z"
          fill="#2255D7"/>
</svg>
