<svg width="128" height="29" viewBox="0 0 128 29" fill="none" xmlns="http://www.w3.org/2000/svg">
<path d="M120.03 8.44894H122.708L122.692 12.785H123.274L124.802 8.44894H127.7L125.621 14.1782L128 20.519H124.865L123.322 15.6656H122.692L122.708 20.519H120.03V8.44894ZM111.008 8.44894H113.669V12.8023H115.575V8.44961H118.235V20.519H115.575V15.6817H113.669V20.519H111.008L111.008 8.44894ZM101.732 20.5351H104.503L104.835 18.4482H106.738L107.07 20.5351H109.841L107.511 8.46696H104.077L101.732 20.5351ZM105.794 12.1214L106.298 15.7945H105.274L105.793 12.1214H105.794ZM94.2968 20.519H97.5407C98.2493 20.519 101.195 20.2106 101.21 16.5535C101.21 13.4839 98.9279 12.9485 97.4475 12.9485H96.9586V11.3463H100.565V8.44961H94.2968V20.519ZM96.9586 18.0917V15.3585H97.3522C97.6825 15.3585 98.5343 15.3739 98.5343 16.6203C98.5343 17.8834 97.6825 18.0917 97.3522 18.0917H96.9586ZM83.7302 8.44894H86.0457L88.0902 11.2969L90.1559 8.44894H92.4548V20.519H89.7284V13.1575L88.0902 15.2604L86.4539 13.1575V20.519H83.7302V8.44894ZM78.1069 20.6652C81.3354 20.6652 82.4209 17.5576 82.4209 14.4686C82.4209 11.3797 81.3354 8.27203 78.1069 8.27203C74.8783 8.27203 73.7928 11.3797 73.7928 14.4686C73.7928 17.5576 74.8783 20.6652 78.1069 20.6652ZM78.1069 17.7358C77.1446 17.7358 76.6584 16.5889 76.6584 14.4686C76.6584 12.3484 77.1446 11.2001 78.1069 11.2001C79.0692 11.2001 79.5546 12.3484 79.5546 14.4686C79.5546 16.5889 79.0685 17.7358 78.1069 17.7358ZM65.9006 20.519H68.6257V16.5402H69.54C72.2318 16.5402 73.0676 14.0474 73.0676 12.4598C73.0676 10.9077 72.1053 8.44894 69.54 8.44894H65.9006V20.519ZM68.6257 11.1026H69.2717C69.8857 11.1026 70.2799 11.4912 70.2799 12.4939C70.2799 13.789 69.6173 13.8838 69.2717 13.8838H68.6257V11.1033V11.1026ZM56.9082 8.44894H64.3416V20.519H61.6165V11.3617H59.6327V20.519H56.9082V8.44894ZM51.3169 13.1261C51.7571 13.1261 52.5616 12.8344 52.5616 11.9445C52.5616 10.8943 51.6326 10.8276 51.3635 10.8276C51.0492 10.8276 50.4512 10.8776 49.8678 11.1687L49.8372 8.54574C50.7655 8.30407 51.4275 8.23865 52.2139 8.23865C54.4515 8.23865 55.4438 9.84154 55.4438 11.4097C55.4438 12.9318 54.5927 13.8518 53.759 14.2083V14.3218C54.5621 14.5828 55.6323 15.3732 55.6323 17.2185C55.6323 19.501 54.0899 20.7614 52.1047 20.7614C51.0492 20.7467 50.3559 20.6012 49.5208 20.1318L49.5694 17.6223C50.3406 17.9635 50.8601 17.9949 51.3808 17.9949C52.2626 17.9949 52.6082 17.3306 52.6082 16.8473C52.6082 16.1663 52.1833 15.7144 51.2543 15.7144H50.1515V13.1261H51.3169ZM40.6091 20.519H43.3641L43.7111 18.4308H45.617L45.9473 20.519H48.7024L46.3715 8.44894H42.9386L40.6091 20.519ZM44.6554 12.09L45.1748 15.7791H44.1353L44.6554 12.09ZM35.3334 8.44894H40.922V11.4578H38.1037V20.519H35.3334V8.44894Z" fill="#2355D7"/>
<path fill-rule="evenodd" clip-rule="evenodd" d="M18.5123 5.70655C16.2891 4.72479 12.1466 4.6275 8.7533 6.12316C9.17408 5.83428 9.59636 5.57584 10.1507 5.3382C11.218 4.84509 12.9416 4.36758 15.089 4.36758C15.1895 4.36758 15.2916 4.36832 15.3943 4.37055C17.2305 4.40323 19.4079 5.03075 20.7385 6.33407C20.9642 6.60662 21.0955 6.87991 21.1443 7.09007C22.2003 7.62105 22.8161 8.11862 23.1567 8.69787C23.3044 9.00384 23.3524 9.32465 23.2864 9.69523C23.7252 9.95069 23.9382 10.1772 24.1662 10.4698C24.3103 10.7104 24.4243 10.9815 24.458 11.2265C24.5053 11.5459 24.5375 11.9164 24.1963 12.3509C24.554 12.5291 24.8451 13.0252 24.8803 13.2368C25.0581 14.0218 24.5375 14.7941 23.8722 15.3912C23.0922 16.0655 21.37 16.8705 19.9734 17.2255C18.0204 17.7145 16.2204 18.0028 14.6448 18.2552C13.9947 18.3593 13.3828 18.4573 12.8141 18.5608C13.6902 18.7695 14.8753 19.0442 16.8089 19.0442C20.9485 19.0442 24.6028 17.1119 24.6028 17.1119C24.6028 17.1119 24.5225 17.3547 24.44 17.5805C21.8096 19.1564 17.637 19.8143 15.8489 19.7341C14.0457 19.6524 12.5201 19.3806 11.026 18.9291C10.5714 19.0591 10.1162 19.2046 9.67887 19.3806C11.9538 20.4092 13.6737 20.6357 15.6066 20.779C17.5867 20.9253 20.869 20.4567 23.6277 19.4623C23.5659 19.5242 23.5189 19.6001 23.4727 19.6747C23.4219 19.7568 23.372 19.8373 23.3044 19.896C21.8906 20.6357 18.9038 21.3761 17.3932 21.44C15.8976 21.5053 14.0795 21.44 12.4878 21.1496C11.1235 20.8778 10.0014 20.4567 8.8328 19.945C8.62354 20.1025 8.52603 20.2985 8.47578 20.5236C13.0414 22.8881 17.2942 22.9356 22.1523 21.44L21.7121 21.8588C16.3686 24.0147 12.1953 23.177 8.96181 21.633C8.93761 21.6224 8.91254 21.6118 8.88712 21.6011C8.79515 21.5621 8.69876 21.5213 8.62354 21.4719C8.93256 21.9873 11.3988 23.7726 14.1597 23.9976C16.0619 24.1587 18.3833 23.8364 19.7634 23.2906L18.9518 23.708C18.285 24.0303 16.5157 24.7714 14.0457 24.6095C10.75 24.3838 8.89731 22.9356 8.06924 22.1811C7.67921 21.8254 7.5022 21.4244 7.38744 20.9253C6.64038 20.5391 6.16935 20.1359 5.78082 19.5247C5.55355 19.1876 5.6008 18.7865 5.64956 18.4464L5.75006 18.1598C5.39079 17.8998 5.01726 17.6265 4.87175 17.3547C4.54472 16.7755 4.74273 16.275 4.96925 15.8895C4.77274 15.6645 4.59347 15.4395 4.51547 15.2145C4.41721 14.9568 4.40146 14.6969 4.43146 14.4087C4.49747 13.9275 4.75774 13.4782 5.09901 13.0905C5.81232 12.2699 6.95166 11.6268 8.88156 10.9993C10.3542 10.5129 11.1444 10.3447 12.0893 10.1437C12.3648 10.0851 12.6535 10.0236 12.9761 9.95069C13.6098 9.80551 14.2901 9.6969 14.9817 9.58648C16.1156 9.40544 17.2799 9.21956 18.3188 8.85977C13.6564 8.05624 8.81855 8.79516 4.87175 11.4798L5.13052 10.7245C8.67079 8.44018 12.5853 7.09007 19.2114 8.23298C19.5684 8.02282 19.7792 7.8134 19.8782 7.39604C18.2205 6.80119 16.4189 6.59177 14.0967 6.62296C12.0168 6.68831 8.26426 7.45767 6.25335 8.63549L6.86765 7.87875C8.26426 7.05591 11.9178 5.97984 14.6645 5.93082C16.5959 5.88404 17.5867 5.99469 19.8939 6.60662C19.6951 6.24825 19.2728 6.05486 18.6489 5.7692C18.6044 5.74881 18.5589 5.72796 18.5123 5.70655ZM22.2071 9.11546C22.1433 8.66509 21.6232 8.23104 21.1669 7.94168C21.1024 8.16723 20.8607 8.44027 20.6971 8.6176C21.2007 8.7467 21.7208 8.93664 22.2071 9.11546ZM19.9839 9.25911C19.6567 9.51731 19.2852 9.74064 18.7306 9.95136C19.3579 10.0605 19.8764 10.2163 20.392 10.3712C20.6265 10.4417 20.8604 10.5119 21.1036 10.5776C21.1104 10.5813 21.1186 10.5828 21.1291 10.5828C21.2987 10.5828 21.8556 10.0738 21.9509 9.93355C21.3956 9.69316 20.7126 9.45054 19.9839 9.25911ZM23.4603 11.6223C23.6704 11.2202 23.5406 10.9627 23.103 10.5932C22.9237 10.8039 22.7278 10.979 22.5177 11.1401C22.6014 11.1795 22.6834 11.2162 22.7638 11.2521C23.0099 11.362 23.2408 11.4652 23.4603 11.6223ZM16.1485 10.77C14.0029 11.0274 11.6298 11.4748 9.59903 12.0714C9.56913 12.0804 9.53449 12.0908 9.49557 12.1025C8.49585 12.4018 4.67069 13.547 5.83008 15.1253C5.83008 15.1253 5.83506 15.1206 5.8431 15.1115C5.9511 14.9896 6.75287 14.085 9.28908 13.3565C11.0691 12.8395 12.8945 12.5107 14.7485 12.1767C16.415 11.8764 18.1046 11.572 19.8049 11.1232C18.4067 10.7544 17.624 10.5919 16.1485 10.77ZM15.9246 13.2068C14.6594 13.4316 13.1185 13.7054 11.5181 14.0476C10.5748 14.2568 7.99008 14.8504 6.72251 15.9121C6.96178 16.1069 7.1428 16.1995 7.3533 16.3073C7.45708 16.3603 7.56802 16.4171 7.69664 16.4916C8.21673 16.1533 8.93269 15.832 9.99013 15.5567C11.6622 15.1189 12.9604 14.9076 14.4334 14.6678C14.5756 14.6447 14.7194 14.6213 14.8653 14.5974C16.5059 14.3518 19.6091 13.71 21.315 13.0986C21.8854 12.9079 22.4039 12.6497 22.7769 12.3426C22.6629 12.2157 21.5581 11.6859 21.5251 11.7349C20.8452 12.0554 19.8703 12.3752 18.4721 12.715C17.933 12.8499 17.035 13.0095 15.9246 13.2068ZM14.468 15.9475C13.2261 16.1508 12.0294 16.3468 10.7664 16.6534C10.1991 16.7958 9.61369 16.9732 9.07934 17.198C9.61369 17.4718 10.1991 17.7129 10.7837 17.9385C11.953 17.6016 12.5083 17.4562 14.1954 17.1831C14.8453 17.0681 16.8281 16.7157 18.2586 16.4293C20.844 15.8803 24.6294 14.6909 23.6223 13.1484C23.5726 13.1898 23.5232 13.2281 23.474 13.2663C23.4095 13.3164 23.3454 13.3662 23.2816 13.4222C22.5168 13.9979 21.298 14.4654 19.6252 14.9009C17.6831 15.421 16.0393 15.6902 14.468 15.9475ZM6.66501 17.2752C6.71322 17.2383 6.76035 17.2022 6.80288 17.1663C6.54229 17.0328 6.3634 16.9203 6.15827 16.7913C6.11941 16.7668 6.07961 16.7418 6.03813 16.7159C5.9083 17.0075 6.17022 17.3258 6.42914 17.472C6.49974 17.4017 6.58392 17.3373 6.66501 17.2752ZM8.8709 18.1527C8.57824 18.0267 8.28098 17.8986 7.98909 17.7636C7.76169 17.9076 7.55156 18.0515 7.3887 18.1955C7.77745 18.421 8.1527 18.6288 8.54295 18.8402C8.80112 18.6785 9.10882 18.5331 9.45104 18.4054C9.26174 18.3211 9.06736 18.2374 8.8709 18.1527ZM7.55128 19.8999C7.59856 19.7374 7.68112 19.6106 7.79519 19.4496L7.76084 19.4315C7.49473 19.2915 7.22994 19.1521 6.96515 18.9821C6.94789 19.2886 7.14452 19.5616 7.55128 19.8999Z" fill="#2355D7"/>
<path fill-rule="evenodd" clip-rule="evenodd" d="M0.611084 14.5075C0.611084 6.83672 6.91763 0.604126 14.6758 0.604126C22.4172 0.604126 28.7222 6.83672 28.7222 14.5075C28.7222 22.1624 22.4172 28.3958 14.6758 28.3958C6.91763 28.3958 0.611084 22.1624 0.611084 14.5075ZM1.31432 14.5076C1.31432 21.7807 7.30814 27.7011 14.6762 27.7011C22.0297 27.7011 28.0199 21.7786 28.0199 14.5076C28.0199 7.22327 22.0322 1.29903 14.6762 1.29903C7.30563 1.29903 1.31432 7.22114 1.31432 14.5076Z" fill="#2355D7"/>
</svg>
