<svg xmlns="http://www.w3.org/2000/svg" width="24" height="24" viewBox="0 0 24 24">
    <g fill="none" fill-rule="evenodd">
        <g fill="#4066E9">
            <g>
                <path d="M12 8.125c-.621 0-1.125-.503-1.125-1.125 0-.621.504-1.125 1.125-1.125s1.125.504 1.125 1.125c0 .622-.504 1.125-1.125 1.125zm1 9c0 .552-.447 1-1 1-.553 0-1-.448-1-1V11c0-.552.447-1 1-1 .553 0 1 .448 1 1v6.125zM12 2C6.477 2 2 6.478 2 12s4.477 10 10 10c5.522 0 10-4.478 10-10S17.522 2 12 2z" transform="translate(-812 -901) translate(812 901)"/>
            </g>
        </g>
    </g>
</svg>
