<svg width="24" height="12" viewBox="0 0 24 12" fill="none" xmlns="http://www.w3.org/2000/svg">
<path d="M21 9.58095C21 10.9143 19.8502 12 18.4383 12H4.5V2.41905C4.5 1.08571 5.64976 0 7.06174 0H21V9.58095Z" fill="white"/>
<path d="M16.6499 7.09776H17.6999C17.7299 7.09776 17.7999 7.08821 17.8299 7.08821C18.0299 7.05003 18.1999 6.87821 18.1999 6.63958C18.1999 6.41049 18.0299 6.23867 17.8299 6.19094C17.7999 6.1814 17.7399 6.1814 17.6999 6.1814H16.6499V7.09776Z" fill="url(#paint0_linear_418_68032)"/>
<path d="M17.5841 0.75C16.5818 0.75 15.76 1.52956 15.76 2.5016V4.32058H18.3357C18.3959 4.32058 18.466 4.32058 18.5161 4.3302C19.0974 4.35907 19.5284 4.6478 19.5284 5.14826C19.5284 5.54285 19.2378 5.8797 18.6965 5.94707V5.96632C19.2879 6.00481 19.7389 6.32241 19.7389 6.81324C19.7389 7.34258 19.2378 7.68905 18.5763 7.68905H15.75V11.25H18.4259C19.4282 11.25 20.25 10.4704 20.25 9.4984V0.75L17.5841 0.75Z" fill="url(#paint1_linear_418_68032)"/>
<path d="M18.0699 5.24593C18.0699 5.01684 17.8999 4.86411 17.6999 4.83547C17.6799 4.83547 17.6299 4.82593 17.5999 4.82593H16.6499V5.66593H17.5999C17.6299 5.66593 17.6899 5.66593 17.6999 5.65638C17.8999 5.62775 18.0699 5.47502 18.0699 5.24593Z" fill="url(#paint2_linear_418_68032)"/>
<path d="M7.08408 0.75C6.08185 0.75 5.26002 1.53028 5.26002 2.50321V6.82844C5.77116 7.06927 6.30234 7.22339 6.83352 7.22339C7.46492 7.22339 7.80568 6.85734 7.80568 6.35642V4.31422H9.36915V6.34679C9.36915 7.1367 8.85802 7.78211 7.12416 7.78211C6.07183 7.78211 5.25 7.56055 5.25 7.56055V11.25H7.92595C8.92817 11.25 9.75 10.4697 9.75 9.49679V0.75L7.08408 0.75Z" fill="url(#paint3_linear_418_68032)"/>
<path d="M12.3241 0.75C11.3218 0.75 10.5 1.52885 10.5 2.5V4.78846C10.961 4.41346 11.7628 4.17308 13.0557 4.23077C13.7472 4.25962 14.4889 4.44231 14.4889 4.44231V5.18269C14.118 5 13.6771 4.83654 13.1058 4.79808C12.1236 4.73077 11.5323 5.19231 11.5323 6C11.5323 6.81731 12.1236 7.27885 13.1058 7.20192C13.6771 7.16346 14.118 6.99038 14.4889 6.81731V7.55769C14.4889 7.55769 13.7572 7.74038 13.0557 7.76923C11.7628 7.82692 10.961 7.58654 10.5 7.21154V11.25H13.1759C14.1782 11.25 15 10.4712 15 9.5V0.75L12.3241 0.75Z" fill="url(#paint4_linear_418_68032)"/>
<defs>
<linearGradient id="paint0_linear_418_68032" x1="15.7582" y1="7.96907" x2="20.252" y2="7.96907" gradientUnits="userSpaceOnUse">
<stop stop-color="#007940"/>
<stop offset="0.2285" stop-color="#00873F"/>
<stop offset="0.7433" stop-color="#40A737"/>
<stop offset="1" stop-color="#5CB531"/>
</linearGradient>
<linearGradient id="paint1_linear_418_68032" x1="15.7582" y1="11.2506" x2="20.2623" y2="11.2506" gradientUnits="userSpaceOnUse">
<stop stop-color="#007940"/>
<stop offset="0.2285" stop-color="#00873F"/>
<stop offset="0.7433" stop-color="#40A737"/>
<stop offset="1" stop-color="#5CB531"/>
</linearGradient>
<linearGradient id="paint2_linear_418_68032" x1="15.7581" y1="6.57392" x2="20.252" y2="6.57392" gradientUnits="userSpaceOnUse">
<stop stop-color="#007940"/>
<stop offset="0.2285" stop-color="#00873F"/>
<stop offset="0.7433" stop-color="#40A737"/>
<stop offset="1" stop-color="#5CB531"/>
</linearGradient>
<linearGradient id="paint3_linear_418_68032" x1="5.2579" y1="11.3363" x2="9.83137" y2="11.3363" gradientUnits="userSpaceOnUse">
<stop stop-color="#1F286F"/>
<stop offset="0.4751" stop-color="#004E94"/>
<stop offset="0.8261" stop-color="#0066B1"/>
<stop offset="1" stop-color="#006FBC"/>
</linearGradient>
<linearGradient id="paint4_linear_418_68032" x1="10.4741" y1="11.1732" x2="14.916" y2="11.1732" gradientUnits="userSpaceOnUse">
<stop stop-color="#6C2C2F"/>
<stop offset="0.1735" stop-color="#882730"/>
<stop offset="0.5731" stop-color="#BE1833"/>
<stop offset="0.8585" stop-color="#DC0436"/>
<stop offset="1" stop-color="#E60039"/>
</linearGradient>
</defs>
</svg>
