<svg width="24" height="24" viewBox="0 0 24 24" fill="none" xmlns="http://www.w3.org/2000/svg">
<g clip-path="url(#clip0_15_5269)">
<path d="M12.0601 13.7266C11.7012 13.7293 11.3535 13.8521 11.0725 14.0755C10.7915 14.2988 10.5934 14.6098 10.5098 14.9589C10.4262 15.3079 10.4618 15.675 10.6111 16.0014C10.7604 16.3278 11.0147 16.5948 11.3334 16.7599V18.6666H12.6667V16.8199C13.011 16.6788 13.2956 16.4227 13.472 16.0952C13.6484 15.7677 13.7057 15.3891 13.6341 15.024C13.5625 14.659 13.3665 14.3301 13.0794 14.0935C12.7924 13.8568 12.4321 13.7272 12.0601 13.7266Z" fill="#929499"/>
<path d="M17.3334 9.99991V7.14658C17.362 5.70117 16.817 4.30327 15.8174 3.25877C14.8179 2.21427 13.4454 1.60822 12.0001 1.57324C10.5548 1.60822 9.18224 2.21427 8.18272 3.25877C7.1832 4.30327 6.63812 5.70117 6.66675 7.14658V9.99991H4.66675V21.3332C4.66675 21.6869 4.80722 22.026 5.05727 22.2761C5.30732 22.5261 5.64646 22.6666 6.00008 22.6666H18.0001C18.3537 22.6666 18.6928 22.5261 18.9429 22.2761C19.1929 22.026 19.3334 21.6869 19.3334 21.3332V9.99991H17.3334ZM8.00008 7.14658C7.97134 6.05473 8.37592 4.9959 9.12542 4.20143C9.87493 3.40695 10.9084 2.94143 12.0001 2.90658C13.0917 2.94143 14.1252 3.40695 14.8747 4.20143C15.6242 4.9959 16.0288 6.05473 16.0001 7.14658V9.99991H8.00008V7.14658ZM6.00008 21.3332V11.3332H18.0001V21.3332H6.00008Z" fill="#929499"/>
</g>
<defs>
<clipPath id="clip0_15_5269">
<rect width="24" height="24" fill="white"/>
</clipPath>
</defs>
</svg>
