<svg width="17" height="17" viewBox="0 0 17 17" fill="none" xmlns="http://www.w3.org/2000/svg">
<path d="M8.08871 12.0903C8.72797 12.0903 8.92367 11.899 8.92367 11.2554C8.92367 10.6152 8.72797 10.4204 8.08871 10.4204C7.44945 10.4204 7.25377 10.6161 7.25376 11.2554C7.25375 11.8946 7.44945 12.0903 8.08871 12.0903Z" fill="#CCD3DB"/>
<path fill-rule="evenodd" clip-rule="evenodd" d="M5.16637 6.24565C5.16637 4.63168 6.47475 3.3233 8.08871 3.3233C9.70268 3.3233 11.0111 4.63168 11.0111 6.24565V7.63724H11.7069C12.4754 7.63724 13.0984 8.26028 13.0984 9.02883V13.4819C13.0984 14.2505 12.4754 14.8735 11.7069 14.8735H4.47057C3.70202 14.8735 3.07898 14.2505 3.07898 13.4819V9.02883C3.07898 8.26028 3.70202 7.63724 4.47057 7.63724H5.16637V6.24565ZM10.1761 6.24565V7.63724H6.00132V6.24565C6.00132 5.09281 6.93588 4.15826 8.08871 4.15826C9.24154 4.15826 10.1761 5.09281 10.1761 6.24565ZM4.47057 8.47219C4.16315 8.47219 3.91393 8.72141 3.91393 9.02883V13.4819C3.91393 13.7893 4.16315 14.0386 4.47057 14.0386H11.7069C12.0143 14.0386 12.2635 13.7893 12.2635 13.4819V9.02883C12.2635 8.72141 12.0143 8.47219 11.7069 8.47219H4.47057Z" fill="#CCD3DB"/>
</svg>
