<svg width="129" height="44" viewBox="0 0 129 44" fill="none" xmlns="http://www.w3.org/2000/svg">
<path d="M23.8973 7.80108C22.9767 3.79094 20.6786 0.53181 20.3693 0C19.8694 0.747409 18.0425 3.62565 17.1002 6.8201C16.0897 10.3775 15.9422 13.536 16.2911 16.6478C16.6399 19.7596 17.949 22.9505 17.949 22.9505C18.6503 24.6285 19.6968 26.4252 20.3765 27.3092C21.3763 26.012 23.6744 22.1348 24.3936 17.079C24.7964 14.269 24.8072 11.8076 23.8973 7.80108ZM20.3693 26.3102C19.9198 25.4622 19.2185 23.8488 19.1502 21.3514C19.1286 18.9403 20.0996 16.8778 20.3801 16.4466C20.6283 16.8778 21.4698 18.6744 21.5705 21.1359C21.628 23.5506 20.8261 25.4442 20.3693 26.3102ZM23.6276 14.6032C23.5988 16.1304 23.419 17.7474 23.1781 18.7104C23.268 17.0467 23.0666 14.7038 22.6782 12.8712C22.297 11.0422 21.2181 7.98434 20.3477 6.56857C19.5493 7.91606 18.5675 10.5607 18.0497 12.8533C17.539 15.1494 17.521 17.927 17.521 18.7607C17.3808 18.06 17.0427 15.5554 17.1398 13.0401C17.2189 10.9632 17.7008 8.83236 17.9706 7.85138C18.9883 4.57428 20.1391 2.47938 20.3477 2.14521C20.5671 2.47938 22.0164 5.05579 22.7681 7.76514C23.5161 10.4781 23.6672 13.0725 23.6276 14.6032Z" fill="white"/>
<path d="M21.9161 28.2435H14.95V32.9148C14.9608 32.9076 14.9716 32.9004 14.9716 32.8968C16.6115 31.2583 19.28 31.2583 20.9163 32.8968C22.5563 34.5389 22.5563 37.198 20.9163 38.8365C20.9055 38.8437 20.9055 38.8509 20.8947 38.8545V38.8581C20.884 38.8653 20.8732 38.8725 20.866 38.8797C19.2368 40.5038 17.0898 41.3159 14.95 41.3159C12.803 41.3159 10.6524 40.4967 9.01243 38.8581C6.12817 35.9691 5.78651 31.5062 7.98388 28.2435C8.28237 27.8015 8.62403 27.3847 9.01243 26.993C10.6524 25.3545 12.7994 24.5352 14.95 24.5352V13.3025C6.69639 13.3025 0 19.9932 0 28.2435C0 36.4937 6.69639 43.1809 14.95 43.1809C19.2584 43.1809 23.1353 41.3626 25.8649 38.4521V28.2435H21.9161ZM34.7011 40.5182C34.7011 41.5639 34.5716 43.1845 32.4714 43.1845H29.9935C27.904 43.1845 27.7745 41.5639 27.7745 40.5182V30.9133C27.7745 29.8676 27.904 28.2435 29.9935 28.2435H32.4714C34.5716 28.2435 34.7011 29.8641 34.7011 30.9133V33.0262H31.7017V30.5899C31.7017 30.3348 31.5111 30.1012 31.2306 30.1012C31.0616 30.1012 30.7595 30.2054 30.7595 30.5899V40.7769C30.7595 41.1614 31.058 41.2656 31.2306 41.2656C31.5111 41.2656 31.7017 41.0321 31.7017 40.7769V37.507H31.2522V35.8649H34.7011V40.5182ZM39.1965 37.5717L39.7072 30.1048H39.8762L40.3941 37.5717H39.1965ZM35.8879 43.1845H38.8153L39.085 39.2174H40.4948L40.7753 43.1845H43.7027L42.1419 28.2471H37.4451L35.8879 43.1845ZM44.814 41.3052L47.6839 30.1048H45.1161V28.2435H50.7516V30.1012L47.8925 41.2656H50.9314V43.1809H44.814V41.3052ZM55.3297 36.2422V30.0976H55.7109C56.0418 30.0976 56.2719 30.3743 56.2719 30.845V35.4948C56.2719 35.9655 56.0418 36.2422 55.7109 36.2422H55.3297ZM52.3304 43.1845H55.3297V38.1071H57.038C59.1274 38.1071 59.2569 36.4865 59.2569 35.4409V30.9133C59.2569 29.8676 59.1274 28.2435 57.038 28.2435H52.3304V43.1845ZM63.7847 35.793V30.0976H64.1731C64.4932 30.0976 64.7234 30.3743 64.7234 30.845V35.0456C64.7234 35.5163 64.4932 35.793 64.1731 35.793H63.7847V35.793ZM68.1003 43.1845L66.6294 37.3597C67.6903 36.9321 67.7083 35.9511 67.7083 35.5451V30.9133C67.7083 29.8676 67.5896 28.2435 65.4894 28.2435H60.7926V43.1809H63.7811V37.6579H64.0005L65.0183 43.1845H68.1003ZM73.6387 40.7769C73.6387 41.0321 73.4481 41.2692 73.1676 41.2692C72.9985 41.2692 72.6964 41.1614 72.6964 40.7769V30.5899C72.6964 30.2054 72.9949 30.1012 73.1676 30.1012C73.4481 30.1012 73.6387 30.3348 73.6387 30.5899V40.7769ZM69.7115 40.5182C69.7115 41.5639 69.8409 43.1845 71.9412 43.1845H74.4083C76.5086 43.1845 76.638 41.5639 76.638 40.5182V30.9133C76.638 29.8676 76.5086 28.2435 74.4083 28.2435H71.9412C69.8409 28.2435 69.7115 29.8641 69.7115 30.9133V40.5182ZM86.0209 28.2471H89.9085V43.1845H86.92V33.8167H86.8085L85.2692 43.1845H82.8813L81.342 33.8167H81.2306V43.1845H78.242V28.2471H82.1296L84.0681 38.7467L86.0209 28.2471Z" fill="white"/>
<path d="M91.6353 43.1846H94.3294V38.2021H97.1761C100.611 38.2021 102.456 36.1573 102.456 33.3204C102.456 30.5052 100.633 28.4387 97.2124 28.4387H91.6353V43.1846ZM94.3294 36.0061V30.6708H96.7985C98.8173 30.6708 99.7105 31.7508 99.7105 33.3204C99.7105 34.89 98.8173 36.0061 96.813 36.0061H94.3294Z" fill="white"/>
<path d="M104.844 43.1846L106.071 39.5485H111.663L112.897 43.1846H115.773L110.53 28.4387H107.204L101.968 43.1846H104.844ZM106.797 37.4029L108.809 31.4628H108.925L110.936 37.4029H106.797Z" fill="white"/>
<path d="M114.993 28.4387L120.403 37.6837V43.1846H123.09V37.6837L128.5 28.4387H125.457L121.819 34.9621H121.674L118.036 28.4387H114.993Z" fill="white"/>
</svg>

