<svg width="68" height="36" viewBox="0 0 68 36" fill="none" xmlns="http://www.w3.org/2000/svg">
<g clip-path="url(#clip0_901_6082)">
<path d="M58.7994 10.1018V18.7536H55.8188V12.6846H52.9489V18.7536H49.9683V10.1013H58.7994V10.1018Z" fill="black"/>
<path fill-rule="evenodd" clip-rule="evenodd" d="M43.8479 19.0629C46.5161 19.0629 48.4975 17.3672 48.4975 14.7966C48.4975 12.3085 47.0356 10.6931 44.5925 10.6931C43.4649 10.6931 42.5345 11.1045 41.8338 11.8143C42.0011 10.3472 43.198 9.2761 44.5159 9.2761C44.8201 9.2761 47.1099 9.27109 47.1099 9.27109L48.4047 6.70282C48.4047 6.70282 45.53 6.77065 44.1936 6.77065C41.1401 6.82579 39.0776 9.70252 39.0776 13.1965C39.0776 17.267 41.0892 19.0629 43.8479 19.0629ZM43.8641 12.9679C44.8548 12.9679 45.5416 13.6427 45.5416 14.7963C45.5416 15.8346 44.9313 16.6901 43.8641 16.6925C42.8432 16.6925 42.1564 15.8998 42.1564 14.814C42.1564 13.6601 42.8432 12.9679 43.8641 12.9679Z" fill="black"/>
<path d="M36.6512 15.8566C36.6512 15.8566 35.9473 16.2771 34.896 16.3568C33.6874 16.3939 32.6105 15.6027 32.6105 14.1969C32.6105 12.8256 33.5608 12.0397 34.8656 12.0397C35.6657 12.0397 36.7241 12.6145 36.7241 12.6145C36.7241 12.6145 37.4985 11.1415 37.8997 10.4048C37.1651 9.82772 36.1866 9.51129 35.0485 9.51129C32.1763 9.51129 29.9517 11.4523 29.9517 14.1795C29.9517 16.9415 32.0426 18.8374 35.0485 18.7802C35.8887 18.7478 37.0478 18.442 37.7543 17.9716L36.6512 15.8566Z" fill="black"/>
<path d="M0 7.70312L4.13463 15.3631V20.0355L0.00483682 27.6804L0 7.70312Z" fill="#5B57A2"/>
<path d="M15.876 12.5757L19.7503 10.1145L27.6792 10.1068L15.876 17.6013V12.5757Z" fill="#D90751"/>
<path d="M15.8538 7.65798L15.8757 17.7995L11.7314 15.1602V0.000366211L15.8541 7.65798H15.8538Z" fill="#FAB718"/>
<path d="M27.679 10.1068L19.7498 10.1145L15.8538 7.65798L11.7314 0.000366211L27.6787 10.1068H27.679Z" fill="#ED6F26"/>
<path d="M15.8757 27.7228V22.8025L11.7314 20.2133L11.7337 35.3881L15.8757 27.7228Z" fill="#63B22F"/>
<path d="M19.7399 25.284L4.13434 15.3631L0 7.70312L27.6618 25.274L19.7396 25.284H19.7399Z" fill="#1487C9"/>
<path d="M11.7339 35.3884L15.8753 27.7231L19.74 25.2843L27.6618 25.2743L11.7339 35.3884Z" fill="#017F36"/>
<path d="M0.00488281 27.6803L11.7649 20.2135L7.81123 17.6992L4.13467 20.0354L0.00488281 27.6803Z" fill="#984995"/>
<path d="M32.6109 24.5759C32.5198 24.6962 32.4001 24.7871 32.2564 24.8484C32.109 24.9106 31.9512 24.9423 31.792 24.9416C31.6337 24.9438 31.4763 24.9164 31.3274 24.8608C31.1937 24.8104 31.0714 24.7319 30.9684 24.6302C30.8666 24.5283 30.7867 24.4053 30.7339 24.2692C30.6767 24.1202 30.6482 23.961 30.65 23.8006C30.65 23.6414 30.6764 23.4939 30.7313 23.3542C30.784 23.2141 30.8605 23.0941 30.9564 22.9932C31.0523 22.8903 31.1672 22.8118 31.2964 22.7505C31.4281 22.6915 31.5718 22.6597 31.7297 22.6597C31.8999 22.6597 32.0578 22.6818 32.2015 22.7257C32.3451 22.77 32.4672 22.8437 32.5676 22.9469L32.3929 23.2536C32.3085 23.1742 32.2089 23.114 32.1007 23.0767C31.9979 23.0423 31.8904 23.025 31.7824 23.0254C31.6868 23.0254 31.5957 23.0448 31.5072 23.0817C31.42 23.1181 31.3404 23.1714 31.2725 23.2389C31.2032 23.3082 31.1485 23.3918 31.112 23.4842C31.0713 23.5798 31.0523 23.6853 31.0523 23.803C31.0523 23.9233 31.0736 24.0312 31.1143 24.1244C31.1553 24.2203 31.2102 24.3014 31.2796 24.3698C31.349 24.4388 31.4304 24.4901 31.5237 24.5246C31.6173 24.5615 31.7155 24.5786 31.8208 24.5786C31.9499 24.5786 32.0675 24.5514 32.1679 24.4998C32.2674 24.45 32.3568 24.381 32.4313 24.2964L32.6109 24.5759ZM33.104 24.89V22.7063H33.4824V24.3332L34.7129 22.7063H35.0913V24.8903H34.7129V23.2633L33.4824 24.8903H33.104V24.89ZM37.5979 24.5759C37.5048 24.6973 37.3827 24.7912 37.2437 24.8484C37.0962 24.9106 36.9383 24.9422 36.7791 24.9416C36.6209 24.9438 36.4636 24.9164 36.3147 24.8608C36.1809 24.8104 36.0585 24.7319 35.9554 24.6302C35.8537 24.5283 35.7738 24.4053 35.721 24.2692C35.6638 24.1202 35.6353 23.961 35.637 23.8006C35.637 23.6414 35.6635 23.4939 35.7184 23.3542C35.7713 23.2141 35.8479 23.0941 35.9435 22.9932C36.0393 22.8903 36.1543 22.8118 36.2835 22.7505C36.4199 22.6882 36.5677 22.6572 36.7168 22.6597C36.8869 22.6597 37.0448 22.6818 37.1885 22.7257C37.3322 22.77 37.4542 22.8437 37.555 22.9469L37.38 23.2536C37.2956 23.1742 37.1962 23.1139 37.0881 23.0767C36.9852 23.0423 36.8778 23.025 36.7697 23.0254C36.5795 23.026 36.3968 23.1024 36.2596 23.2389C36.1908 23.3087 36.1362 23.3921 36.0991 23.4842C36.0584 23.5798 36.0393 23.6853 36.0393 23.803C36.0393 23.9233 36.061 24.0312 36.1016 24.1244C36.1423 24.2203 36.1972 24.3014 36.2667 24.3698C36.3361 24.4388 36.4177 24.4901 36.5111 24.5246C36.6044 24.5588 36.7025 24.5786 36.8078 24.5786C36.9373 24.5786 37.0522 24.5514 37.1549 24.4998C37.2545 24.45 37.3439 24.381 37.4184 24.2964L37.5979 24.5759ZM37.792 22.7063H39.7335V23.0941H38.9531V24.89H38.5747V23.0941H37.7942V22.7063H37.792Z" fill="black"/>
<path fill-rule="evenodd" clip-rule="evenodd" d="M41.5008 24.8685C41.6445 24.8219 41.7665 24.7505 41.8718 24.6526L41.7569 24.3483C41.6874 24.4122 41.5941 24.4662 41.4817 24.5104C41.3691 24.5547 41.2422 24.5765 41.1033 24.5765C40.895 24.5765 40.7226 24.5202 40.5861 24.4049C40.4498 24.2893 40.3755 24.1277 40.3587 23.9212H41.9964C42.0132 23.8452 42.0203 23.7593 42.0203 23.6588C42.0203 23.509 41.9939 23.3742 41.9412 23.2515C41.8922 23.1324 41.8206 23.0247 41.7307 22.9348C41.6395 22.8458 41.532 22.7766 41.4146 22.7313C41.2917 22.6819 41.1609 22.6569 41.0291 22.6576C40.8518 22.6576 40.6962 22.6895 40.5599 22.7484C40.431 22.8046 40.3145 22.8873 40.2173 22.9914C40.123 23.095 40.0505 23.2179 40.0045 23.3521C39.9539 23.495 39.9288 23.6463 39.9302 23.7986C39.9302 23.9705 39.959 24.1274 40.0116 24.2675C40.0628 24.4031 40.1412 24.5261 40.2415 24.6281C40.3397 24.7284 40.4592 24.8048 40.6006 24.8587C40.752 24.9144 40.9117 24.9417 41.0723 24.9395C41.2178 24.9386 41.3622 24.9147 41.5008 24.8687V24.8685ZM40.5431 23.1875C40.6603 23.0772 40.8159 23.0233 41.0123 23.0233C41.1966 23.0233 41.3452 23.0749 41.453 23.1781C41.5608 23.281 41.618 23.4235 41.6277 23.6048H40.3348C40.3531 23.4442 40.4272 23.296 40.5431 23.1878V23.1875Z" fill="black"/>
<path d="M42.5356 22.7064H42.8805L43.6993 23.7887L44.4749 22.7064H44.8101V24.8904H44.432V23.298L43.6945 24.3113H43.68L42.9141 23.2977V24.8901H42.5356V22.7064Z" fill="black"/>
<path fill-rule="evenodd" clip-rule="evenodd" d="M45.839 22.7136C45.7242 22.7447 45.6144 22.7934 45.5135 22.8581L45.6139 23.1678C45.7001 23.1235 45.7864 23.0867 45.8726 23.0548C45.9588 23.0227 46.0689 23.0079 46.2006 23.0079C46.3059 23.0079 46.3898 23.0253 46.4544 23.0596C46.519 23.0914 46.5668 23.1407 46.6004 23.1996C46.6339 23.2586 46.6556 23.332 46.6675 23.4179C46.6795 23.5037 46.6843 23.5969 46.6843 23.6977C46.6069 23.6418 46.5186 23.6041 46.4257 23.5871C46.3358 23.5686 46.2444 23.5587 46.1528 23.5576C46.0401 23.5576 45.9349 23.575 45.8341 23.6042C45.7337 23.6337 45.6475 23.678 45.5781 23.7369C45.5072 23.7958 45.45 23.8704 45.4105 23.9552C45.3683 24.048 45.347 24.1495 45.3482 24.2521C45.3482 24.4656 45.4082 24.6325 45.5277 24.7505C45.6475 24.8682 45.8054 24.9268 46.0017 24.9268C46.179 24.9268 46.3204 24.895 46.4279 24.8313C46.5358 24.7673 46.622 24.6939 46.6843 24.6104V24.8926H47.0385V23.5529C47.0385 23.268 46.9788 23.0475 46.8567 22.8926C46.7369 22.7381 46.5238 22.6597 46.2222 22.6597C46.0879 22.6597 45.961 22.6791 45.839 22.7136ZM46.4715 24.483C46.3853 24.5467 46.2726 24.5759 46.1337 24.5759C46.0117 24.5759 45.9158 24.5441 45.8489 24.4827C45.7818 24.419 45.7482 24.3356 45.7482 24.2324C45.7482 24.1713 45.7602 24.1197 45.7866 24.0731C45.8131 24.0265 45.8489 23.9897 45.8896 23.9602C45.9341 23.9293 45.9835 23.9069 46.0356 23.8938C46.0908 23.8791 46.1457 23.8717 46.2032 23.8717C46.3901 23.8717 46.5503 23.9183 46.682 24.0165V24.2937C46.6199 24.3658 46.5492 24.4293 46.4715 24.4827V24.483ZM50.3788 21.9381C50.4553 21.9015 50.527 21.8401 50.5942 21.7493L50.3882 21.4426C50.3355 21.5164 50.2758 21.5677 50.2086 21.5948C50.1375 21.6236 50.0637 21.645 49.9884 21.6585L49.9167 21.6718C49.8544 21.683 49.7875 21.6954 49.7156 21.7077C49.6001 21.7299 49.4876 21.7661 49.3804 21.8157C49.2103 21.8918 49.074 21.9947 48.971 22.1247C48.868 22.2548 48.7866 22.4019 48.7314 22.5641C48.6755 22.7284 48.6378 22.8988 48.619 23.0719C48.5997 23.2489 48.5903 23.4179 48.5903 23.5798C48.5903 23.7885 48.6165 23.9773 48.6691 24.1465C48.722 24.3161 48.796 24.4583 48.8942 24.5736C48.9923 24.6915 49.1098 24.78 49.2487 24.8437C49.3875 24.9074 49.5431 24.9392 49.7178 24.9392C49.8783 24.9392 50.0268 24.9074 50.1608 24.8484C50.29 24.7917 50.4072 24.7093 50.5057 24.6057C50.6013 24.5048 50.6781 24.3845 50.7307 24.2498C50.7856 24.1147 50.8121 23.9699 50.8121 23.8177C50.8121 23.6535 50.7882 23.504 50.7427 23.3713C50.7007 23.2447 50.6339 23.1287 50.5464 23.0304C50.4586 22.9337 50.3515 22.8582 50.2325 22.8092C50.1015 22.7557 49.9617 22.729 49.8208 22.7307C49.7298 22.7307 49.6413 22.7431 49.5551 22.7676C49.4712 22.7921 49.3907 22.8276 49.3155 22.8732C49.2425 22.9165 49.1757 22.9701 49.1169 23.0324C49.0595 23.0941 49.0117 23.1628 48.9781 23.2412H48.9684C48.9758 23.1407 48.9878 23.0377 49.0091 22.9322C49.0307 22.8266 49.0617 22.7257 49.1027 22.6302C49.1434 22.5346 49.196 22.4485 49.2606 22.3701C49.3299 22.2909 49.4148 22.2281 49.5096 22.1861C49.6138 22.1346 49.7241 22.0975 49.8376 22.0758L49.9127 22.0616C49.9876 22.0475 50.059 22.0339 50.1273 22.0192C50.2183 21.9997 50.302 21.9749 50.3788 21.9384V21.9381ZM49.0475 24.0363C49.0105 23.9124 48.9927 23.7832 48.9949 23.6535C49.0109 23.5791 49.0401 23.5084 49.0811 23.445C49.1218 23.3786 49.1744 23.3199 49.2367 23.268C49.3773 23.1539 49.5512 23.0925 49.7298 23.0941C49.9526 23.0941 50.1201 23.1651 50.2374 23.3052C50.3549 23.4473 50.4123 23.624 50.4123 23.8375C50.4123 23.9431 50.393 24.0389 50.3597 24.1271C50.3274 24.2141 50.2785 24.2934 50.216 24.3604C50.1535 24.4275 50.0786 24.4808 49.9958 24.5172C49.9096 24.5565 49.816 24.5762 49.7107 24.5762C49.6054 24.5762 49.5096 24.5541 49.4211 24.5099C49.3331 24.4665 49.2554 24.4037 49.1935 24.3258C49.1286 24.2391 49.0792 24.141 49.0475 24.0363ZM53.7139 22.7063H53.3355V24.8903H53.7139V22.7063ZM51.3578 22.7063H51.7362V23.3615H52.0859C52.2509 23.3615 52.3849 23.3836 52.4927 23.4252C52.6006 23.4671 52.6868 23.5234 52.7514 23.5921C52.816 23.6609 52.8615 23.7419 52.8879 23.8325C52.9141 23.9233 52.9286 24.0165 52.9286 24.1147C52.9286 24.2129 52.9141 24.3064 52.8831 24.3996C52.8544 24.4928 52.804 24.5736 52.7369 24.6473C52.67 24.721 52.579 24.78 52.464 24.8242C52.3491 24.8682 52.2102 24.8926 52.0426 24.8926H51.3555V22.7063H51.3578ZM51.7362 23.7269V24.527H52.0116C52.2008 24.527 52.3348 24.4928 52.4114 24.4238C52.4882 24.355 52.5263 24.2571 52.5263 24.1271C52.5263 23.9944 52.4856 23.8941 52.4091 23.8251C52.33 23.7564 52.1983 23.7219 52.0165 23.7219H51.7362V23.7269Z" fill="black"/>
<path d="M56.2159 24.5759C56.1248 24.6962 56.005 24.7871 55.8613 24.8484C55.7139 24.9106 55.5562 24.9422 55.397 24.9416C55.2387 24.9438 55.0813 24.9165 54.9324 24.8608C54.7986 24.8105 54.6763 24.732 54.5733 24.6302C54.4716 24.5282 54.3916 24.4053 54.3386 24.2692C54.2817 24.1201 54.2533 23.961 54.255 23.8006C54.255 23.6414 54.2811 23.4939 54.3363 23.3542C54.389 23.2141 54.4655 23.0941 54.5614 22.9932C54.6573 22.8903 54.7719 22.8118 54.9014 22.7505C55.0378 22.6882 55.1856 22.6572 55.3347 22.6597C55.5046 22.6597 55.6628 22.6818 55.8064 22.7257C55.9501 22.77 56.0722 22.8437 56.1726 22.9469L55.9979 23.2536C55.9134 23.1742 55.8139 23.114 55.7057 23.0767C55.6029 23.0423 55.4954 23.025 55.3873 23.0254C55.2917 23.0254 55.2007 23.0448 55.1119 23.0817C55.0248 23.1181 54.9452 23.1714 54.8775 23.2389C54.8086 23.3086 54.7541 23.3921 54.717 23.4842C54.6763 23.5798 54.6573 23.6853 54.6573 23.803C54.6573 23.9233 54.6786 24.0313 54.7193 24.1244C54.76 24.2203 54.8152 24.3014 54.8846 24.3698C54.954 24.4388 55.0354 24.4901 55.1287 24.5246C55.2223 24.5588 55.3205 24.5786 55.4257 24.5786C55.5549 24.5786 55.6699 24.5515 55.7729 24.4998C55.8724 24.45 55.9618 24.381 56.0363 24.2964L56.2159 24.5759ZM56.4096 22.7063H58.3515V23.0941H57.5707V24.89H57.1926V23.0941H56.4122V22.7063H56.4096Z" fill="black"/>
<path fill-rule="evenodd" clip-rule="evenodd" d="M59.1421 22.7071H58.7637V25.8625H59.1421V24.7903C59.2186 24.8419 59.3097 24.8788 59.4149 24.9032C59.5202 24.9277 59.6303 24.9398 59.743 24.9398C59.9106 24.9398 60.0614 24.9079 60.1979 24.8493C60.3289 24.7912 60.4476 24.707 60.5473 24.6015C60.6455 24.4957 60.7197 24.373 60.7724 24.2282C60.825 24.0837 60.8515 23.9289 60.8515 23.7646C60.8515 23.6024 60.8276 23.4529 60.7821 23.3179C60.7392 23.1896 60.6725 23.0713 60.5857 22.9696C60.5006 22.8704 60.395 22.7924 60.2767 22.7413C60.1475 22.6838 60.008 22.6553 59.8673 22.6579C59.7191 22.6579 59.5802 22.6874 59.4485 22.7463C59.3168 22.8053 59.2138 22.8761 59.1421 22.9646V22.7071ZM59.4056 23.112C59.5134 23.053 59.6306 23.0235 59.7575 23.0235C59.8676 23.0235 59.9658 23.0407 60.0545 23.0775C60.1407 23.1144 60.2124 23.166 60.2725 23.2347C60.3322 23.3034 60.3777 23.3821 60.4065 23.475C60.4375 23.5682 60.452 23.6691 60.452 23.7794C60.452 23.8973 60.4327 24.0026 60.3994 24.1008C60.368 24.1939 60.3182 24.2792 60.2531 24.3512C60.1878 24.4223 60.1087 24.4783 60.021 24.5154C59.9232 24.5579 59.818 24.5788 59.712 24.5768C59.6093 24.5768 59.5134 24.5647 59.4223 24.5402C59.3227 24.5121 59.2281 24.4673 59.1424 24.4075V23.3252C59.2092 23.2421 59.298 23.171 59.4056 23.112ZM63.7533 22.7068H63.3749V24.8908H63.7533V22.7068ZM61.3949 22.7068H61.7733V23.3621H62.1227C62.288 23.3621 62.422 23.3842 62.5298 23.4258C62.6377 23.4677 62.7239 23.524 62.7885 23.5927C62.8531 23.6614 62.8986 23.7425 62.9248 23.833C62.9512 23.9239 62.9654 24.0171 62.9654 24.1153C62.9654 24.2135 62.9512 24.3069 62.9202 24.4001C62.8915 24.4933 62.8411 24.5741 62.774 24.6478C62.7071 24.7216 62.6161 24.7806 62.5011 24.8248C62.3862 24.8687 62.2473 24.8932 62.0797 24.8932H61.3926V22.7068H61.3949ZM61.7759 23.7275V24.5275H62.0513C62.2402 24.5275 62.3745 24.4933 62.451 24.4243C62.5276 24.3556 62.566 24.2577 62.566 24.1276C62.566 23.9949 62.5253 23.8947 62.4488 23.8257C62.3697 23.757 62.2379 23.7225 62.0561 23.7225H61.7759V23.7275Z" fill="black"/>
<path d="M65.5672 23.7592L66.3764 24.8904H65.912L65.2869 24.0069L64.6525 24.8904H64.212L65.0163 23.7787L64.2598 22.7064H64.7244L65.3014 23.531L65.8878 22.7064H66.3286L65.5672 23.7592ZM32.3305 27.5896H31.1694V29.4103H30.791V27.2266H32.7087V29.4103H32.3305V27.5896ZM34.8562 27.6141H34.1094L34.0852 27.9822C34.059 28.2939 34.0231 28.5442 33.9728 28.7353C33.9224 28.927 33.8601 29.0742 33.7884 29.1771C33.7167 29.2803 33.6328 29.3514 33.5369 29.3859C33.438 29.423 33.3334 29.4413 33.2282 29.4398L33.1995 29.0618C33.2402 29.0641 33.288 29.0544 33.3406 29.0299C33.3935 29.0054 33.4461 28.9515 33.4962 28.8707C33.5466 28.7869 33.5921 28.6693 33.6328 28.5171C33.6735 28.3626 33.6999 28.1614 33.7142 27.9084L33.7526 27.2287H35.2346V29.4127H34.8562V27.6138V27.6141Z" fill="black"/>
<path fill-rule="evenodd" clip-rule="evenodd" d="M36.2555 27.2321C36.1332 27.2663 36.023 27.3152 35.9297 27.3766L36.0304 27.6859C36.1167 27.6417 36.2029 27.6048 36.2888 27.573C36.375 27.5411 36.4854 27.5264 36.6168 27.5264C36.7224 27.5264 36.806 27.5435 36.8706 27.5777C36.9355 27.6098 36.9833 27.6588 37.0169 27.7178C37.0502 27.7767 37.0718 27.8505 37.0837 27.936C37.0957 28.0221 37.1005 28.1153 37.1005 28.2158C37.0231 28.16 36.9348 28.1224 36.8419 28.1056C36.752 28.087 36.6607 28.0771 36.569 28.0761C36.4567 28.0761 36.3511 28.0932 36.2507 28.1227C36.1499 28.1521 36.0637 28.1964 35.9943 28.2554C35.9234 28.3142 35.8662 28.3888 35.8267 28.4736C35.7846 28.5664 35.7634 28.668 35.7647 28.7705C35.7647 28.9838 35.8244 29.151 35.9442 29.2686C36.0637 29.3863 36.2219 29.4453 36.4182 29.4453C36.5955 29.4453 36.7366 29.4134 36.8444 29.3494C36.952 29.2857 37.0382 29.212 37.1005 29.1286V29.4108H37.455V28.0711C37.455 27.7865 37.395 27.5656 37.2729 27.4111C37.1532 27.2562 36.94 27.1781 36.6385 27.1781C36.5091 27.1782 36.3803 27.1963 36.2555 27.2318V27.2321ZM36.89 29.0009C36.804 29.0649 36.6914 29.0943 36.5525 29.0943C36.4279 29.0943 36.3346 29.0625 36.2677 29.0009C36.2006 28.9372 36.167 28.8537 36.167 28.7508C36.167 28.6895 36.179 28.6378 36.2054 28.5913C36.2316 28.5447 36.2677 28.5078 36.3084 28.4783C36.3491 28.4488 36.3992 28.4267 36.4544 28.412C36.5091 28.3973 36.5654 28.39 36.622 28.3901C36.8086 28.3901 36.9691 28.4367 37.1008 28.5346V28.8118C37.0386 28.8839 36.9678 28.9475 36.89 29.0009Z" fill="black"/>
<path d="M37.8257 27.2267H39.7675V27.6142H38.9868V29.4104H38.6087V27.6145H37.8282V27.2267H37.8257Z" fill="black"/>
<path fill-rule="evenodd" clip-rule="evenodd" d="M41.5343 29.3886C41.6779 29.342 41.8 29.2706 41.9053 29.1727L41.7903 28.8684C41.7209 28.9324 41.6276 28.9863 41.5149 29.0306C41.4025 29.0748 41.2756 29.0966 41.1368 29.0966C40.9285 29.0966 40.7561 29.0403 40.6195 28.925C40.483 28.8097 40.409 28.6478 40.3922 28.4414H42.0299C42.0464 28.3656 42.0538 28.2794 42.0538 28.1789C42.0538 28.0294 42.0273 27.8943 41.9747 27.7716C41.9257 27.6525 41.854 27.5449 41.7639 27.4552C41.6729 27.366 41.5654 27.2967 41.448 27.2514C41.3251 27.202 41.1944 27.177 41.0625 27.1777C40.8853 27.1777 40.7296 27.2096 40.5934 27.2685C40.4644 27.3246 40.3479 27.4073 40.2508 27.5115C40.1565 27.6152 40.0839 27.738 40.0377 27.8722C39.9872 28.0152 39.9621 28.1664 39.9634 28.3187C39.9634 28.4906 39.9922 28.6475 40.0448 28.7876C40.0977 28.9273 40.1765 29.0477 40.2747 29.1482C40.3729 29.2488 40.4926 29.3249 40.634 29.3788C40.7853 29.4346 40.9449 29.462 41.1055 29.4599C41.2469 29.4599 41.3906 29.4352 41.5343 29.3886ZM40.5743 27.7053C40.6915 27.595 40.8471 27.541 41.0435 27.541C41.2304 27.541 41.3764 27.595 41.4842 27.6956C41.5917 27.7988 41.6492 27.9409 41.6589 28.1226H40.366C40.3843 27.9619 40.4583 27.8136 40.5743 27.7053ZM42.2382 27.227H42.717L43.4471 28.2797L42.6666 29.4107H42.2023L43.0209 28.2795L42.2382 27.2267V27.227ZM43.5404 27.227H43.9188V29.4107H43.5404V27.227ZM45.2714 29.4107L44.4383 28.2795L45.2165 27.2267H44.747L44.0121 28.2795L44.8022 29.4107H45.2714ZM47.0001 29.3886C47.1438 29.342 47.2659 29.2706 47.3712 29.1727L47.2562 28.8684C47.1868 28.9324 47.0935 28.9863 46.9811 29.0306C46.8684 29.0748 46.7415 29.0966 46.6027 29.0966C46.3944 29.0966 46.222 29.0403 46.0854 28.925C45.9491 28.8097 45.8749 28.6478 45.8581 28.4414H47.4958C47.5126 28.3656 47.5197 28.2794 47.5197 28.1789C47.5197 28.0294 47.4935 27.8943 47.4406 27.7716C47.3916 27.6526 47.32 27.545 47.23 27.4552C47.1389 27.366 47.0314 27.2967 46.9139 27.2514C46.791 27.202 46.6602 27.177 46.5284 27.1777C46.3514 27.1777 46.1958 27.2096 46.0592 27.2685C45.9304 27.3247 45.814 27.4073 45.717 27.5115C45.6224 27.615 45.5499 27.7379 45.5039 27.8722C45.4533 28.0151 45.4281 28.1664 45.4296 28.3187C45.4296 28.4906 45.4583 28.6475 45.511 28.7876C45.5636 28.9273 45.6427 29.0477 45.7409 29.1482C45.839 29.2488 45.9585 29.3249 46.0999 29.3788C46.2513 29.4346 46.411 29.462 46.5717 29.4599C46.7172 29.4588 46.8616 29.4347 47.0001 29.3886ZM46.0402 27.7053C46.1577 27.595 46.3133 27.541 46.5096 27.541C46.694 27.541 46.8422 27.595 46.9501 27.6956C47.0579 27.7988 47.1154 27.9409 47.1248 28.1226H45.8319C45.8502 27.9619 45.9242 27.8136 46.0402 27.7053ZM49.0547 26.4933C48.8319 26.4933 48.7098 26.3656 48.6908 26.1105H48.334C48.334 26.2084 48.3508 26.2968 48.3818 26.3803C48.4131 26.4638 48.4586 26.5348 48.5183 26.5938C48.5781 26.6528 48.6549 26.6994 48.7434 26.736C48.8319 26.7728 48.9349 26.7899 49.0521 26.7899C49.1599 26.7899 49.2558 26.7728 49.342 26.736C49.4282 26.7017 49.4999 26.6528 49.5622 26.5938C49.622 26.5348 49.6701 26.4638 49.7034 26.3803C49.7369 26.2968 49.7537 26.2084 49.7537 26.1105H49.3995C49.3827 26.3656 49.2652 26.4933 49.0547 26.4933ZM48.0321 27.2267V29.4107H48.4105L49.6411 27.7837V29.4107H50.0195V27.2267H49.6411L48.4105 28.8536V27.2267H48.0321Z" fill="black"/>
</g>
<defs>
<clipPath id="clip0_901_6082">
<rect width="68" height="35.3878" fill="white" transform="translate(0 0.000366211)"/>
</clipPath>
</defs>
</svg>
