<svg width="24" height="12" viewBox="0 0 24 12" fill="none" xmlns="http://www.w3.org/2000/svg">
<path fill-rule="evenodd" clip-rule="evenodd" d="M9.33252 10.7172H14.5825V1.28284H9.33252V10.7172Z" fill="#7473C0"/>
<path fill-rule="evenodd" clip-rule="evenodd" d="M9.666 6C9.666 4.086 10.5622 2.3815 11.9577 1.28283C10.937 0.479333 9.64933 0 8.24967 0C4.93617 0 2.25 2.68633 2.25 6C2.25 9.31367 4.93617 12 8.24967 12C9.64933 12 10.937 11.5207 11.9577 10.7172C10.5622 9.6185 9.666 7.91383 9.666 6Z" fill="#EB001B"/>
<path fill-rule="evenodd" clip-rule="evenodd" d="M21.665 6C21.665 9.31367 18.9789 12 15.6655 12C14.2659 12 12.978 11.5207 11.9575 10.7172C13.353 9.6185 14.249 7.91383 14.249 6C14.249 4.086 13.353 2.3815 11.9575 1.28283C12.978 0.479333 14.2659 0 15.6655 0C18.9789 0 21.665 2.68633 21.665 6Z" fill="#00A0DF"/>
</svg>
