<svg width="24" height="12" viewBox="0 0 24 12" fill="none" xmlns="http://www.w3.org/2000/svg">
<path fill-rule="evenodd" clip-rule="evenodd" d="M9.17285 10.7172H14.7113V1.28284H9.17285V10.7172Z" fill="#FF5F00"/>
<path fill-rule="evenodd" clip-rule="evenodd" d="M9.65427 6C9.65427 4.086 10.549 2.3815 11.9423 1.28283C10.9233 0.479333 9.63763 0 8.24017 0C4.93192 0 2.25 2.68633 2.25 6C2.25 9.31367 4.93192 12 8.24017 12C9.63763 12 10.9233 11.5207 11.9423 10.7172C10.549 9.6185 9.65427 7.91383 9.65427 6Z" fill="#EB001B"/>
<path fill-rule="evenodd" clip-rule="evenodd" d="M21.6347 6C21.6347 9.31367 18.9527 12 15.6446 12C14.2471 12 12.9613 11.5207 11.9424 10.7172C13.3357 9.6185 14.2303 7.91383 14.2303 6C14.2303 4.086 13.3357 2.3815 11.9424 1.28283C12.9613 0.479333 14.2471 0 15.6446 0C18.9527 0 21.6347 2.68633 21.6347 6Z" fill="#F79E1B"/>
</svg>
