<svg width="24" height="12" viewBox="0 0 24 12" fill="none" xmlns="http://www.w3.org/2000/svg">
<path fill-rule="evenodd" clip-rule="evenodd" d="M0 9.375V2.625H2.20408C2.20408 2.625 2.84082 2.625 3.18367 3.58929C4.06531 6.14464 4.16327 6.48214 4.16327 6.48214C4.16327 6.48214 4.35918 5.85536 5.14286 3.58929C5.48571 2.625 6.12245 2.625 6.12245 2.625H8.32653V9.375H6.12245V5.75893H5.87755L4.65306 9.375H3.67347L2.44898 5.75893H2.20408V9.375H0ZM17.1429 5.75894V9.37501H19.347V7.44644H21.3061C22.3837 7.44644 23.3143 6.72323 23.6082 5.75894H17.1429ZM9.30615 9.375V2.625H11.5102V6.48214H11.7551L13.4694 3.10714C13.7143 2.67321 14.2041 2.625 14.2041 2.625H16.1633V9.375H13.9592V5.51786H13.7143L12 8.89286C11.7551 9.375 11.2653 9.375 11.2653 9.375H9.30615Z" fill="#006848"/>
<path d="M21.3061 2.625H16.751C16.9959 4.11964 18.4653 5.51786 20.0816 5.51786H23.7061C23.7551 5.37321 23.7551 5.18036 23.7551 5.03571C23.7551 3.68571 22.6775 2.625 21.3061 2.625Z" fill="url(#paint0_linear_418_68031)"/>
<defs>
<linearGradient id="paint0_linear_418_68031" x1="23.7551" y1="10.2349" x2="16.7938" y2="10.2349" gradientUnits="userSpaceOnUse">
<stop stop-color="#1E5CD8"/>
<stop offset="1" stop-color="#02AFFF"/>
</linearGradient>
</defs>
</svg>
