<svg width="103" height="23" viewBox="0 0 103 23" fill="none" xmlns="http://www.w3.org/2000/svg">
<path d="M50.78 9.19043H33.11V18.3604H38.7201V13.2004H41.0801L44.24 18.3604H50.6L46.86 12.7504C47.7235 12.4593 48.5175 11.9927 49.1921 11.3801C49.8667 10.7675 50.4073 10.022 50.78 9.19043Z" fill="white"/>
<path d="M48.9501 2.52023C47.8253 1.47732 46.3438 0.904772 44.8101 0.920227H32.8101C32.8101 1.41023 32.9 1.85023 32.99 2.30023C32.99 2.39023 32.9901 2.47023 33.0801 2.61023C33.0629 2.65185 33.0629 2.69861 33.0801 2.74023C33.5771 4.32289 34.5651 5.70617 35.901 6.68965C37.2369 7.67313 38.8512 8.20573 40.51 8.21024H50.8301C50.8849 7.85945 50.9149 7.50523 50.92 7.15022C50.9348 6.28068 50.7641 5.41799 50.4192 4.61963C50.0743 3.82126 49.5632 3.10557 48.92 2.52023" fill="white"/>
<path d="M14.29 3.18994L11.98 11.1899H11.58L9.26996 3.18994C9.08647 2.53584 8.69384 1.95981 8.1521 1.54989C7.61036 1.13997 6.94931 0.918712 6.26996 0.919932H0.709961V18.3999H6.26996V7.99993H6.66998L9.82996 18.3299H13.83L16.99 7.99993H17.43V18.3299H23V0.919932H17.41C16.7223 0.918187 16.0523 1.13805 15.4993 1.54692C14.9464 1.95578 14.5398 2.53191 14.34 3.18994" fill="white"/>
<path d="M30.84 0.919922H25.28V18.3999H30.84V0.919922Z" fill="white"/>
<path d="M61.0801 1.10059H67.41C71.26 1.10059 73.91 3.10058 73.91 6.45058V6.50058C73.91 10.1806 70.7401 12.0806 67.0901 12.0806H62.41V18.6006H61.11L61.0801 1.10059ZM67.1801 10.8806C70.4301 10.8806 72.63 9.18058 72.63 6.58058V6.53058C72.63 3.75058 70.4801 2.30058 67.3301 2.30058H62.3301V10.8806H67.1801Z" fill="white"/>
<path d="M76.2101 14.9V14.85C76.2101 12.2 78.48 10.7 81.78 10.7C83.2086 10.6884 84.6319 10.8734 86.01 11.25V10.7C86.01 8.12996 84.4301 6.79997 81.8101 6.79997C80.415 6.8012 79.0416 7.14456 77.8101 7.79997L77.36 6.71997C78.7621 6.01072 80.3088 5.63429 81.88 5.61996C83.3462 5.53805 84.7849 6.04161 85.88 7.01997C86.3296 7.50046 86.6767 8.06741 86.9001 8.68631C87.1236 9.3052 87.2189 9.9631 87.1801 10.62V18.57H85.98V16.44C85.428 17.2139 84.6943 17.8403 83.8434 18.264C82.9924 18.6878 82.0502 18.8959 81.1 18.87C78.73 18.87 76.1801 17.52 76.1801 14.87M86 13.8V12.35C84.5917 11.9677 83.1393 11.7727 81.6801 11.77C78.9801 11.77 77.48 12.97 77.48 14.77C77.48 16.62 79.2301 17.7 81.1801 17.7C83.7801 17.7 86 16.1 86 13.78" fill="white"/>
<path d="M101.08 5.85059H102.41L96.89 19.0506C95.76 21.7206 94.46 22.6706 92.64 22.6706C91.7688 22.6847 90.9061 22.4964 90.12 22.1206L90.54 21.0506C91.2123 21.3873 91.9587 21.5489 92.7101 21.5206C94.0401 21.5206 94.91 20.7506 95.86 18.5206L89.74 5.85059H91.17L96.4601 17.2506L101.08 5.85059Z" fill="white"/>
</svg>
