<svg width="100" height="22" viewBox="0 0 100 22" fill="none" xmlns="http://www.w3.org/2000/svg">
<path d="M49.25 8.16211H31.8811V17.1758H37.3956V12.1038H39.7153L42.8214 17.1758H49.073L45.3967 11.6614C46.2455 11.3753 47.026 10.9167 47.6891 10.3145C48.3522 9.71227 48.8836 8.97949 49.25 8.16211Z" fill="#006848"/>
<path d="M13.382 2.26355L11.1114 10.1272H10.7182L8.44754 2.26355C8.26718 1.6206 7.88124 1.05439 7.34873 0.651458C6.81623 0.248528 6.16644 0.031037 5.49867 0.0322367H0.0334473V17.2143H5.49867V6.99156H5.89188L8.99799 17.1455H12.9298L16.036 6.99156H16.4685V17.1455H21.9435V0.0322367H16.4488C15.7728 0.0305217 15.1143 0.246634 14.5707 0.648533C14.0272 1.05043 13.6276 1.61674 13.4311 2.26355" fill="#006848"/>
<path d="M29.65 0.0322266H24.1848V17.2143H29.65V0.0322266Z" fill="#006848"/>
<path d="M59.3745 0.209961H65.5966C69.3809 0.209961 71.9858 2.17586 71.9858 5.46876V5.51791C71.9858 9.13519 68.8699 11.0028 65.2821 11.0028H60.6818V17.4117H59.4039L59.3745 0.209961ZM65.3705 9.82326C68.5651 9.82326 70.7276 8.15223 70.7276 5.59655V5.5474C70.7276 2.81478 68.6143 1.3895 65.518 1.3895H60.6032V9.82326H65.3705Z" fill="#006848"/>
<path d="M74.2466 13.7748V13.7257C74.2466 11.1209 76.4778 9.64643 79.7216 9.64643C81.1258 9.63503 82.5248 9.81695 83.8794 10.1871V9.64643C83.8794 7.12024 82.3264 5.81291 79.7511 5.81291C78.3798 5.81412 77.0298 6.15163 75.8193 6.79587L75.3769 5.73427C76.755 5.03711 78.2754 4.6671 79.8198 4.65302C81.261 4.5725 82.6752 5.06748 83.7517 6.02916C84.1936 6.50146 84.5347 7.05875 84.7544 7.6671C84.9741 8.27544 85.0677 8.92212 85.0295 9.56779V17.3823H83.8499V15.2886C83.3073 16.0493 82.5862 16.6651 81.7497 17.0816C80.9133 17.4981 79.9872 17.7026 79.0531 17.6772C76.7235 17.6772 74.217 16.3502 74.217 13.7453M83.8696 12.6936V11.2683C82.4853 10.8926 81.0576 10.7009 79.6233 10.6982C76.9693 10.6982 75.4948 11.8777 75.4948 13.6471C75.4948 15.4655 77.2151 16.5271 79.1318 16.5271C81.6875 16.5271 83.8696 14.9544 83.8696 12.6739" fill="#006848"/>
<path d="M98.6927 4.87891H100L94.574 17.8539C93.4633 20.4784 92.1855 21.4122 90.3965 21.4122C89.5401 21.4261 88.6921 21.241 87.9194 20.8716L88.3323 19.8198C88.9931 20.1508 89.7268 20.3097 90.4654 20.2818C91.7727 20.2818 92.6278 19.5249 93.5616 17.3329L87.5459 4.87891H88.9516L94.1514 16.0846L98.6927 4.87891Z" fill="#006848"/>
<mask id="mask0_1157_19944" style="mask-type:luminance" maskUnits="userSpaceOnUse" x="31" y="0" width="19" height="8">
<path d="M31.6279 0C31.6527 0.454365 31.7175 0.905664 31.8215 1.34867C31.8461 1.44391 31.8676 1.54222 31.8952 1.65589C31.8952 1.69275 31.9167 1.73269 31.929 1.77263C32.422 3.33447 33.3999 4.69856 34.7208 5.66696C36.0416 6.63536 37.6367 7.15767 39.2745 7.1581H49.4525C49.5174 6.80433 49.5513 6.44558 49.5539 6.08592C49.554 5.24437 49.3784 4.41207 49.0382 3.64234C48.6981 2.8726 48.2009 2.1824 47.5785 1.61595C46.4663 0.581723 45.0052 0.00472038 43.4864 0H31.6279Z" fill="white"/>
</mask>
<g mask="url(#mask0_1157_19944)">
<path d="M49.5539 0.00585938H31.6279V7.14553H49.5539V0.00585938Z" fill="url(#paint0_linear_1157_19944)"/>
</g>
<defs>
<linearGradient id="paint0_linear_1157_19944" x1="31.5871" y1="3.41425" x2="49.513" y2="3.41425" gradientUnits="userSpaceOnUse">
<stop stop-color="#02AFFF"/>
<stop offset="1" stop-color="#1F5BD7"/>
</linearGradient>
</defs>
</svg>
