<svg width="14" height="14" viewBox="0 0 14 14" fill="none" xmlns="http://www.w3.org/2000/svg">
<path d="M7.47778 8.02295C7.37109 8.34766 7.15308 8.51929 6.7959 8.51929C6.35059 8.51929 6.06299 8.21777 6.06299 7.7771V7.74927C6.06299 7.24365 6.33667 6.90503 6.84229 6.61743C7.47314 6.24634 7.6355 6.04688 7.6355 5.64795C7.6355 5.27222 7.33398 5.00781 6.9165 5.00781C6.54541 5.00781 6.29492 5.17944 6.15112 5.51807C6.0166 5.81958 5.7522 5.97266 5.42749 5.97266C4.99146 5.97266 4.71313 5.70361 4.71777 5.28613C4.71777 5.08667 4.76416 4.90576 4.86157 4.72949C5.17236 4.14502 5.94702 3.74609 7 3.74609C8.40552 3.74609 9.32861 4.479 9.32861 5.6062C9.32861 6.28809 9.00854 6.76123 8.32666 7.15552C7.69116 7.52197 7.57056 7.68896 7.47778 8.02295Z" fill="#767679"/>
<path d="M7.6958 9.81812C7.6958 10.2866 7.30151 10.6531 6.81909 10.6531C6.33203 10.6531 5.94238 10.2866 5.94238 9.81812C5.94238 9.35425 6.33203 8.98779 6.81909 8.98779C7.30151 8.98779 7.6958 9.35425 7.6958 9.81812Z" fill="#767679"/>
<path fill-rule="evenodd" clip-rule="evenodd" d="M7 14C10.866 14 14 10.866 14 7C14 3.13401 10.866 0 7 0C3.13401 0 0 3.13401 0 7C0 10.866 3.13401 14 7 14ZM12.5 7C12.5 10.0376 10.0376 12.5 7 12.5C3.96243 12.5 1.5 10.0376 1.5 7C1.5 3.96243 3.96243 1.5 7 1.5C10.0376 1.5 12.5 3.96243 12.5 7Z" fill="#767679"/>
</svg>
