<svg width="40" height="40" viewBox="0 0 40 40" fill="none" xmlns="http://www.w3.org/2000/svg">
<path d="M0 8C0 3.58172 3.58172 0 8 0H32C36.4183 0 40 3.58172 40 8V32C40 36.4183 36.4183 40 32 40H8C3.58172 40 0 36.4183 0 32V8Z" fill="#F2F2F6"/>
<path d="M21.5 17.25H14V15.75H21.5V17.25Z" fill="#050507"/>
<path d="M21.5 20.75H14V19.25H21.5V20.75Z" fill="#050507"/>
<path d="M21.5 24.25H14V22.75H21.5V24.25Z" fill="#050507"/>
<path fill-rule="evenodd" clip-rule="evenodd" d="M25.5 24V11H10V25.5C10 27.9853 12.0147 30 14.5 30H27.5V29.934C27.7435 29.9774 27.9941 30 28.25 30C30.5972 30 32.4999 28.0973 32.5 25.7501L32.5 24H25.5ZM25.0096 28.5H14.5C12.8431 28.5 11.5 27.1569 11.5 25.5V12.5H24L24.0001 25.75C24 26.7987 24.3799 27.7588 25.0096 28.5ZM31 25.5H25.5001L25.5001 25.75C25.5 27.2688 26.7312 28.5 28.25 28.5C29.7688 28.5 31 27.2688 31 25.7501L31 25.5Z" fill="#050507"/>
</svg>
