<svg width="58" height="58" viewBox="0 0 58 58" fill="none" xmlns="http://www.w3.org/2000/svg">
<rect width="58" height="58" fill="#1B1636"/>
<path d="M54.0475 49.891V54.7038H52.3894V51.3277H50.7929V54.7038H49.1348V49.8906H54.0475V49.891Z" fill="white"/>
<path fill-rule="evenodd" clip-rule="evenodd" d="M45.7318 54.8758C47.2161 54.8758 48.3183 53.9325 48.3183 52.5025C48.3183 51.1184 47.5051 50.2198 46.146 50.2198C45.5187 50.2198 45.0012 50.4486 44.6113 50.8435C44.7044 50.0273 45.3703 49.4315 46.1034 49.4315C46.2726 49.4315 47.5464 49.4287 47.5464 49.4287L48.2667 48C48.2667 48 46.6675 48.0377 45.9241 48.0377C44.2255 48.0684 43.0781 49.6687 43.0781 51.6124C43.0781 53.8767 44.1971 54.8758 45.7318 54.8758ZM45.7408 51.4852C46.2919 51.4852 46.674 51.8606 46.674 52.5023C46.674 53.08 46.3345 53.5559 45.7408 53.5572C45.1729 53.5572 44.7908 53.1162 44.7908 52.5122C44.7908 51.8703 45.1729 51.4852 45.7408 51.4852Z" fill="white"/>
<path d="M41.7269 53.0924C41.7269 53.0924 41.3353 53.3263 40.7505 53.3706C40.0782 53.3913 39.4791 52.9511 39.4791 52.1691C39.4791 51.4063 40.0077 50.9691 40.7336 50.9691C41.1787 50.9691 41.7674 51.2888 41.7674 51.2888C41.7674 51.2888 42.1983 50.4694 42.4214 50.0596C42.0128 49.7385 41.4685 49.5625 40.8354 49.5625C39.2376 49.5625 38 50.6423 38 52.1594C38 53.6959 39.1632 54.7506 40.8354 54.7187C41.3027 54.7007 41.9476 54.5306 42.3406 54.2689L41.7269 53.0924Z" fill="white"/>
<path d="M9 13.2969L14.6766 23.8136V30.2285L9.00664 40.7246L9 13.2969Z" fill="#5B57A2"/>
<path d="M30.7949 19.9912L36.1141 16.6121L47.0002 16.6016L30.7949 26.8911V19.9912Z" fill="#D90751"/>
<path d="M30.7653 13.2322L30.7954 27.156L25.1055 23.5323V2.71875L30.7657 13.2322H30.7653Z" fill="#FAB718"/>
<path d="M47.0006 16.5943L36.1142 16.6049L30.7653 13.2322L25.1055 2.71875L47.0002 16.5943H47.0006Z" fill="#ED6F26"/>
<path d="M30.7954 40.779V34.0236L25.1055 30.4688L25.1086 51.303L30.7954 40.779Z" fill="#63B22F"/>
<path d="M36.1018 37.4345L14.6762 23.8136L9 13.2969L46.9781 37.4207L36.1014 37.4345H36.1018Z" fill="#1487C9"/>
<path d="M25.1094 51.308L30.7954 40.784L36.1013 37.4356L46.9775 37.4219L25.1094 51.308Z" fill="#017F36"/>
<path d="M9.00781 40.7191L25.1537 30.4676L19.7255 27.0156L14.6778 30.2231L9.00781 40.7191Z" fill="#984995"/>
</svg>
