<svg width="136" height="23" viewBox="0 0 136 23" fill="none" xmlns="http://www.w3.org/2000/svg">
<path d="M48.1102 22.6869H29.7205C26.9785 22.6866 24.308 21.802 22.0966 20.1615C19.8852 18.521 18.2481 16.21 17.4228 13.564C17.4027 13.4949 17.3846 13.4289 17.3665 13.3608C17.3344 13.2521 17.3073 13.1373 17.2802 13.0265C17.2681 12.9746 17.255 12.9249 17.242 12.871C17.0683 12.121 16.9601 11.357 16.9187 10.5877L16.9116 10.4455H38.1191C39.6098 10.4416 41.0831 10.77 42.4343 11.4072C43.7855 12.0445 44.9815 12.975 45.9373 14.1328C46.8931 15.2904 47.5852 16.6469 47.9646 18.1059C48.344 19.5648 48.4012 21.0903 48.1323 22.5741L48.1102 22.6869ZM17.1928 10.7178C17.2381 11.4223 17.3413 12.1218 17.5011 12.809L17.5392 12.9645C17.5644 13.0722 17.5915 13.183 17.6226 13.2886C17.6406 13.3567 17.6587 13.4207 17.6768 13.4919C18.4804 16.0853 20.0829 18.3506 22.2498 19.9563C24.4168 21.5621 27.0346 22.4243 29.7205 22.4166H47.8883C48.1663 20.7671 48.0298 19.0734 47.4915 17.4912C46.9532 15.9091 46.0302 14.4894 44.8076 13.3628C42.9865 11.6611 40.5978 10.7176 38.1191 10.7208H17.1928V10.7178Z" fill="#CCD3DB"/>
<path d="M28.1329 2.67958C26.2852 0.955821 23.864 -0.000782925 21.3509 4.80794e-07H0.287109C0.327559 0.760361 0.434393 1.51557 0.606449 2.25686C0.647608 2.41942 0.683734 2.58407 0.730958 2.7446C0.747989 2.81067 0.766117 2.87569 0.785148 2.94071C1.60195 5.55957 3.22225 7.84686 5.41091 9.47053C7.59951 11.0942 10.2425 11.9698 12.9563 11.9701H31.2317C31.5425 10.2827 31.4209 8.54272 30.8784 6.9163C30.3359 5.28988 29.3907 3.83125 28.1329 2.67958ZM16.4035 7.96345H15.1734V5.62636H15.0841L14.3721 7.95843H13.4815L12.7696 5.62636H12.6802V7.95843H11.4391V4.01169H12.6782C12.8317 4.01228 12.981 4.063 13.1036 4.15643C13.2263 4.24978 13.3159 4.38081 13.359 4.52998L13.8761 6.34376H13.9645L14.4816 4.532C14.5247 4.3829 14.6143 4.25187 14.737 4.15845C14.8597 4.06503 15.0089 4.0143 15.1624 4.01378H16.4035V7.96345ZM18.1748 7.96345H16.9337V4.01169H18.1748V7.96345ZM22.583 7.96345H21.1651L20.4623 6.79592H19.9331V7.9645H18.6859V5.88651H22.6191C22.5384 6.07564 22.4196 6.24571 22.2702 6.38567C22.1208 6.52564 21.9441 6.63251 21.7516 6.69943L22.583 7.96345ZM22.6373 5.65175H20.3347C19.964 5.65182 19.6028 5.53228 19.3038 5.31045C19.0047 5.08861 18.7834 4.77603 18.6719 4.41815L18.6639 4.39177C18.6568 4.36938 18.6528 4.34705 18.6468 4.32466C18.6242 4.22439 18.6095 4.12248 18.6026 4.01985H21.2877C21.6313 4.0194 21.9623 4.15042 22.2145 4.38668C22.3855 4.54323 22.5142 4.7415 22.5882 4.96255C22.6622 5.18367 22.6791 5.42019 22.6373 5.64973V5.65175Z" fill="#CCD3DB"/>
<path d="M27.9127 18.5547L27.4106 17.444H25.0951L24.593 18.5547H24.2917L26.1193 14.5572H26.3984L28.2259 18.5547H27.9127ZM26.2588 14.8783L25.2225 17.1748H27.29L26.2588 14.8783Z" fill="#CCD3DB"/>
<path d="M30.493 18.4529C30.2888 18.568 30.0578 18.6252 29.8242 18.6185C29.6264 18.6196 29.4306 18.578 29.2498 18.4966C29.077 18.4182 28.9203 18.3075 28.7879 18.1704C28.6586 18.0323 28.5564 17.8705 28.4867 17.6938C28.4129 17.5099 28.3754 17.3131 28.3762 17.1146V17.1045C28.3755 16.9063 28.4131 16.7099 28.4867 16.5263C28.5567 16.3479 28.6588 16.1842 28.7879 16.0436C28.9187 15.9031 29.0757 15.7902 29.2498 15.7113C29.4306 15.6299 29.6264 15.5883 29.8242 15.5894C30.0583 15.5856 30.2898 15.6415 30.497 15.752C30.5872 15.8009 30.6726 15.8584 30.752 15.9237C30.8275 15.9872 30.8992 16.0551 30.9669 16.1269L30.7661 16.3301C30.6438 16.202 30.5066 16.0894 30.3574 15.9948C30.1929 15.8963 30.0042 15.8473 29.8131 15.8536C29.6558 15.8516 29.4999 15.8842 29.3562 15.9491C29.2187 16.011 29.0951 16.1006 28.9927 16.2123C28.8878 16.3259 28.805 16.4587 28.7487 16.6035C28.6887 16.7582 28.6583 16.923 28.6594 17.0892V17.1014C28.6573 17.2683 28.6877 17.4341 28.7487 17.5891C28.8065 17.7369 28.8921 17.8718 29.0008 17.9864C29.1061 18.0991 29.2324 18.1895 29.3723 18.2527C29.5173 18.3168 29.674 18.3493 29.8322 18.3482C30.0215 18.3512 30.2082 18.3035 30.3734 18.21C30.5297 18.1189 30.6704 18.003 30.7902 17.8666L30.9809 18.0363C30.8415 18.2008 30.6767 18.3415 30.493 18.4529Z" fill="#CCD3DB"/>
<path d="M33.3078 18.4525C33.1031 18.5671 32.8719 18.6242 32.638 18.6181C32.4399 18.6192 32.2438 18.5776 32.0627 18.4962C31.8 18.377 31.5771 18.1831 31.4213 17.9381C31.2655 17.6931 31.1835 17.4076 31.1851 17.1162V17.1061C31.184 16.9077 31.2211 16.7109 31.2945 16.5269C31.3648 16.349 31.4669 16.1857 31.5958 16.0453C31.7261 15.9047 31.8828 15.7918 32.0566 15.713C32.2374 15.6306 32.4338 15.5889 32.632 15.591C32.7555 15.5898 32.8787 15.6044 32.9985 15.6347C33.1032 15.6622 33.2043 15.7021 33.2998 15.7536C33.3905 15.8018 33.4759 15.8593 33.5548 15.9253C33.6303 15.9889 33.702 16.0567 33.7697 16.1286L33.5689 16.3318C33.4469 16.2034 33.3096 16.0907 33.1602 15.9964C32.9962 15.8978 32.8077 15.8484 32.617 15.8542C32.4597 15.8531 32.3041 15.8856 32.1601 15.9497C32.0226 16.0122 31.8984 16.1013 31.7946 16.2119C31.6904 16.3264 31.608 16.4594 31.5516 16.6041C31.491 16.7586 31.4606 16.9236 31.4622 17.0898V17.102C31.4601 17.2686 31.4904 17.434 31.5516 17.5888C31.6095 17.7367 31.6951 17.872 31.8036 17.9871C31.9091 18.0999 32.0357 18.1904 32.1762 18.2533C32.3208 18.3173 32.4771 18.3499 32.6351 18.3488C32.8245 18.3521 33.0114 18.304 33.1763 18.2096C33.333 18.1192 33.4741 18.0036 33.594 17.8671L33.7848 18.0369C33.6484 18.1999 33.4874 18.3402 33.3078 18.4525Z" fill="#CCD3DB"/>
<path d="M34.4182 17.6999C34.4812 17.8326 34.5668 17.953 34.6712 18.0555C34.7708 18.1522 34.8881 18.2282 35.0166 18.2791C35.1468 18.3293 35.285 18.3548 35.4244 18.3543C35.6224 18.3605 35.8187 18.3154 35.9946 18.2232C36.1481 18.1384 36.2873 18.0297 36.4074 17.9011L36.5982 18.0707C36.4528 18.2286 36.2833 18.3617 36.0961 18.465C35.8836 18.5752 35.6469 18.629 35.4083 18.6215C35.2248 18.6218 35.0431 18.5848 34.8741 18.5128C34.7052 18.443 34.5522 18.3394 34.4242 18.208C34.2934 18.0709 34.1911 17.9089 34.1229 17.7314C34.0449 17.5351 34.0063 17.3251 34.0095 17.1135V17.1024C34.0071 16.902 34.0411 16.7029 34.1099 16.515C34.1743 16.3399 34.2707 16.1785 34.3941 16.0395C34.5138 15.9038 34.6593 15.7939 34.8219 15.7163C34.9886 15.6361 35.1713 15.5954 35.356 15.5975C35.5376 15.5927 35.7179 15.6295 35.8835 15.7052C36.049 15.7808 36.1955 15.8934 36.312 16.0344C36.4304 16.1756 36.521 16.3384 36.5791 16.514C36.6404 16.707 36.6703 16.9088 36.6674 17.1115V17.1745C36.6689 17.1911 36.6689 17.2077 36.6674 17.2243H34.3007C34.3084 17.3891 34.3483 17.5507 34.4182 17.6999ZM36.3853 16.9703C36.3733 16.8264 36.3432 16.6848 36.2959 16.5486C36.2506 16.4172 36.1826 16.2951 36.0951 16.1879C36.01 16.0834 35.9039 15.9985 35.7838 15.9389C35.6536 15.8786 35.5122 15.8467 35.3689 15.8453C35.2257 15.8439 35.0838 15.873 34.9524 15.9308C34.8298 15.9857 34.7197 16.0656 34.629 16.1655C34.5337 16.272 34.4566 16.3939 34.4011 16.5263C34.3408 16.6673 34.3048 16.8179 34.2947 16.9713L36.3853 16.9703Z" fill="#CCD3DB"/>
<path d="M39.9158 17.7408C39.841 17.9189 39.7333 18.081 39.5985 18.2184C39.4709 18.3484 39.3195 18.4519 39.1527 18.5232C38.8662 18.6454 38.5466 18.6626 38.249 18.572C38.1349 18.5365 38.0263 18.4849 37.9266 18.4186C37.8324 18.3555 37.7458 18.2815 37.6685 18.198C37.5945 18.1169 37.5273 18.0295 37.4677 17.9369V19.4682H37.1926V15.6608H37.4677V16.308C37.5273 16.2125 37.5944 16.1221 37.6685 16.0377C37.7467 15.9523 37.8343 15.8763 37.9296 15.8111C38.0291 15.7449 38.1368 15.6922 38.2499 15.6546C38.3755 15.6138 38.5068 15.5939 38.6386 15.5957C38.8109 15.5959 38.9815 15.6305 39.1407 15.6973C39.307 15.7647 39.4586 15.8649 39.5864 15.992C39.7214 16.1273 39.8292 16.2878 39.9038 16.4645C39.9858 16.6644 40.0265 16.8792 40.0233 17.0955V17.1077C40.0309 17.324 39.9943 17.5395 39.9158 17.7408ZM39.7441 17.1108C39.7471 16.9346 39.7171 16.7594 39.6557 16.5946C39.6007 16.4477 39.5174 16.3134 39.4107 16.1993C39.256 16.0373 39.0563 15.9267 38.838 15.8822C38.6198 15.8378 38.3933 15.8615 38.1887 15.9504C38.0492 16.0093 37.9225 16.0956 37.8161 16.2044C37.7004 16.322 37.6092 16.4619 37.548 16.6159C37.4867 16.7698 37.4567 16.9347 37.4597 17.1006V17.1118C37.4585 17.2863 37.4927 17.4592 37.5601 17.6199C37.6214 17.7663 37.7105 17.8992 37.8222 18.0111C37.9297 18.1183 38.0565 18.2038 38.1957 18.2631C38.3332 18.3224 38.4811 18.3531 38.6305 18.3535C38.7816 18.3549 38.9314 18.3259 39.0713 18.2681C39.2058 18.2132 39.3273 18.1301 39.4278 18.0243C39.5323 17.9124 39.6136 17.7804 39.6668 17.6361C39.7271 17.4699 39.757 17.2939 39.7551 17.1169L39.7441 17.1108Z" fill="#CCD3DB"/>
<path d="M41.6914 18.5794C41.6116 18.5964 41.5301 18.605 41.4485 18.6048C41.342 18.6048 41.2362 18.5894 41.1342 18.5591C41.0383 18.5304 40.9501 18.48 40.8763 18.4117C40.8025 18.3434 40.7451 18.259 40.7084 18.1648C40.665 18.0519 40.6441 17.9313 40.6472 17.8102V15.9182H40.2324V15.6631H40.6472V14.7374H40.9193V15.662H41.9234V15.9131H40.9193V17.7746C40.9193 17.9779 40.9725 18.1262 41.079 18.2096C41.1989 18.2965 41.3442 18.3402 41.4917 18.3335C41.5591 18.334 41.6266 18.3269 41.6925 18.3122C41.7676 18.2943 41.841 18.2692 41.9114 18.237V18.4981C41.8409 18.5324 41.7672 18.5596 41.6914 18.5794Z" fill="#CCD3DB"/>
<path d="M86.0001 22.5682L78.6199 2.18664L105.257 0.652466L108.902 8.85864C108.483 9.43967 107.251 11.1697 106.083 12.8605V7.41587H102.78V14.7211C102.361 14.4186 101.885 14.2094 101.38 14.1075V13.7419C101.38 13.7419 101.38 13.7027 101.335 13.7419C101.29 13.781 100.98 14.0291 99.3995 14.1858C99.1279 14.2243 98.8518 14.2243 98.5802 14.1858C96.3609 13.8072 96.2512 12.1555 96.2512 12.1555C96.2512 12.1555 96.2512 12.0837 96.2512 12.0576V11.4047C96.2512 11.3721 96.2512 11.3329 96.2512 11.3003C96.2512 11.2676 96.3996 9.5376 98.5802 9.34174H99.393C100.006 9.43569 100.597 9.64375 101.135 9.95541H101.18V7.74229C101.179 7.72754 101.174 7.7133 101.166 7.70077C101.158 7.68824 101.148 7.67786 101.135 7.67048C100.585 7.41528 99.9846 7.29027 99.3801 7.30489C98.8672 7.26187 98.3511 7.26187 97.8383 7.30489C93.0321 7.69006 92.8514 11.2219 92.8514 11.3721V12.2273C92.8514 12.3317 92.8514 15.9289 97.8383 16.2488C98.3221 16.2488 99.2769 16.2488 99.3801 16.2488C99.5195 16.8982 99.7891 17.5116 100.174 18.0506L86.0001 22.5682ZM87.0195 16.0921V13.5591C87.0195 13.5525 87.0207 13.546 87.0233 13.54C87.0259 13.5339 87.0298 13.5286 87.0349 13.5242C87.0395 13.5199 87.0453 13.5167 87.0517 13.5148C87.0582 13.5129 87.0646 13.5125 87.0711 13.5134C87.0711 13.5134 92.2321 13.8855 92.2321 10.3928C92.2321 7.63784 89.0064 7.33753 87.9484 7.38976H83.7809C83.7674 7.38976 83.7538 7.39524 83.7441 7.40503C83.7345 7.41483 83.7293 7.42814 83.7293 7.44198V16.0921C83.728 16.0992 83.7286 16.1065 83.7306 16.1134C83.7332 16.1202 83.737 16.1264 83.7422 16.1315C83.7467 16.1366 83.7532 16.1404 83.7596 16.1426C83.7667 16.1448 83.7738 16.1455 83.7809 16.1443H87.0065C87.0136 16.1381 87.0188 16.1298 87.0214 16.1204C87.0233 16.111 87.0227 16.1011 87.0195 16.0921ZM109.534 15.0345C109.902 14.3494 110.323 13.6945 110.792 13.076L111.392 14.4274L109.534 15.0345ZM116.315 13.8724C116.161 13.7931 116.033 13.6708 115.947 13.5199C115.835 13.3216 115.781 13.0952 115.792 12.8671C115.783 12.7228 115.802 12.5781 115.848 12.4413C115.895 12.3045 115.968 12.1786 116.063 12.0707C116.166 11.9733 116.289 11.8982 116.422 11.8499C116.555 11.8017 116.696 11.7813 116.837 11.7899C117.064 11.7703 117.291 11.8277 117.482 11.9531C117.642 12.0762 117.76 12.2477 117.818 12.4427L117.25 12.5668C117.238 12.5172 117.216 12.4706 117.186 12.4297C117.154 12.381 117.109 12.3425 117.057 12.3187C117.003 12.2898 116.943 12.2742 116.882 12.273C116.815 12.271 116.75 12.2868 116.69 12.3189C116.632 12.351 116.582 12.3982 116.547 12.4558C116.481 12.5819 116.452 12.7247 116.463 12.8671C116.445 13.0331 116.481 13.2005 116.566 13.3436C116.602 13.3881 116.647 13.4232 116.699 13.4459C116.75 13.4687 116.807 13.4784 116.863 13.4742C116.913 13.4789 116.964 13.4719 117.01 13.4538C117.057 13.4357 117.1 13.407 117.134 13.3698C117.206 13.2838 117.255 13.1803 117.276 13.0695L117.837 13.2392C117.808 13.3831 117.749 13.5191 117.663 13.6374C117.584 13.7423 117.479 13.8254 117.36 13.879C117.214 13.9382 117.059 13.9672 116.902 13.9638C116.704 13.9852 116.503 13.9629 116.315 13.8986V13.8724ZM118.56 13.8724C118.4 13.7963 118.269 13.6705 118.186 13.5134C118.084 13.3281 118.035 13.118 118.044 12.9062C118.029 12.7601 118.048 12.6128 118.097 12.4746C118.146 12.3364 118.224 12.2108 118.326 12.1067C118.428 12.0026 118.552 11.9225 118.688 11.8723C118.824 11.8221 118.97 11.8029 119.115 11.816C119.26 11.8065 119.405 11.8264 119.542 11.8746C119.68 11.9228 119.806 11.9983 119.915 12.0967C120.011 12.2025 120.086 12.3271 120.133 12.4629C120.181 12.5987 120.201 12.7429 120.192 12.8867C120.2 13.0961 120.158 13.3043 120.069 13.4938C119.992 13.6464 119.87 13.7716 119.721 13.8529C119.543 13.9501 119.342 13.9975 119.14 13.99C118.941 14.0007 118.742 13.9626 118.56 13.879V13.8724ZM129.791 13.9508L129.695 13.6048H128.966L128.862 13.9508H128.217L128.992 11.8486H129.688L130.469 13.9508H129.791ZM130.675 13.9508V11.8486H131.249L132.03 13.0108V11.8486H132.63V13.9508H132.03L131.249 12.8279V13.9834L130.675 13.9508ZM120.527 13.9508V11.8486H121.373L121.695 13.1543L122.018 11.8486H122.863V13.9508H122.334V12.3513L121.927 13.9508H121.456L121.05 12.3513V13.9508H120.527ZM125.359 13.9508V11.8486H126.005V13.435H127.005V13.9508H125.359ZM127.295 13.9508V11.8486H127.94V13.9508H127.295ZM133.565 13.9508V12.3709H132.92V11.8486H134.856V12.3709H134.211V13.9508H133.565ZM123.243 13.9508V11.8486H124.308C124.497 11.8349 124.685 11.8957 124.83 12.0184C124.889 12.082 124.935 12.157 124.965 12.2388C124.995 12.3207 125.008 12.4078 125.005 12.495C125.009 12.5863 124.996 12.6777 124.963 12.7631C124.931 12.8487 124.881 12.9263 124.818 12.9911C124.652 13.1205 124.445 13.1833 124.237 13.1674H123.889V13.9508H123.243ZM119.411 13.3632C119.501 13.217 119.54 13.0446 119.521 12.8736C119.533 12.7206 119.493 12.5681 119.405 12.4427C119.364 12.397 119.315 12.361 119.259 12.3373C119.203 12.3136 119.143 12.3028 119.082 12.3056C119.024 12.3033 118.966 12.3144 118.912 12.3381C118.858 12.3619 118.811 12.3977 118.773 12.4427C118.683 12.5793 118.642 12.7428 118.657 12.9062C118.643 13.0675 118.684 13.2287 118.773 13.3632C118.812 13.4085 118.86 13.4442 118.915 13.4679C118.97 13.4916 119.029 13.5027 119.089 13.5004C119.152 13.5082 119.216 13.5004 119.275 13.4777C119.335 13.4549 119.388 13.4179 119.431 13.3698L119.411 13.3632ZM129.54 13.1478L129.308 12.3971L129.082 13.1478H129.54ZM124.308 12.6843C124.33 12.6623 124.349 12.636 124.36 12.6068C124.372 12.5776 124.379 12.5463 124.379 12.5145C124.38 12.4833 124.375 12.4521 124.364 12.4229C124.353 12.3937 124.336 12.3671 124.314 12.3448C124.244 12.2921 124.156 12.2687 124.069 12.2795H123.889V12.743H124.043C124.141 12.757 124.241 12.7387 124.327 12.6908L124.308 12.6843ZM87.8259 11.594H86.942V9.3091H87.7291C87.7291 9.3091 88.8774 9.36133 88.9677 10.1513C88.9839 10.3076 88.9839 10.4651 88.9677 10.6213C88.9129 10.8867 88.7729 11.1263 88.5703 11.3034C88.3671 11.4804 88.1123 11.5848 87.8452 11.6006L87.8259 11.594ZM129.811 10.1186C129.369 9.66412 129.103 9.06403 129.062 8.42777L131.037 8.30373C131.057 8.57035 131.146 8.82692 131.295 9.04797C131.404 9.18526 131.544 9.29422 131.704 9.3657C131.863 9.43725 132.037 9.46931 132.211 9.45932C132.456 9.47662 132.7 9.40226 132.895 9.25035C132.969 9.19094 133.029 9.11567 133.072 9.02995C133.114 8.94417 133.137 8.85003 133.14 8.75419C133.135 8.66384 133.112 8.57544 133.073 8.49449C133.033 8.4136 132.976 8.34192 132.907 8.28415C132.584 8.07844 132.221 7.94493 131.843 7.89244C131.144 7.77173 130.482 7.49036 129.908 7.06987C129.719 6.91057 129.569 6.71061 129.467 6.4846C129.366 6.25865 129.315 6.0124 129.321 5.76419C129.323 5.41146 129.426 5.06702 129.617 4.77188C129.842 4.44552 130.156 4.1917 130.52 4.0407C131.05 3.84152 131.614 3.75058 132.178 3.77303C132.858 3.73432 133.533 3.90504 134.114 4.26266C134.349 4.44585 134.543 4.67826 134.683 4.94416C134.822 5.21 134.903 5.50305 134.92 5.80336L132.985 5.91434C132.956 5.66365 132.84 5.43176 132.656 5.2615C132.457 5.11181 132.213 5.03784 131.966 5.05266C131.772 5.03895 131.58 5.09438 131.424 5.20928C131.366 5.25354 131.319 5.31079 131.286 5.37647C131.254 5.44214 131.237 5.51448 131.237 5.58792C131.238 5.64498 131.252 5.70093 131.278 5.75172C131.304 5.80251 131.34 5.8469 131.385 5.8817C131.597 6.01938 131.838 6.10647 132.088 6.13631C132.754 6.2595 133.404 6.46103 134.024 6.73692C134.373 6.89889 134.669 7.15963 134.875 7.48768C135.056 7.79086 135.15 8.13896 135.146 8.49305C135.15 8.92249 135.026 9.34318 134.791 9.70081C134.548 10.0758 134.2 10.369 133.791 10.543C133.276 10.7475 132.725 10.843 132.172 10.8237C131.062 10.7976 130.269 10.5756 129.83 10.1252L129.811 10.1186ZM123.185 10.1186C122.738 9.66483 122.472 9.06076 122.437 8.42124L124.411 8.2972C124.434 8.56317 124.523 8.81895 124.669 9.04144C124.779 9.17795 124.919 9.28625 125.079 9.35774C125.238 9.42916 125.411 9.46174 125.585 9.45273C125.83 9.47009 126.074 9.39573 126.269 9.24382C126.343 9.18441 126.404 9.10914 126.446 9.02342C126.488 8.93764 126.512 8.8435 126.514 8.74766C126.51 8.65731 126.486 8.56885 126.446 8.48796C126.407 8.40707 126.35 8.33546 126.282 8.27768C125.958 8.07321 125.596 7.93971 125.218 7.88591C124.518 7.76658 123.856 7.48501 123.282 7.06334C123.094 6.90405 122.943 6.70408 122.842 6.47807C122.74 6.25212 122.69 6.00587 122.695 5.75766C122.694 5.40448 122.798 5.05906 122.992 4.76535C123.217 4.43592 123.533 4.18151 123.901 4.03423C124.429 3.83486 124.99 3.74385 125.553 3.76651C126.232 3.72694 126.907 3.89773 127.488 4.25613C127.724 4.43932 127.918 4.67173 128.057 4.93757C128.197 5.20347 128.277 5.49653 128.295 5.79683L126.359 5.90781C126.353 5.78149 126.321 5.65771 126.266 5.54438C126.21 5.43098 126.132 5.33044 126.037 5.24897C125.941 5.1675 125.83 5.10685 125.71 5.07081C125.59 5.03477 125.464 5.02413 125.34 5.03954C125.147 5.02165 124.953 5.07753 124.798 5.19622C124.741 5.2395 124.694 5.29558 124.661 5.36015C124.629 5.42465 124.612 5.49594 124.611 5.56834C124.612 5.6254 124.627 5.68134 124.652 5.73214C124.678 5.78293 124.715 5.82738 124.759 5.86212C124.97 5.99889 125.208 6.08591 125.456 6.11672C126.122 6.23959 126.772 6.44118 127.392 6.71733C127.74 6.88113 128.035 7.14142 128.243 7.4681C128.424 7.7733 128.519 8.12381 128.514 8.48006C128.517 8.90741 128.394 9.32595 128.159 9.68122C127.916 10.0562 127.568 10.3493 127.159 10.5234C126.644 10.7279 126.093 10.8234 125.54 10.8041C124.437 10.7976 123.643 10.5756 123.205 10.1317L123.185 10.1186ZM115.702 10.6539V3.87102H118.786C119.287 3.85333 119.787 3.93768 120.256 4.11904C120.621 4.27866 120.94 4.52771 121.185 4.84369C121.437 5.16306 121.619 5.53224 121.721 5.9274C121.833 6.35351 121.889 6.79235 121.889 7.23308C121.913 7.80784 121.827 8.38181 121.637 8.92393C121.487 9.30708 121.255 9.65243 120.96 9.93583C120.695 10.1883 120.374 10.372 120.024 10.4712C119.621 10.5863 119.204 10.6477 118.786 10.6539H115.702ZM119.211 8.96969C119.409 8.85505 119.561 8.67526 119.644 8.46041C119.766 8.07948 119.819 7.67896 119.798 7.27877C119.852 6.75912 119.729 6.23639 119.45 5.79683C119.295 5.65197 119.111 5.54164 118.911 5.47302C118.711 5.40448 118.499 5.37908 118.289 5.3986H117.779V9.11325H118.282C118.604 9.14224 118.928 9.09758 119.231 8.98268L119.211 8.96969ZM104.412 6.57371C104.791 6.55706 105.157 6.42826 105.464 6.20316C105.771 5.97812 106.006 5.66679 106.139 5.30779C106.273 4.94873 106.3 4.55788 106.216 4.18373C106.131 3.80959 105.941 3.46861 105.668 3.2031C105.393 2.93766 105.049 2.75937 104.676 2.69043C104.303 2.62149 103.918 2.66491 103.57 2.81532C103.221 2.96573 102.923 3.21649 102.714 3.53644C102.505 3.8564 102.393 4.23152 102.393 4.61519C102.395 4.88116 102.45 5.14399 102.555 5.38809C102.659 5.63219 102.811 5.85265 103.001 6.03642C103.191 6.2202 103.415 6.36356 103.661 6.45809C103.907 6.55262 104.169 6.59636 104.431 6.58677L104.412 6.57371Z" fill="#CCD3DB"/>
<path d="M103.077 19.9573C102.063 18.9414 101.163 17.8162 100.393 16.6018C100.361 16.5291 100.339 16.4522 100.328 16.3732C100.301 16.211 100.315 16.0446 100.366 15.8886C100.418 15.7327 100.507 15.592 100.625 15.4788C100.879 15.2632 101.192 15.1291 101.522 15.0937C101.622 15.0888 101.723 15.1044 101.819 15.1394C102.773 15.7528 103.631 16.5101 104.36 17.3851C104.36 17.3851 104.496 17.4178 104.522 17.3851C106.554 14.2646 110.405 6.40439 114.115 6.50884C114.728 6.50884 114.728 6.7047 114.728 6.7047C114.734 6.73042 114.734 6.75738 114.728 6.78304C114.706 6.81378 114.681 6.84036 114.65 6.86138C110.483 9.86443 106.534 19.6244 105.36 20.2446C105.107 20.3661 104.827 20.42 104.547 20.4012C104.282 20.4336 104.014 20.4078 103.76 20.3256C103.506 20.2433 103.273 20.1066 103.077 19.9247V19.9573Z" fill="#CCD3DB"/>
</svg>
