<svg width="216" height="96" viewBox="0 0 216 96" fill="none" xmlns="http://www.w3.org/2000/svg">
<rect x="0.5" y="0.5" width="215" height="95" rx="3.5" fill="white" stroke="#3356D7"/>
<path d="M35.4535 17.4955L34.1735 16.0555L35.4535 14.6395H34.6615L33.3815 16.0555L34.6615 17.4955H35.4535ZM34.0935 17.4955L32.8135 16.0555L34.0935 14.6395H33.3015L32.0215 16.0555L33.3015 17.4955H34.0935Z" fill="#3356D7"/>
<path d="M37.1995 17.9995V13.4875H39.9195V12.6635H36.2635V17.9995H37.1995Z" fill="#3356D7"/>
<path d="M43.252 17.9995V15.4395C43.252 14.3995 42.5 14.0395 41.644 14.0395C41.028 14.0395 40.468 14.2395 40.02 14.6635L40.364 15.2475C40.7 14.9195 41.076 14.7595 41.508 14.7595C42.044 14.7595 42.412 15.0315 42.412 15.4795V16.0555C42.132 15.7275 41.684 15.5595 41.164 15.5595C40.532 15.5595 39.82 15.9275 39.82 16.8155C39.82 17.6715 40.532 18.0955 41.164 18.0955C41.676 18.0955 42.124 17.9115 42.412 17.5835V17.9995H43.252ZM41.492 17.5195C41.02 17.5195 40.668 17.2475 40.668 16.8315C40.668 16.4075 41.02 16.1355 41.492 16.1355C41.86 16.1355 42.22 16.2715 42.412 16.5355V17.1195C42.22 17.3835 41.86 17.5195 41.492 17.5195Z" fill="#3356D7"/>
<path d="M45.7331 18.0955C46.8691 18.0955 47.5571 17.6155 47.5571 16.9515C47.5571 16.3435 46.9171 16.0555 46.4531 16.0235C46.9411 15.9515 47.4771 15.6235 47.4771 15.0955C47.4771 14.4395 46.7731 14.0395 45.6371 14.0475C44.9331 14.0475 44.3891 14.3035 44.0211 14.6795L44.4371 15.1915C44.7491 14.8795 45.1571 14.7275 45.6771 14.7275C46.2131 14.7275 46.6051 14.9275 46.6051 15.2075C46.6051 15.5435 46.2371 15.7115 45.6611 15.7115H44.8371V16.3835H45.6611C46.2531 16.3835 46.6771 16.5195 46.6771 16.8875C46.6771 17.1995 46.3251 17.4075 45.7331 17.4075C45.2211 17.4075 44.7091 17.2555 44.3491 16.9355L43.9571 17.4715C44.3411 17.8475 44.9411 18.0955 45.7331 18.0955Z" fill="#3356D7"/>
<path d="M51.8596 17.9995V14.1355H48.4036V17.9995H49.2436V14.8715H51.0196V17.9995H51.8596Z" fill="#3356D7"/>
<path d="M55.0305 18.0955C56.0305 18.0955 56.7425 17.3355 56.7425 16.0635C56.7425 14.7915 56.0305 14.0395 55.0305 14.0395C54.5265 14.0395 54.0785 14.2795 53.7905 14.6635V14.1355H52.9505V19.4715H53.7905V17.4635C54.1025 17.8795 54.5425 18.0955 55.0305 18.0955ZM54.7825 17.3515C54.3905 17.3515 53.9745 17.1115 53.7905 16.8315V15.3035C53.9745 15.0155 54.3905 14.7835 54.7825 14.7835C55.4465 14.7835 55.8705 15.3195 55.8705 16.0635C55.8705 16.8155 55.4465 17.3515 54.7825 17.3515Z" fill="#3356D7"/>
<path d="M59.3195 18.0955C60.5595 18.0955 61.3115 17.1755 61.3115 16.0635C61.3115 14.9595 60.5595 14.0395 59.3195 14.0395C58.0955 14.0395 57.3355 14.9595 57.3355 16.0635C57.3355 17.1755 58.0955 18.0955 59.3195 18.0955ZM59.3195 17.3515C58.6075 17.3515 58.2075 16.7515 58.2075 16.0635C58.2075 15.3835 58.6075 14.7835 59.3195 14.7835C60.0395 14.7835 60.4395 15.3835 60.4395 16.0635C60.4395 16.7515 60.0395 17.3515 59.3195 17.3515Z" fill="#3356D7"/>
<path d="M66.4894 17.9995V14.1355H65.3854L64.3294 16.6315L63.2574 14.1355H62.1614V17.9995H63.0014V15.3115L64.1614 17.9995H64.4974L65.6494 15.3115V17.9995H66.4894Z" fill="#3356D7"/>
<path d="M69.3195 17.3515C68.6075 17.3515 68.2075 16.7515 68.2075 16.0475C68.2075 15.3835 68.6075 14.7835 69.3195 14.7835C70.0395 14.7835 70.4395 15.3835 70.4395 16.0475C70.4395 16.7515 70.0395 17.3515 69.3195 17.3515ZM69.3195 18.0955C70.5755 18.0955 71.3035 17.1435 71.3035 16.0555C71.3035 14.9835 70.5755 14.0395 69.4795 14.0395C68.9195 14.0395 68.3995 14.2955 68.0875 14.7195C68.1915 14.2475 68.5915 13.7915 69.5195 13.6875C70.1595 13.6155 71.1675 13.4155 71.1675 12.6635H70.3435C70.3435 12.8075 70.1115 12.9035 69.2875 13.0235C67.9915 13.1835 67.3435 14.0075 67.3435 15.8875C67.3435 17.1435 68.0715 18.0955 69.3195 18.0955Z" fill="#3356D7"/>
<path d="M75.3927 17.9995V15.4395C75.3927 14.3995 74.6407 14.0395 73.7847 14.0395C73.1687 14.0395 72.6087 14.2395 72.1607 14.6635L72.5047 15.2475C72.8407 14.9195 73.2167 14.7595 73.6487 14.7595C74.1847 14.7595 74.5527 15.0315 74.5527 15.4795V16.0555C74.2727 15.7275 73.8247 15.5595 73.3047 15.5595C72.6727 15.5595 71.9607 15.9275 71.9607 16.8155C71.9607 17.6715 72.6727 18.0955 73.3047 18.0955C73.8167 18.0955 74.2647 17.9115 74.5527 17.5835V17.9995H75.3927ZM73.6327 17.5195C73.1607 17.5195 72.8087 17.2475 72.8087 16.8315C72.8087 16.4075 73.1607 16.1355 73.6327 16.1355C74.0007 16.1355 74.3607 16.2715 74.5527 16.5355V17.1195C74.3607 17.3835 74.0007 17.5195 73.6327 17.5195Z" fill="#3356D7"/>
<path d="M77.3217 17.9995V16.3915H79.0977V17.9995H79.9377V14.1355H79.0977V15.6555H77.3217V14.1355H76.4817V17.9995H77.3217Z" fill="#3356D7"/>
<path d="M84.6446 17.9995L83.0046 15.8875L84.6126 14.1355H83.5726L81.8686 15.9995V14.1355H81.0286V17.9995H81.8686V16.9595L82.4046 16.4075L83.5886 17.9995H84.6446Z" fill="#3356D7"/>
<path d="M87.0075 16.0555L85.7275 14.6395H84.9355L86.2155 16.0555L84.9355 17.4955H85.7275L87.0075 16.0555ZM88.3675 16.0555L87.0875 14.6395H86.2955L87.5755 16.0555L86.2955 17.4955H87.0875L88.3675 16.0555Z" fill="#3356D7"/>
<path d="M92.7283 19.1915C92.2003 18.2075 91.9123 17.3115 91.9123 16.0555C91.9123 14.7995 92.2003 13.9035 92.7283 12.9115L92.2083 12.5195C91.4563 13.4475 91.0003 14.7675 91.0003 16.0555C91.0003 17.3435 91.4563 18.6715 92.2083 19.5915L92.7283 19.1915Z" fill="#3356D7"/>
<path d="M98.2432 17.9995L96.1472 12.6635H94.9792L92.8832 17.9995H93.9472L94.3392 16.9755H96.7872L97.1792 17.9995H98.2432ZM96.5232 16.1515H94.6032L95.5632 13.6075L96.5232 16.1515Z" fill="#3356D7"/>
<path d="M102.418 17.9995L100.778 15.8875L102.386 14.1355H101.346L99.642 15.9995V14.1355H98.802V17.9995H99.642V16.9595L100.178 16.4075L101.362 17.9995H102.418Z" fill="#3356D7"/>
<path d="M106.053 18.9835H106.893V17.2635H106.469V14.1355H105.629V17.2635H103.853V14.1355H103.013V17.9995H106.053V18.9835Z" fill="#3356D7"/>
<path d="M108.391 17.9995L110.199 15.3275V17.9995H111.039V14.1355H110.199L108.423 16.7355V14.1355H107.583V17.9995H108.391Z" fill="#3356D7"/>
<path d="M113.874 18.0955C115.114 18.0955 115.866 17.1755 115.866 16.0635C115.866 14.9595 115.114 14.0395 113.874 14.0395C112.65 14.0395 111.89 14.9595 111.89 16.0635C111.89 17.1755 112.65 18.0955 113.874 18.0955ZM113.874 17.3515C113.162 17.3515 112.762 16.7515 112.762 16.0635C112.762 15.3835 113.162 14.7835 113.874 14.7835C114.594 14.7835 114.994 15.3835 114.994 16.0635C114.994 16.7515 114.594 17.3515 113.874 17.3515Z" fill="#3356D7"/>
<path d="M117.556 17.9995V16.3915H119.332V17.9995H120.172V14.1355H119.332V15.6555H117.556V14.1355H116.716V17.9995H117.556Z" fill="#3356D7"/>
<path d="M123.047 18.0955C123.663 18.0955 124.231 17.9035 124.615 17.5355L124.231 16.9835C123.959 17.2555 123.511 17.4075 123.135 17.4075C122.407 17.4075 121.967 16.9275 121.903 16.3435H124.887V16.1435C124.887 14.9275 124.143 14.0395 122.983 14.0395C121.839 14.0395 121.023 14.9435 121.023 16.0635C121.023 17.2875 121.887 18.0955 123.047 18.0955ZM124.071 15.7515H121.895C121.935 15.2795 122.263 14.7275 122.983 14.7275C123.743 14.7275 124.055 15.2955 124.071 15.7515Z" fill="#3356D7"/>
<path d="M127.796 18.0955C128.796 18.0955 129.508 17.3355 129.508 16.0635C129.508 14.7915 128.796 14.0395 127.796 14.0395C127.292 14.0395 126.844 14.2795 126.556 14.6635V14.1355H125.716V19.4715H126.556V17.4635C126.868 17.8795 127.308 18.0955 127.796 18.0955ZM127.548 17.3515C127.156 17.3515 126.74 17.1115 126.556 16.8315V15.3035C126.74 15.0155 127.156 14.7835 127.548 14.7835C128.212 14.7835 128.636 15.3195 128.636 16.0635C128.636 16.8155 128.212 17.3515 127.548 17.3515Z" fill="#3356D7"/>
<path d="M131.181 17.9995V16.3915H132.957V17.9995H133.797V14.1355H132.957V15.6555H131.181V14.1355H130.341V17.9995H131.181Z" fill="#3356D7"/>
<path d="M136.632 18.0955C137.872 18.0955 138.624 17.1755 138.624 16.0635C138.624 14.9595 137.872 14.0395 136.632 14.0395C135.408 14.0395 134.648 14.9595 134.648 16.0635C134.648 17.1755 135.408 18.0955 136.632 18.0955ZM136.632 17.3515C135.92 17.3515 135.52 16.7515 135.52 16.0635C135.52 15.3835 135.92 14.7835 136.632 14.7835C137.352 14.7835 137.752 15.3835 137.752 16.0635C137.752 16.7515 137.352 17.3515 136.632 17.3515Z" fill="#3356D7"/>
<path d="M141.258 18.0955C141.874 18.0955 142.442 17.9035 142.826 17.5355L142.442 16.9835C142.17 17.2555 141.722 17.4075 141.346 17.4075C140.618 17.4075 140.178 16.9275 140.114 16.3435H143.098V16.1435C143.098 14.9275 142.354 14.0395 141.194 14.0395C140.05 14.0395 139.234 14.9435 139.234 16.0635C139.234 17.2875 140.098 18.0955 141.258 18.0955ZM142.282 15.7515H140.106C140.146 15.2795 140.474 14.7275 141.194 14.7275C141.954 14.7275 142.266 15.2955 142.282 15.7515Z" fill="#3356D7"/>
<path d="M147.726 18.0955C148.966 18.0955 149.718 17.1755 149.718 16.0635C149.718 14.9595 148.966 14.0395 147.726 14.0395C146.502 14.0395 145.742 14.9595 145.742 16.0635C145.742 17.1755 146.502 18.0955 147.726 18.0955ZM147.726 17.3515C147.014 17.3515 146.614 16.7515 146.614 16.0635C146.614 15.3835 147.014 14.7835 147.726 14.7835C148.446 14.7835 148.846 15.3835 148.846 16.0635C148.846 16.7515 148.446 17.3515 147.726 17.3515Z" fill="#3356D7"/>
<path d="M152.312 17.3515C151.6 17.3515 151.2 16.7515 151.2 16.0475C151.2 15.3835 151.6 14.7835 152.312 14.7835C153.032 14.7835 153.432 15.3835 153.432 16.0475C153.432 16.7515 153.032 17.3515 152.312 17.3515ZM152.312 18.0955C153.568 18.0955 154.296 17.1435 154.296 16.0555C154.296 14.9835 153.568 14.0395 152.472 14.0395C151.912 14.0395 151.392 14.2955 151.08 14.7195C151.184 14.2475 151.584 13.7915 152.512 13.6875C153.152 13.6155 154.16 13.4155 154.16 12.6635H153.336C153.336 12.8075 153.104 12.9035 152.28 13.0235C150.984 13.1835 150.336 14.0075 150.336 15.8875C150.336 17.1435 151.064 18.0955 152.312 18.0955Z" fill="#3356D7"/>
<path d="M159.585 14.1355V17.2635H158.225V14.1355H157.385V17.2635H156.025V14.1355H155.185V17.9995H160.089V18.9835H160.929V17.2635H160.425V14.1355H159.585Z" fill="#3356D7"/>
<path d="M163.399 18.0955C164.015 18.0955 164.583 17.9035 164.967 17.5355L164.583 16.9835C164.311 17.2555 163.863 17.4075 163.487 17.4075C162.759 17.4075 162.319 16.9275 162.255 16.3435H165.239V16.1435C165.239 14.9275 164.495 14.0395 163.335 14.0395C162.191 14.0395 161.375 14.9435 161.375 16.0635C161.375 17.2875 162.239 18.0955 163.399 18.0955ZM164.423 15.7515H162.247C162.287 15.2795 162.615 14.7275 163.335 14.7275C164.095 14.7275 164.407 15.2955 164.423 15.7515Z" fill="#3356D7"/>
<path d="M167.828 18.0955C168.58 18.0955 169.036 17.7755 169.308 17.4075L168.756 16.8955C168.54 17.1915 168.244 17.3515 167.868 17.3515C167.164 17.3515 166.7 16.8155 166.7 16.0635C166.7 15.3115 167.164 14.7835 167.868 14.7835C168.244 14.7835 168.54 14.9355 168.756 15.2395L169.308 14.7275C169.036 14.3595 168.58 14.0395 167.828 14.0395C166.652 14.0395 165.828 14.8955 165.828 16.0635C165.828 17.2395 166.652 18.0955 167.828 18.0955Z" fill="#3356D7"/>
<path d="M171.588 17.9995V14.8715H172.7V14.1355H169.644V14.8715H170.748V17.9995H171.588Z" fill="#3356D7"/>
<path d="M175.756 17.9995C176.508 17.9995 176.924 17.5515 176.924 16.9515C176.924 16.4955 176.612 16.1035 176.196 16.0075C176.548 15.9035 176.844 15.5915 176.844 15.1275C176.844 14.5755 176.436 14.1355 175.7 14.1355H173.388V17.9995H175.756ZM175.58 17.2635H174.228V16.3915H175.58C175.892 16.3915 176.06 16.5995 176.06 16.8315C176.06 17.1035 175.876 17.2635 175.58 17.2635ZM175.556 15.6555H174.228V14.8715H175.556C175.828 14.8715 175.988 15.0315 175.988 15.2715C175.988 15.4875 175.828 15.6555 175.556 15.6555Z" fill="#3356D7"/>
<path d="M179.71 18.0955C180.95 18.0955 181.702 17.1755 181.702 16.0635C181.702 14.9595 180.95 14.0395 179.71 14.0395C178.486 14.0395 177.726 14.9595 177.726 16.0635C177.726 17.1755 178.486 18.0955 179.71 18.0955ZM179.71 17.3515C178.998 17.3515 178.598 16.7515 178.598 16.0635C178.598 15.3835 178.998 14.7835 179.71 14.7835C180.43 14.7835 180.83 15.3835 180.83 16.0635C180.83 16.7515 180.43 17.3515 179.71 17.3515Z" fill="#3356D7"/>
<path d="M182.664 19.5915C183.424 18.6715 183.88 17.3435 183.88 16.0555C183.88 14.7675 183.424 13.4475 182.664 12.5195L182.144 12.9115C182.68 13.9035 182.968 14.7995 182.968 16.0555C182.968 17.3115 182.68 18.2075 182.144 19.1915L182.664 19.5915Z" fill="#3356D7"/>
<path d="M45.3715 54.9997L48.1555 51.1917V54.9997H49.0915V49.6637H48.1315L45.4035 53.3677V49.6637H44.4675V54.9997H45.3715Z" fill="#3356D7"/>
<path d="M54.8733 54.9997V49.6637H53.9373V51.8477H51.1613V49.6637H50.2253V54.9997H51.1613V52.6717H53.9373V54.9997H54.8733Z" fill="#3356D7"/>
<path d="M60.6546 54.9997V49.6637H59.7186V51.8477H56.9426V49.6637H56.0066V54.9997H56.9426V52.6717H59.7186V54.9997H60.6546Z" fill="#3356D7"/>
<path d="M65.2665 54.9997L67.3385 50.3117V49.6637H63.4905V50.4877H66.2585L64.2425 54.9997H65.2665Z" fill="#3356D7"/>
<path d="M69.5243 54.9997L71.5963 50.3117V49.6637H67.7483V50.4877H70.5163L68.5003 54.9997H69.5243Z" fill="#3356D7"/>
<path d="M75.4942 54.9997V53.7917H76.2062V52.9677H75.4942V49.6637H74.2062L72.0142 53.0397V53.7917H74.5582V54.9997H75.4942ZM74.5582 52.9677H72.9342L74.5582 50.5037V52.9677Z" fill="#3356D7"/>
<path d="M80.1348 54.9997V53.7917H80.8468V52.9677H80.1348V49.6637H78.8468L76.6548 53.0397V53.7917H79.1988V54.9997H80.1348ZM79.1988 52.9677H77.5748L79.1988 50.5037V52.9677Z" fill="#3356D7"/>
<path d="M83.5354 55.0957C85.0314 55.0957 85.6714 53.6797 85.6714 52.3357C85.6714 50.9917 85.0314 49.5837 83.5354 49.5837C82.0394 49.5837 81.3994 50.9917 81.3994 52.3357C81.3994 53.6797 82.0394 55.0957 83.5354 55.0957ZM83.5354 54.2637C82.6634 54.2637 82.3514 53.3517 82.3514 52.3357C82.3514 51.3197 82.6634 50.4157 83.5354 50.4157C84.4074 50.4157 84.7194 51.3197 84.7194 52.3357C84.7194 53.3517 84.4074 54.2637 83.5354 54.2637Z" fill="#3356D7"/>
<path d="M88.4651 55.0957C89.9611 55.0957 90.6011 53.6797 90.6011 52.3357C90.6011 50.9917 89.9611 49.5837 88.4651 49.5837C86.9691 49.5837 86.3291 50.9917 86.3291 52.3357C86.3291 53.6797 86.9691 55.0957 88.4651 55.0957ZM88.4651 54.2637C87.5931 54.2637 87.2811 53.3517 87.2811 52.3357C87.2811 51.3197 87.5931 50.4157 88.4651 50.4157C89.3371 50.4157 89.6491 51.3197 89.6491 52.3357C89.6491 53.3517 89.3371 54.2637 88.4651 54.2637Z" fill="#3356D7"/>
<path d="M93.4028 54.9997V49.6637H92.5868L91.0508 51.2157L91.5948 51.7837L92.4668 50.8797V54.9997H93.4028Z" fill="#3356D7"/>
<path d="M97.6738 54.9997V53.7917H98.3858V52.9677H97.6738V49.6637H96.3858L94.1938 53.0397V53.7917H96.7378V54.9997H97.6738ZM96.7378 52.9677H95.1138L96.7378 50.5037V52.9677Z" fill="#3356D7"/>
<path d="M100.73 55.0877C102.274 55.0877 103.082 53.8717 103.082 52.3357C103.082 50.8477 102.45 49.5757 100.882 49.5757C99.6905 49.5757 98.9145 50.3837 98.9145 51.3677C98.9145 52.5037 99.7465 53.0957 100.706 53.0957C101.33 53.0957 101.89 52.7037 102.138 52.3437C102.138 52.3997 102.138 52.4477 102.138 52.5037C102.138 53.3757 101.698 54.2557 100.73 54.2557C100.226 54.2557 99.9145 54.0797 99.6345 53.7917L99.2025 54.4957C99.5625 54.8557 100.074 55.0877 100.73 55.0877ZM100.954 52.2877C100.378 52.2877 99.8665 51.9917 99.8665 51.3357C99.8665 50.9117 100.234 50.4077 100.93 50.4077C101.754 50.4077 102.074 51.0877 102.122 51.6637C101.858 52.0477 101.41 52.2877 100.954 52.2877Z" fill="#3356D7"/>
<path d="M105.407 54.9997L107.479 50.3117V49.6637H103.631V50.4877H106.399L104.383 54.9997H105.407Z" fill="#3356D7"/>
<path d="M110.296 49.6637V54.9997H112.64C113.76 54.9997 114.384 54.2317 114.384 53.3277C114.384 52.4237 113.752 51.6557 112.64 51.6557H111.232V50.4877H113.952V49.6637H110.296ZM112.512 52.4797C113.04 52.4797 113.424 52.8157 113.424 53.3277C113.424 53.8397 113.04 54.1757 112.512 54.1757H111.232V52.4797H112.512Z" fill="#3356D7"/>
<path d="M116.067 54.9997L118.851 51.1917V54.9997H119.787V49.6637H118.827L116.099 53.3677V49.6637H115.163V54.9997H116.067Z" fill="#3356D7"/>
<path d="M125.265 54.9997L122.937 52.1837L125.105 49.6637H123.945L121.857 52.2077V49.6637H120.921V54.9997H121.857V53.2957L122.321 52.7517L124.113 54.9997H125.265Z" fill="#3356D7"/>
<path d="M129.84 55.0957C131.336 55.0957 131.976 53.6797 131.976 52.3357C131.976 50.9917 131.336 49.5837 129.84 49.5837C128.344 49.5837 127.704 50.9917 127.704 52.3357C127.704 53.6797 128.344 55.0957 129.84 55.0957ZM129.84 54.2637C128.968 54.2637 128.656 53.3517 128.656 52.3357C128.656 51.3197 128.968 50.4157 129.84 50.4157C130.712 50.4157 131.024 51.3197 131.024 52.3357C131.024 53.3517 130.712 54.2637 129.84 54.2637Z" fill="#3356D7"/>
<path d="M136.01 54.9997V53.7917H136.722V52.9677H136.01V49.6637H134.722L132.53 53.0397V53.7917H135.074V54.9997H136.01ZM135.074 52.9677H133.45L135.074 50.5037V52.9677Z" fill="#3356D7"/>
<path d="M140.65 54.9997V53.7917H141.362V52.9677H140.65V49.6637H139.362L137.17 53.0397V53.7917H139.714V54.9997H140.65ZM139.714 52.9677H138.09L139.714 50.5037V52.9677Z" fill="#3356D7"/>
<path d="M144.019 55.0957C145.211 55.0957 146.051 54.3997 146.051 53.2877C146.051 52.1997 145.243 51.5677 144.347 51.5677C143.835 51.5677 143.395 51.7757 143.139 52.0317V50.4877H145.699V49.6637H142.203V52.6477L142.867 52.8397C143.203 52.5197 143.579 52.3757 144.035 52.3757C144.691 52.3757 145.107 52.7517 145.107 53.3277C145.107 53.8477 144.683 54.2637 144.011 54.2637C143.411 54.2637 142.931 54.0397 142.571 53.6317L142.035 54.2717C142.467 54.7837 143.099 55.0957 144.019 55.0957Z" fill="#3356D7"/>
<path d="M150.648 54.9997V54.1757H148.28C149.712 53.0957 150.616 52.2157 150.616 51.2317C150.616 50.1677 149.712 49.5837 148.68 49.5837C147.936 49.5837 147.184 49.8717 146.712 50.4397L147.256 51.0557C147.592 50.6717 148.072 50.4157 148.696 50.4157C149.184 50.4157 149.664 50.6717 149.664 51.2317C149.664 51.9997 148.856 52.6957 146.784 54.2637V54.9997H150.648Z" fill="#3356D7"/>
<path d="M153.574 55.0957C154.766 55.0957 155.606 54.3997 155.606 53.2877C155.606 52.1997 154.798 51.5677 153.902 51.5677C153.39 51.5677 152.95 51.7757 152.694 52.0317V50.4877H155.254V49.6637H151.758V52.6477L152.422 52.8397C152.758 52.5197 153.134 52.3757 153.59 52.3757C154.246 52.3757 154.662 52.7517 154.662 53.3277C154.662 53.8477 154.238 54.2637 153.566 54.2637C152.966 54.2637 152.486 54.0397 152.126 53.6317L151.59 54.2717C152.022 54.7837 152.654 55.0957 153.574 55.0957Z" fill="#3356D7"/>
<path d="M158.323 55.0957C159.411 55.0957 160.363 54.5837 160.363 53.6317C160.363 52.9517 159.811 52.4637 159.163 52.2477C159.763 52.0557 160.283 51.6637 160.283 50.9837C160.283 49.9997 159.259 49.5837 158.323 49.5837C157.371 49.5837 156.363 49.9997 156.363 50.9837C156.363 51.6637 156.875 52.0557 157.475 52.2477C156.827 52.4637 156.275 52.9517 156.275 53.6317C156.275 54.5917 157.227 55.0957 158.323 55.0957ZM158.323 51.8797C157.995 51.8237 157.307 51.6317 157.307 51.1277C157.307 50.6797 157.739 50.4157 158.323 50.4157C158.891 50.4157 159.331 50.6797 159.331 51.1277C159.331 51.6317 158.651 51.8237 158.323 51.8797ZM158.323 54.2637C157.715 54.2637 157.219 53.9757 157.219 53.5117C157.219 52.9597 157.987 52.7117 158.323 52.6717C158.651 52.7117 159.419 52.9597 159.419 53.5117C159.419 53.9757 158.915 54.2637 158.323 54.2637Z" fill="#3356D7"/>
<path d="M164.96 54.9997V54.1757H162.592C164.024 53.0957 164.928 52.2157 164.928 51.2317C164.928 50.1677 164.024 49.5837 162.992 49.5837C162.248 49.5837 161.496 49.8717 161.024 50.4397L161.568 51.0557C161.904 50.6717 162.384 50.4157 163.008 50.4157C163.496 50.4157 163.976 50.6717 163.976 51.2317C163.976 51.9997 163.168 52.6957 161.096 54.2637V54.9997H164.96Z" fill="#3356D7"/>
<path d="M167.662 55.0957C168.894 55.0957 169.67 54.4477 169.67 53.5437C169.67 52.7197 168.95 52.2957 168.43 52.2477C168.982 52.1517 169.59 51.7357 169.59 51.0237C169.59 50.1277 168.814 49.5837 167.662 49.5837C166.774 49.5837 166.126 49.9437 165.718 50.4237L166.198 51.0077C166.582 50.6237 167.03 50.4157 167.574 50.4157C168.174 50.4157 168.654 50.6717 168.654 51.1677C168.654 51.6557 168.182 51.8717 167.558 51.8717C167.35 51.8717 167.038 51.8717 166.942 51.8637V52.7037C167.022 52.6957 167.334 52.6957 167.558 52.6957C168.318 52.6957 168.742 52.9197 168.742 53.4477C168.742 53.9437 168.334 54.2637 167.63 54.2637C167.062 54.2637 166.494 54.0157 166.15 53.6157L165.646 54.2317C166.006 54.7117 166.71 55.0957 167.662 55.0957Z" fill="#3356D7"/>
<path d="M45.7217 63.9997L43.3937 61.1837L45.5617 58.6637H44.4017L42.3137 61.2077V58.6637H41.3777V63.9997H42.3137V62.2957L42.7777 61.7517L44.5697 63.9997H45.7217Z" fill="#3356D7"/>
<path d="M47.8242 64.0957C49.0642 64.0957 49.8162 63.1757 49.8162 62.0637C49.8162 60.9597 49.0642 60.0397 47.8242 60.0397C46.6002 60.0397 45.8402 60.9597 45.8402 62.0637C45.8402 63.1757 46.6002 64.0957 47.8242 64.0957ZM47.8242 63.3517C47.1122 63.3517 46.7122 62.7517 46.7122 62.0637C46.7122 61.3837 47.1122 60.7837 47.8242 60.7837C48.5442 60.7837 48.9442 61.3837 48.9442 62.0637C48.9442 62.7517 48.5442 63.3517 47.8242 63.3517Z" fill="#3356D7"/>
<path d="M52.7462 64.0957C53.7462 64.0957 54.4582 63.3357 54.4582 62.0637C54.4582 60.7917 53.7462 60.0397 52.7462 60.0397C52.2422 60.0397 51.7942 60.2797 51.5062 60.6637V60.1357H50.6662V65.4717H51.5062V63.4637C51.8182 63.8797 52.2582 64.0957 52.7462 64.0957ZM52.4982 63.3517C52.1062 63.3517 51.6902 63.1117 51.5062 62.8317V61.3037C51.6902 61.0157 52.1062 60.7837 52.4982 60.7837C53.1622 60.7837 53.5862 61.3197 53.5862 62.0637C53.5862 62.8157 53.1622 63.3517 52.4982 63.3517Z" fill="#3356D7"/>
<path d="M57.3712 64.0957C58.3712 64.0957 59.0832 63.3357 59.0832 62.0637C59.0832 60.7917 58.3712 60.0397 57.3712 60.0397C56.8672 60.0397 56.4192 60.2797 56.1312 60.6637V60.1357H55.2912V65.4717H56.1312V63.4637C56.4432 63.8797 56.8832 64.0957 57.3712 64.0957ZM57.1232 63.3517C56.7312 63.3517 56.3152 63.1117 56.1312 62.8317V61.3037C56.3152 61.0157 56.7312 60.7837 57.1232 60.7837C57.7872 60.7837 58.2112 61.3197 58.2112 62.0637C58.2112 62.8157 57.7872 63.3517 57.1232 63.3517Z" fill="#3356D7"/>
<path d="M60.3091 64.0877C60.6131 64.0877 60.8691 63.8317 60.8691 63.5277C60.8691 63.2237 60.6131 62.9677 60.3091 62.9677C60.0051 62.9677 59.7491 63.2237 59.7491 63.5277C59.7491 63.8317 60.0051 64.0877 60.3091 64.0877Z" fill="#3356D7"/>
<path d="M65.6527 64.0957C66.4047 64.0957 66.8607 63.7757 67.1327 63.4077L66.5807 62.8957C66.3647 63.1917 66.0687 63.3517 65.6927 63.3517C64.9887 63.3517 64.5247 62.8157 64.5247 62.0637C64.5247 61.3117 64.9887 60.7837 65.6927 60.7837C66.0687 60.7837 66.3647 60.9357 66.5807 61.2397L67.1327 60.7277C66.8607 60.3597 66.4047 60.0397 65.6527 60.0397C64.4767 60.0397 63.6527 60.8957 63.6527 62.0637C63.6527 63.2397 64.4767 64.0957 65.6527 64.0957Z" fill="#3356D7"/>
<path d="M67.7333 60.1357V61.4797C67.7333 62.2717 68.1413 62.7037 69.2293 62.7037C69.6933 62.7037 70.0853 62.6237 70.3413 62.4957V63.9997H71.1813V60.1357H70.3413V61.8157C70.1413 61.9037 69.8613 61.9597 69.4933 61.9597C68.8773 61.9597 68.5733 61.7757 68.5733 61.1757V60.1357H67.7333Z" fill="#3356D7"/>
<path d="M74.0517 64.0957C74.6677 64.0957 75.2357 63.9037 75.6197 63.5357L75.2357 62.9837C74.9637 63.2557 74.5157 63.4077 74.1397 63.4077C73.4117 63.4077 72.9717 62.9277 72.9077 62.3437H75.8917V62.1437C75.8917 60.9277 75.1477 60.0397 73.9877 60.0397C72.8437 60.0397 72.0277 60.9437 72.0277 62.0637C72.0277 63.2877 72.8917 64.0957 74.0517 64.0957ZM75.0757 61.7517H72.8997C72.9397 61.2797 73.2677 60.7277 73.9877 60.7277C74.7477 60.7277 75.0597 61.2957 75.0757 61.7517Z" fill="#3356D7"/>
<path d="M78.2649 63.9997V60.8717H79.3769V60.1357H76.3209V60.8717H77.4249V63.9997H78.2649Z" fill="#3356D7"/>
<path d="M83.7833 64.0957C85.0153 64.0957 85.7913 63.4477 85.7913 62.5437C85.7913 61.7197 85.0713 61.2957 84.5513 61.2477C85.1033 61.1517 85.7113 60.7357 85.7113 60.0237C85.7113 59.1277 84.9353 58.5837 83.7833 58.5837C82.8953 58.5837 82.2473 58.9437 81.8393 59.4237L82.3193 60.0077C82.7033 59.6237 83.1513 59.4157 83.6953 59.4157C84.2953 59.4157 84.7753 59.6717 84.7753 60.1677C84.7753 60.6557 84.3033 60.8717 83.6793 60.8717C83.4713 60.8717 83.1593 60.8717 83.0633 60.8637V61.7037C83.1433 61.6957 83.4553 61.6957 83.6793 61.6957C84.4393 61.6957 84.8633 61.9197 84.8633 62.4477C84.8633 62.9437 84.4553 63.2637 83.7513 63.2637C83.1833 63.2637 82.6153 63.0157 82.2713 62.6157L81.7673 63.2317C82.1273 63.7117 82.8313 64.0957 83.7833 64.0957Z" fill="#3356D7"/>
<path d="M88.6331 64.0957C90.1291 64.0957 90.7691 62.6797 90.7691 61.3357C90.7691 59.9917 90.1291 58.5837 88.6331 58.5837C87.1371 58.5837 86.4971 59.9917 86.4971 61.3357C86.4971 62.6797 87.1371 64.0957 88.6331 64.0957ZM88.6331 63.2637C87.7611 63.2637 87.4491 62.3517 87.4491 61.3357C87.4491 60.3197 87.7611 59.4157 88.6331 59.4157C89.5051 59.4157 89.8171 60.3197 89.8171 61.3357C89.8171 62.3517 89.5051 63.2637 88.6331 63.2637Z" fill="#3356D7"/>
<path d="M93.5707 63.9997V58.6637H92.7547L91.2187 60.2157L91.7627 60.7837L92.6347 59.8797V63.9997H93.5707Z" fill="#3356D7"/>
<path d="M96.6018 64.0957C98.0978 64.0957 98.7378 62.6797 98.7378 61.3357C98.7378 59.9917 98.0978 58.5837 96.6018 58.5837C95.1058 58.5837 94.4658 59.9917 94.4658 61.3357C94.4658 62.6797 95.1058 64.0957 96.6018 64.0957ZM96.6018 63.2637C95.7298 63.2637 95.4178 62.3517 95.4178 61.3357C95.4178 60.3197 95.7298 59.4157 96.6018 59.4157C97.4738 59.4157 97.7858 60.3197 97.7858 61.3357C97.7858 62.3517 97.4738 63.2637 96.6018 63.2637Z" fill="#3356D7"/>
<path d="M101.539 63.9997V58.6637H100.723L99.1875 60.2157L99.7315 60.7837L100.603 59.8797V63.9997H101.539Z" fill="#3356D7"/>
<path d="M104.491 64.0957C105.579 64.0957 106.531 63.5837 106.531 62.6317C106.531 61.9517 105.979 61.4637 105.331 61.2477C105.931 61.0557 106.451 60.6637 106.451 59.9837C106.451 58.9997 105.427 58.5837 104.491 58.5837C103.539 58.5837 102.531 58.9997 102.531 59.9837C102.531 60.6637 103.043 61.0557 103.643 61.2477C102.995 61.4637 102.443 61.9517 102.443 62.6317C102.443 63.5917 103.395 64.0957 104.491 64.0957ZM104.491 60.8797C104.163 60.8237 103.475 60.6317 103.475 60.1277C103.475 59.6797 103.907 59.4157 104.491 59.4157C105.059 59.4157 105.499 59.6797 105.499 60.1277C105.499 60.6317 104.819 60.8237 104.491 60.8797ZM104.491 63.2637C103.883 63.2637 103.387 62.9757 103.387 62.5117C103.387 61.9597 104.155 61.7117 104.491 61.6717C104.819 61.7117 105.587 61.9597 105.587 62.5117C105.587 62.9757 105.083 63.2637 104.491 63.2637Z" fill="#3356D7"/>
<path d="M109.336 63.9997V58.6637H108.52L106.984 60.2157L107.528 60.7837L108.4 59.8797V63.9997H109.336Z" fill="#3356D7"/>
<path d="M112.367 64.0957C113.863 64.0957 114.503 62.6797 114.503 61.3357C114.503 59.9917 113.863 58.5837 112.367 58.5837C110.871 58.5837 110.231 59.9917 110.231 61.3357C110.231 62.6797 110.871 64.0957 112.367 64.0957ZM112.367 63.2637C111.495 63.2637 111.183 62.3517 111.183 61.3357C111.183 60.3197 111.495 59.4157 112.367 59.4157C113.239 59.4157 113.551 60.3197 113.551 61.3357C113.551 62.3517 113.239 63.2637 112.367 63.2637Z" fill="#3356D7"/>
<path d="M119.097 63.9997V63.1757H116.729C118.161 62.0957 119.065 61.2157 119.065 60.2317C119.065 59.1677 118.161 58.5837 117.129 58.5837C116.385 58.5837 115.633 58.8717 115.161 59.4397L115.705 60.0557C116.041 59.6717 116.521 59.4157 117.145 59.4157C117.633 59.4157 118.113 59.6717 118.113 60.2317C118.113 60.9997 117.305 61.6957 115.233 63.2637V63.9997H119.097Z" fill="#3356D7"/>
<path d="M122.055 64.0957C123.551 64.0957 124.191 62.6797 124.191 61.3357C124.191 59.9917 123.551 58.5837 122.055 58.5837C120.559 58.5837 119.919 59.9917 119.919 61.3357C119.919 62.6797 120.559 64.0957 122.055 64.0957ZM122.055 63.2637C121.183 63.2637 120.871 62.3517 120.871 61.3357C120.871 60.3197 121.183 59.4157 122.055 59.4157C122.927 59.4157 123.239 60.3197 123.239 61.3357C123.239 62.3517 122.927 63.2637 122.055 63.2637Z" fill="#3356D7"/>
<path d="M126.985 64.0957C128.481 64.0957 129.121 62.6797 129.121 61.3357C129.121 59.9917 128.481 58.5837 126.985 58.5837C125.489 58.5837 124.849 59.9917 124.849 61.3357C124.849 62.6797 125.489 64.0957 126.985 64.0957ZM126.985 63.2637C126.113 63.2637 125.801 62.3517 125.801 61.3357C125.801 60.3197 126.113 59.4157 126.985 59.4157C127.857 59.4157 128.169 60.3197 128.169 61.3357C128.169 62.3517 127.857 63.2637 126.985 63.2637Z" fill="#3356D7"/>
<path d="M131.914 64.0957C133.41 64.0957 134.05 62.6797 134.05 61.3357C134.05 59.9917 133.41 58.5837 131.914 58.5837C130.418 58.5837 129.778 59.9917 129.778 61.3357C129.778 62.6797 130.418 64.0957 131.914 64.0957ZM131.914 63.2637C131.042 63.2637 130.73 62.3517 130.73 61.3357C130.73 60.3197 131.042 59.4157 131.914 59.4157C132.786 59.4157 133.098 60.3197 133.098 61.3357C133.098 62.3517 132.786 63.2637 131.914 63.2637Z" fill="#3356D7"/>
<path d="M136.844 64.0957C138.34 64.0957 138.98 62.6797 138.98 61.3357C138.98 59.9917 138.34 58.5837 136.844 58.5837C135.348 58.5837 134.708 59.9917 134.708 61.3357C134.708 62.6797 135.348 64.0957 136.844 64.0957ZM136.844 63.2637C135.972 63.2637 135.66 62.3517 135.66 61.3357C135.66 60.3197 135.972 59.4157 136.844 59.4157C137.716 59.4157 138.028 60.3197 138.028 61.3357C138.028 62.3517 137.716 63.2637 136.844 63.2637Z" fill="#3356D7"/>
<path d="M141.774 64.0957C143.27 64.0957 143.91 62.6797 143.91 61.3357C143.91 59.9917 143.27 58.5837 141.774 58.5837C140.278 58.5837 139.638 59.9917 139.638 61.3357C139.638 62.6797 140.278 64.0957 141.774 64.0957ZM141.774 63.2637C140.902 63.2637 140.59 62.3517 140.59 61.3357C140.59 60.3197 140.902 59.4157 141.774 59.4157C142.646 59.4157 142.958 60.3197 142.958 61.3357C142.958 62.3517 142.646 63.2637 141.774 63.2637Z" fill="#3356D7"/>
<path d="M146.703 64.0957C148.199 64.0957 148.839 62.6797 148.839 61.3357C148.839 59.9917 148.199 58.5837 146.703 58.5837C145.207 58.5837 144.567 59.9917 144.567 61.3357C144.567 62.6797 145.207 64.0957 146.703 64.0957ZM146.703 63.2637C145.831 63.2637 145.519 62.3517 145.519 61.3357C145.519 60.3197 145.831 59.4157 146.703 59.4157C147.575 59.4157 147.887 60.3197 147.887 61.3357C147.887 62.3517 147.575 63.2637 146.703 63.2637Z" fill="#3356D7"/>
<path d="M151.633 64.0957C153.129 64.0957 153.769 62.6797 153.769 61.3357C153.769 59.9917 153.129 58.5837 151.633 58.5837C150.137 58.5837 149.497 59.9917 149.497 61.3357C149.497 62.6797 150.137 64.0957 151.633 64.0957ZM151.633 63.2637C150.761 63.2637 150.449 62.3517 150.449 61.3357C150.449 60.3197 150.761 59.4157 151.633 59.4157C152.505 59.4157 152.817 60.3197 152.817 61.3357C152.817 62.3517 152.505 63.2637 151.633 63.2637Z" fill="#3356D7"/>
<path d="M156.563 64.0957C158.059 64.0957 158.699 62.6797 158.699 61.3357C158.699 59.9917 158.059 58.5837 156.563 58.5837C155.067 58.5837 154.427 59.9917 154.427 61.3357C154.427 62.6797 155.067 64.0957 156.563 64.0957ZM156.563 63.2637C155.691 63.2637 155.379 62.3517 155.379 61.3357C155.379 60.3197 155.691 59.4157 156.563 59.4157C157.435 59.4157 157.747 60.3197 157.747 61.3357C157.747 62.3517 157.435 63.2637 156.563 63.2637Z" fill="#3356D7"/>
<path d="M161.412 64.0957C162.5 64.0957 163.452 63.5837 163.452 62.6317C163.452 61.9517 162.9 61.4637 162.252 61.2477C162.852 61.0557 163.372 60.6637 163.372 59.9837C163.372 58.9997 162.348 58.5837 161.412 58.5837C160.46 58.5837 159.452 58.9997 159.452 59.9837C159.452 60.6637 159.964 61.0557 160.564 61.2477C159.916 61.4637 159.364 61.9517 159.364 62.6317C159.364 63.5917 160.316 64.0957 161.412 64.0957ZM161.412 60.8797C161.084 60.8237 160.396 60.6317 160.396 60.1277C160.396 59.6797 160.828 59.4157 161.412 59.4157C161.98 59.4157 162.42 59.6797 162.42 60.1277C162.42 60.6317 161.74 60.8237 161.412 60.8797ZM161.412 63.2637C160.804 63.2637 160.308 62.9757 160.308 62.5117C160.308 61.9597 161.076 61.7117 161.412 61.6717C161.74 61.7117 162.508 61.9597 162.508 62.5117C162.508 62.9757 162.004 63.2637 161.412 63.2637Z" fill="#3356D7"/>
<path d="M168.05 63.9997V63.1757H165.682C167.114 62.0957 168.018 61.2157 168.018 60.2317C168.018 59.1677 167.114 58.5837 166.082 58.5837C165.338 58.5837 164.586 58.8717 164.114 59.4397L164.658 60.0557C164.994 59.6717 165.474 59.4157 166.098 59.4157C166.586 59.4157 167.066 59.6717 167.066 60.2317C167.066 60.9997 166.258 61.6957 164.186 63.2637V63.9997H168.05Z" fill="#3356D7"/>
<path d="M170.752 64.0957C171.984 64.0957 172.76 63.4477 172.76 62.5437C172.76 61.7197 172.04 61.2957 171.52 61.2477C172.072 61.1517 172.68 60.7357 172.68 60.0237C172.68 59.1277 171.904 58.5837 170.752 58.5837C169.864 58.5837 169.216 58.9437 168.808 59.4237L169.288 60.0077C169.672 59.6237 170.12 59.4157 170.664 59.4157C171.264 59.4157 171.744 59.6717 171.744 60.1677C171.744 60.6557 171.272 60.8717 170.648 60.8717C170.44 60.8717 170.128 60.8717 170.032 60.8637V61.7037C170.112 61.6957 170.424 61.6957 170.648 61.6957C171.408 61.6957 171.832 61.9197 171.832 62.4477C171.832 62.9437 171.424 63.2637 170.72 63.2637C170.152 63.2637 169.584 63.0157 169.24 62.6157L168.736 63.2317C169.096 63.7117 169.8 64.0957 170.752 64.0957Z" fill="#3356D7"/>
<path d="M62.4192 72.9997V68.4877H65.1392V67.6637H61.4832V72.9997H62.4192Z" fill="#3356D7"/>
<path d="M66.6153 73.0957C67.5273 73.0957 67.9353 72.6397 68.2633 71.9997L70.4873 67.6637H69.4233L67.9513 70.7757L66.4793 67.6637H65.4153L67.4233 71.5837C67.1673 72.0797 66.9833 72.2637 66.5513 72.2637C66.2953 72.2637 66.0473 72.1277 65.8553 71.9597L65.5193 72.7277C65.6873 72.9037 66.1353 73.0957 66.6153 73.0957Z" fill="#3356D7"/>
<path d="M73.1238 67.6637V72.9997H75.4678C76.5878 72.9997 77.2118 72.2317 77.2118 71.3277C77.2118 70.4237 76.5798 69.6557 75.4678 69.6557H74.0598V68.4877H76.7798V67.6637H73.1238ZM75.3398 70.4797C75.8678 70.4797 76.2518 70.8157 76.2518 71.3277C76.2518 71.8397 75.8678 72.1757 75.3398 72.1757H74.0598V70.4797H75.3398Z" fill="#3356D7"/>
<path d="M81.167 72.9997V70.4397C81.167 69.3997 80.415 69.0397 79.559 69.0397C78.943 69.0397 78.383 69.2397 77.935 69.6637L78.279 70.2477C78.615 69.9197 78.991 69.7597 79.423 69.7597C79.959 69.7597 80.327 70.0317 80.327 70.4797V71.0557C80.047 70.7277 79.599 70.5597 79.079 70.5597C78.447 70.5597 77.735 70.9277 77.735 71.8157C77.735 72.6717 78.447 73.0957 79.079 73.0957C79.591 73.0957 80.039 72.9117 80.327 72.5837V72.9997H81.167ZM79.407 72.5197C78.935 72.5197 78.583 72.2477 78.583 71.8317C78.583 71.4077 78.935 71.1357 79.407 71.1357C79.775 71.1357 80.135 71.2717 80.327 71.5357V72.1197C80.135 72.3837 79.775 72.5197 79.407 72.5197Z" fill="#3356D7"/>
<path d="M83.096 72.9997V71.3917H84.872V72.9997H85.712V69.1357H84.872V70.6557H83.096V69.1357H82.256V72.9997H83.096Z" fill="#3356D7"/>
<path d="M90.4189 72.9997L88.7789 70.8877L90.3869 69.1357H89.3469L87.6429 70.9997V69.1357H86.8029V72.9997H87.6429V71.9597L88.1789 71.4077L89.3629 72.9997H90.4189Z" fill="#3356D7"/>
<path d="M94.2138 72.9997V70.4397C94.2138 69.3997 93.4618 69.0397 92.6058 69.0397C91.9898 69.0397 91.4298 69.2397 90.9818 69.6637L91.3258 70.2477C91.6618 69.9197 92.0378 69.7597 92.4698 69.7597C93.0058 69.7597 93.3738 70.0317 93.3738 70.4797V71.0557C93.0938 70.7277 92.6458 70.5597 92.1258 70.5597C91.4938 70.5597 90.7818 70.9277 90.7818 71.8157C90.7818 72.6717 91.4938 73.0957 92.1258 73.0957C92.6378 73.0957 93.0858 72.9117 93.3738 72.5837V72.9997H94.2138ZM92.4538 72.5197C91.9818 72.5197 91.6298 72.2477 91.6298 71.8317C91.6298 71.4077 91.9818 71.1357 92.4538 71.1357C92.8218 71.1357 93.1818 71.2717 93.3738 71.5357V72.1197C93.1818 72.3837 92.8218 72.5197 92.4538 72.5197Z" fill="#3356D7"/>
<path d="M98.3176 72.9997V71.0077H99.7256C100.838 71.0077 101.47 70.2397 101.47 69.3357C101.47 68.4317 100.846 67.6637 99.7256 67.6637H97.3816V72.9997H98.3176ZM99.5976 70.1837H98.3176V68.4877H99.5976C100.126 68.4877 100.51 68.8237 100.51 69.3357C100.51 69.8477 100.126 70.1837 99.5976 70.1837Z" fill="#3356D7"/>
<path d="M103.852 73.0957C105.092 73.0957 105.844 72.1757 105.844 71.0637C105.844 69.9597 105.092 69.0397 103.852 69.0397C102.628 69.0397 101.868 69.9597 101.868 71.0637C101.868 72.1757 102.628 73.0957 103.852 73.0957ZM103.852 72.3517C103.14 72.3517 102.74 71.7517 102.74 71.0637C102.74 70.3837 103.14 69.7837 103.852 69.7837C104.572 69.7837 104.972 70.3837 104.972 71.0637C104.972 71.7517 104.572 72.3517 103.852 72.3517Z" fill="#3356D7"/>
<path d="M108.454 73.0957C109.206 73.0957 109.662 72.7757 109.934 72.4077L109.382 71.8957C109.166 72.1917 108.87 72.3517 108.494 72.3517C107.79 72.3517 107.326 71.8157 107.326 71.0637C107.326 70.3117 107.79 69.7837 108.494 69.7837C108.87 69.7837 109.166 69.9357 109.382 70.2397L109.934 69.7277C109.662 69.3597 109.206 69.0397 108.454 69.0397C107.278 69.0397 106.454 69.8957 106.454 71.0637C106.454 72.2397 107.278 73.0957 108.454 73.0957Z" fill="#3356D7"/>
<path d="M112.43 73.0957C113.182 73.0957 113.638 72.7757 113.91 72.4077L113.358 71.8957C113.142 72.1917 112.846 72.3517 112.47 72.3517C111.766 72.3517 111.302 71.8157 111.302 71.0637C111.302 70.3117 111.766 69.7837 112.47 69.7837C112.846 69.7837 113.142 69.9357 113.358 70.2397L113.91 69.7277C113.638 69.3597 113.182 69.0397 112.43 69.0397C111.254 69.0397 110.43 69.8957 110.43 71.0637C110.43 72.2397 111.254 73.0957 112.43 73.0957Z" fill="#3356D7"/>
<path d="M115.455 72.9997L117.263 70.3277V72.9997H118.103V69.1357H117.263L115.487 71.7357V69.1357H114.647V72.9997H115.455Z" fill="#3356D7"/>
<path d="M120.002 72.9997L121.81 70.3277V72.9997H122.65V69.1357H121.81L120.034 71.7357V69.1357H119.194V72.9997H120.002Z" fill="#3356D7"/>
<path d="M129.251 72.9997V69.1357H125.795V72.9997H126.635V69.8717H128.411V72.9997H129.251Z" fill="#3356D7"/>
<path d="M132.086 73.0957C133.326 73.0957 134.078 72.1757 134.078 71.0637C134.078 69.9597 133.326 69.0397 132.086 69.0397C130.862 69.0397 130.102 69.9597 130.102 71.0637C130.102 72.1757 130.862 73.0957 132.086 73.0957ZM132.086 72.3517C131.374 72.3517 130.974 71.7517 130.974 71.0637C130.974 70.3837 131.374 69.7837 132.086 69.7837C132.806 69.7837 133.206 70.3837 133.206 71.0637C133.206 71.7517 132.806 72.3517 132.086 72.3517Z" fill="#3356D7"/>
<path d="M141.215 73.9837H142.151V72.1757H141.655V67.6637H140.719V72.1757H137.943V67.6637H137.007V72.9997H141.215V73.9837Z" fill="#3356D7"/>
<path d="M146.098 72.9997V72.4717C147.674 72.3437 148.634 71.5597 148.634 70.3357C148.634 69.1277 147.674 68.3277 146.098 68.1997V67.6637H145.162V68.2077C143.578 68.3357 142.626 69.1277 142.626 70.3357C142.626 71.5597 143.578 72.3437 145.162 72.4717V72.9997H146.098ZM147.674 70.3357C147.674 71.0477 147.114 71.5277 146.098 71.6317V69.0397C147.114 69.1517 147.674 69.6317 147.674 70.3357ZM143.586 70.3357C143.586 69.6317 144.146 69.1517 145.162 69.0397V71.6317C144.146 71.5197 143.586 71.0397 143.586 70.3357Z" fill="#3356D7"/>
<path d="M152.026 73.0957C153.626 73.0957 154.754 71.9277 154.754 70.3357C154.754 68.7437 153.626 67.5757 152.026 67.5757C150.426 67.5757 149.298 68.7437 149.298 70.3357C149.298 71.9277 150.426 73.0957 152.026 73.0957ZM152.026 72.2637C150.946 72.2637 150.258 71.4317 150.258 70.3357C150.258 69.2317 150.946 68.4077 152.026 68.4077C153.098 68.4077 153.794 69.2317 153.794 70.3357C153.794 71.4317 153.098 72.2637 152.026 72.2637Z" fill="#3356D7"/>
<path d="M18.0434 81.9997V76.6637H17.2274L15.6914 78.2157L16.2354 78.7837L17.1074 77.8797V81.9997H18.0434Z" fill="#3356D7"/>
<path d="M21.0825 81.9997V76.6637H20.2665L18.7305 78.2157L19.2745 78.7837L20.1465 77.8797V81.9997H21.0825Z" fill="#3356D7"/>
<path d="M23.6415 81.9997L25.7135 77.3117V76.6637H21.8655V77.4877H24.6335L22.6175 81.9997H23.6415Z" fill="#3356D7"/>
<path d="M29.6113 81.9997V80.7917H30.3233V79.9677H29.6113V76.6637H28.3233L26.1313 80.0397V80.7917H28.6753V81.9997H29.6113ZM28.6753 79.9677H27.0513L28.6753 77.5037V79.9677Z" fill="#3356D7"/>
<path d="M34.812 81.9997V81.1757H32.444C33.876 80.0957 34.78 79.2157 34.78 78.2317C34.78 77.1677 33.876 76.5837 32.844 76.5837C32.1 76.5837 31.348 76.8717 30.876 77.4397L31.42 78.0557C31.756 77.6717 32.236 77.4157 32.86 77.4157C33.348 77.4157 33.828 77.6717 33.828 78.2317C33.828 78.9997 33.02 79.6957 30.948 81.2637V81.9997H34.812Z" fill="#3356D7"/>
<path d="M37.7698 82.0957C39.2658 82.0957 39.9058 80.6797 39.9058 79.3357C39.9058 77.9917 39.2658 76.5837 37.7698 76.5837C36.2738 76.5837 35.6338 77.9917 35.6338 79.3357C35.6338 80.6797 36.2738 82.0957 37.7698 82.0957ZM37.7698 81.2637C36.8978 81.2637 36.5858 80.3517 36.5858 79.3357C36.5858 78.3197 36.8978 77.4157 37.7698 77.4157C38.6418 77.4157 38.9538 78.3197 38.9538 79.3357C38.9538 80.3517 38.6418 81.2637 37.7698 81.2637Z" fill="#3356D7"/>
<path d="M41.6163 81.6957C41.6163 81.2317 41.3203 80.9677 40.9923 80.9677C40.6963 80.9677 40.4483 81.2157 40.4483 81.5197C40.4483 81.8157 40.6563 82.0237 40.9283 82.0237C40.9763 82.0237 41.0403 82.0077 41.0643 81.9997C41.0083 82.2717 40.7443 82.5997 40.4883 82.7517L40.8643 83.0637C41.3043 82.7517 41.6163 82.2477 41.6163 81.6957Z" fill="#3356D7"/>
<path d="M47.52 78.1357H44.592V81.9997H45.432V78.8717H47.52V78.1357Z" fill="#3356D7"/>
<path d="M48.1646 82.0877C48.4686 82.0877 48.7246 81.8317 48.7246 81.5277C48.7246 81.2237 48.4686 80.9677 48.1646 80.9677C47.8606 80.9677 47.6046 81.2237 47.6046 81.5277C47.6046 81.8317 47.8606 82.0877 48.1646 82.0877Z" fill="#3356D7"/>
<path d="M57.3162 81.9997V76.6637H55.9962L54.5402 80.1757L53.0922 76.6637H51.7722V81.9997H52.7082V78.0397L54.3402 81.9997H54.7402L56.3802 78.0397V81.9997H57.3162Z" fill="#3356D7"/>
<path d="M60.1719 82.0957C61.4119 82.0957 62.1639 81.1757 62.1639 80.0637C62.1639 78.9597 61.4119 78.0397 60.1719 78.0397C58.9479 78.0397 58.1879 78.9597 58.1879 80.0637C58.1879 81.1757 58.9479 82.0957 60.1719 82.0957ZM60.1719 81.3517C59.4599 81.3517 59.0599 80.7517 59.0599 80.0637C59.0599 79.3837 59.4599 78.7837 60.1719 78.7837C60.8919 78.7837 61.2919 79.3837 61.2919 80.0637C61.2919 80.7517 60.8919 81.3517 60.1719 81.3517Z" fill="#3356D7"/>
<path d="M64.7738 82.0957C65.5258 82.0957 65.9818 81.7757 66.2538 81.4077L65.7018 80.8957C65.4858 81.1917 65.1898 81.3517 64.8138 81.3517C64.1098 81.3517 63.6458 80.8157 63.6458 80.0637C63.6458 79.3117 64.1098 78.7837 64.8138 78.7837C65.1898 78.7837 65.4858 78.9357 65.7018 79.2397L66.2538 78.7277C65.9818 78.3597 65.5258 78.0397 64.7738 78.0397C63.5978 78.0397 62.7738 78.8957 62.7738 80.0637C62.7738 81.2397 63.5978 82.0957 64.7738 82.0957Z" fill="#3356D7"/>
<path d="M70.6064 81.9997L68.9664 79.8877L70.5744 78.1357H69.5344L67.8304 79.9997V78.1357H66.9904V81.9997H67.8304V80.9597L68.3664 80.4077L69.5504 81.9997H70.6064Z" fill="#3356D7"/>
<path d="M73.5693 81.9997C74.3213 81.9997 74.7373 81.5517 74.7373 80.9517C74.7373 80.4957 74.4253 80.1037 74.0093 80.0077C74.3613 79.9037 74.6573 79.5917 74.6573 79.1277C74.6573 78.5757 74.2493 78.1357 73.5133 78.1357H71.2013V81.9997H73.5693ZM73.3933 81.2637H72.0413V80.3917H73.3933C73.7053 80.3917 73.8733 80.5997 73.8733 80.8317C73.8733 81.1037 73.6893 81.2637 73.3933 81.2637ZM73.3693 79.6557H72.0413V78.8717H73.3693C73.6413 78.8717 73.8013 79.0317 73.8013 79.2717C73.8013 79.4877 73.6413 79.6557 73.3693 79.6557Z" fill="#3356D7"/>
<path d="M78.9795 81.9997V79.4397C78.9795 78.3997 78.2275 78.0397 77.3715 78.0397C76.7555 78.0397 76.1955 78.2397 75.7475 78.6637L76.0915 79.2477C76.4275 78.9197 76.8035 78.7597 77.2355 78.7597C77.7715 78.7597 78.1395 79.0317 78.1395 79.4797V80.0557C77.8595 79.7277 77.4115 79.5597 76.8915 79.5597C76.2595 79.5597 75.5475 79.9277 75.5475 80.8157C75.5475 81.6717 76.2595 82.0957 76.8915 82.0957C77.4035 82.0957 77.8515 81.9117 78.1395 81.5837V81.9997H78.9795ZM77.2195 81.5197C76.7475 81.5197 76.3955 81.2477 76.3955 80.8317C76.3955 80.4077 76.7475 80.1357 77.2195 80.1357C77.5875 80.1357 77.9475 80.2717 78.1395 80.5357V81.1197C77.9475 81.3837 77.5875 81.5197 77.2195 81.5197Z" fill="#3356D7"/>
<path d="M81.1085 81.6957C81.1085 81.2317 80.8125 80.9677 80.4845 80.9677C80.1885 80.9677 79.9405 81.2157 79.9405 81.5197C79.9405 81.8157 80.1485 82.0237 80.4205 82.0237C80.4685 82.0237 80.5325 82.0077 80.5565 81.9997C80.5005 82.2717 80.2365 82.5997 79.9805 82.7517L80.3565 83.0637C80.7965 82.7517 81.1085 82.2477 81.1085 81.6957Z" fill="#3356D7"/>
<path d="M83.9162 83.5117C84.0362 83.5437 84.2682 83.5677 84.3882 83.5677C84.9882 83.5597 85.4521 83.3517 85.7161 82.6957L87.5802 78.1357H86.6762L85.5481 81.0317L84.4202 78.1357H83.5242L85.1082 82.0477L84.9162 82.4877C84.8042 82.7437 84.6282 82.8237 84.3642 82.8237C84.2682 82.8237 84.1322 82.7997 84.0442 82.7597L83.9162 83.5117Z" fill="#3356D7"/>
<path d="M87.7076 82.0957C88.5556 82.0957 89.0356 81.5117 89.1876 80.1117L89.3236 78.8717H90.7236V81.9997H91.5636V78.1357H88.5796L88.3476 80.0157C88.2196 81.0317 88.0356 81.4077 87.7076 81.4077V82.0957Z" fill="#3356D7"/>
<path d="M93.0865 82.0877C93.3905 82.0877 93.6465 81.8317 93.6465 81.5277C93.6465 81.2237 93.3905 80.9677 93.0865 80.9677C92.7825 80.9677 92.5265 81.2237 92.5265 81.5277C92.5265 81.8317 92.7825 82.0877 93.0865 82.0877Z" fill="#3356D7"/>
<path d="M101.342 81.9997V76.6637H100.406V78.8477H97.6301V76.6637H96.6941V81.9997H97.6301V79.6717H100.406V81.9997H101.342Z" fill="#3356D7"/>
<path d="M105.651 81.9997V79.4397C105.651 78.3997 104.899 78.0397 104.043 78.0397C103.427 78.0397 102.867 78.2397 102.419 78.6637L102.763 79.2477C103.099 78.9197 103.475 78.7597 103.907 78.7597C104.443 78.7597 104.811 79.0317 104.811 79.4797V80.0557C104.531 79.7277 104.083 79.5597 103.563 79.5597C102.931 79.5597 102.219 79.9277 102.219 80.8157C102.219 81.6717 102.931 82.0957 103.563 82.0957C104.075 82.0957 104.523 81.9117 104.811 81.5837V81.9997H105.651ZM103.891 81.5197C103.419 81.5197 103.067 81.2477 103.067 80.8317C103.067 80.4077 103.419 80.1357 103.891 80.1357C104.259 80.1357 104.619 80.2717 104.811 80.5357V81.1197C104.619 81.3837 104.259 81.5197 103.891 81.5197Z" fill="#3356D7"/>
<path d="M111.068 81.9997V78.1357H109.964L108.908 80.6317L107.836 78.1357H106.74V81.9997H107.58V79.3117L108.74 81.9997H109.076L110.228 79.3117V81.9997H111.068Z" fill="#3356D7"/>
<path d="M113.938 82.0957C114.554 82.0957 115.122 81.9037 115.506 81.5357L115.122 80.9837C114.85 81.2557 114.402 81.4077 114.026 81.4077C113.298 81.4077 112.858 80.9277 112.794 80.3437H115.778V80.1437C115.778 78.9277 115.034 78.0397 113.874 78.0397C112.73 78.0397 111.914 78.9437 111.914 80.0637C111.914 81.2877 112.778 82.0957 113.938 82.0957ZM114.962 79.7517H112.786C112.826 79.2797 113.154 78.7277 113.874 78.7277C114.634 78.7277 114.946 79.2957 114.962 79.7517Z" fill="#3356D7"/>
<path d="M118.152 81.9997V78.8717H119.264V78.1357H116.208V78.8717H117.312V81.9997H118.152Z" fill="#3356D7"/>
<path d="M123.567 81.9997L121.927 79.8877L123.535 78.1357H122.495L120.791 79.9997V78.1357H119.951V81.9997H120.791V80.9597L121.327 80.4077L122.511 81.9997H123.567Z" fill="#3356D7"/>
<path d="M124.97 81.9997L126.778 79.3277V81.9997H127.618V78.1357H126.778L125.002 80.7357V78.1357H124.162V81.9997H124.97Z" fill="#3356D7"/>
<path d="M129.549 81.9997V80.3917H131.325V81.9997H132.165V78.1357H131.325V79.6557H129.549V78.1357H128.709V81.9997H129.549Z" fill="#3356D7"/>
<path d="M136.456 81.9997V79.4397C136.456 78.3997 135.704 78.0397 134.848 78.0397C134.232 78.0397 133.672 78.2397 133.224 78.6637L133.568 79.2477C133.904 78.9197 134.28 78.7597 134.712 78.7597C135.248 78.7597 135.616 79.0317 135.616 79.4797V80.0557C135.336 79.7277 134.888 79.5597 134.368 79.5597C133.736 79.5597 133.024 79.9277 133.024 80.8157C133.024 81.6717 133.736 82.0957 134.368 82.0957C134.88 82.0957 135.328 81.9117 135.616 81.5837V81.9997H136.456ZM134.696 81.5197C134.224 81.5197 133.872 81.2477 133.872 80.8317C133.872 80.4077 134.224 80.1357 134.696 80.1357C135.064 80.1357 135.424 80.2717 135.616 80.5357V81.1197C135.424 81.3837 135.064 81.5197 134.696 81.5197Z" fill="#3356D7"/>
<path d="M138.585 81.6957C138.585 81.2317 138.289 80.9677 137.961 80.9677C137.665 80.9677 137.417 81.2157 137.417 81.5197C137.417 81.8157 137.625 82.0237 137.897 82.0237C137.945 82.0237 138.009 82.0077 138.033 81.9997C137.977 82.2717 137.713 82.5997 137.457 82.7517L137.833 83.0637C138.273 82.7517 138.585 82.2477 138.585 81.6957Z" fill="#3356D7"/>
<path d="M141.161 82.9837H142.001V81.9997H144.601V82.9837H145.441V81.2637H145.017V78.1357H142.033L141.801 80.0157C141.673 81.0317 141.489 81.2237 141.161 81.3037V82.9837ZM142.777 78.8717H144.177V81.2637H142.129C142.401 81.0237 142.585 80.6477 142.641 80.1117L142.777 78.8717Z" fill="#3356D7"/>
<path d="M147.875 82.0957C149.115 82.0957 149.867 81.1757 149.867 80.0637C149.867 78.9597 149.115 78.0397 147.875 78.0397C146.651 78.0397 145.891 78.9597 145.891 80.0637C145.891 81.1757 146.651 82.0957 147.875 82.0957ZM147.875 81.3517C147.163 81.3517 146.763 80.7517 146.763 80.0637C146.763 79.3837 147.163 78.7837 147.875 78.7837C148.595 78.7837 148.995 79.3837 148.995 80.0637C148.995 80.7517 148.595 81.3517 147.875 81.3517Z" fill="#3356D7"/>
<path d="M155.045 81.9997V78.1357H153.941L152.885 80.6317L151.813 78.1357H150.717V81.9997H151.557V79.3117L152.717 81.9997H153.053L154.205 79.3117V81.9997H155.045Z" fill="#3356D7"/>
<path d="M160.114 81.9997V76.6637H159.298L157.762 78.2157L158.306 78.7837L159.178 77.8797V81.9997H160.114Z" fill="#3356D7"/>
<path d="M163.209 82.0957C164.401 82.0957 165.177 81.2957 165.177 80.3037C165.177 79.1677 164.353 78.5837 163.393 78.5837C162.761 78.5837 162.201 78.9677 161.961 79.3277C161.953 79.2797 161.953 79.2317 161.953 79.1757C161.953 78.2397 162.473 77.4157 163.361 77.4157C163.873 77.4157 164.177 77.5917 164.457 77.8877L164.897 77.1757C164.537 76.8237 164.025 76.5837 163.361 76.5837C161.817 76.5837 161.009 77.7997 161.009 79.3437C161.009 80.8237 161.641 82.0957 163.209 82.0957ZM163.161 81.2637C162.337 81.2637 162.025 80.5917 161.969 80.0157C162.241 79.6317 162.681 79.3837 163.137 79.3837C163.721 79.3837 164.233 79.6797 164.233 80.3357C164.233 80.7677 163.865 81.2637 163.161 81.2637Z" fill="#3356D7"/>
<path d="M167.069 81.6957C167.069 81.2317 166.773 80.9677 166.445 80.9677C166.149 80.9677 165.901 81.2157 165.901 81.5197C165.901 81.8157 166.109 82.0237 166.381 82.0237C166.429 82.0237 166.493 82.0077 166.517 81.9997C166.461 82.2717 166.197 82.5997 165.941 82.7517L166.317 83.0637C166.757 82.7517 167.069 82.2477 167.069 81.6957Z" fill="#3356D7"/>
<path d="M173.661 81.9997L172.021 79.8877L173.629 78.1357H172.589L170.885 79.9997V78.1357H170.045V81.9997H170.885V80.9597L171.421 80.4077L172.605 81.9997H173.661Z" fill="#3356D7"/>
<path d="M175.961 82.0957C177.201 82.0957 177.953 81.1757 177.953 80.0637C177.953 78.9597 177.201 78.0397 175.961 78.0397C174.737 78.0397 173.977 78.9597 173.977 80.0637C173.977 81.1757 174.737 82.0957 175.961 82.0957ZM175.961 81.3517C175.249 81.3517 174.849 80.7517 174.849 80.0637C174.849 79.3837 175.249 78.7837 175.961 78.7837C176.681 78.7837 177.081 79.3837 177.081 80.0637C177.081 80.7517 176.681 81.3517 175.961 81.3517Z" fill="#3356D7"/>
<path d="M180.883 82.0957C181.883 82.0957 182.595 81.3357 182.595 80.0637C182.595 78.7917 181.883 78.0397 180.883 78.0397C180.379 78.0397 179.931 78.2797 179.643 78.6637V78.1357H178.803V83.4717H179.643V81.4637C179.955 81.8797 180.395 82.0957 180.883 82.0957ZM180.635 81.3517C180.243 81.3517 179.827 81.1117 179.643 80.8317V79.3037C179.827 79.0157 180.243 78.7837 180.635 78.7837C181.299 78.7837 181.723 79.3197 181.723 80.0637C181.723 80.8157 181.299 81.3517 180.635 81.3517Z" fill="#3356D7"/>
<path d="M186.884 81.9997V78.1357H183.428V81.9997H184.268V78.8717H186.044V81.9997H186.884Z" fill="#3356D7"/>
<path d="M187.807 83.5117C187.927 83.5437 188.159 83.5677 188.279 83.5677C188.879 83.5597 189.343 83.3517 189.607 82.6957L191.471 78.1357H190.567L189.439 81.0317L188.311 78.1357H187.415L188.999 82.0477L188.807 82.4877C188.695 82.7437 188.519 82.8237 188.255 82.8237C188.159 82.8237 188.023 82.7997 187.935 82.7597L187.807 83.5117Z" fill="#3356D7"/>
<path d="M193.758 82.0957C194.51 82.0957 194.966 81.7757 195.238 81.4077L194.686 80.8957C194.47 81.1917 194.174 81.3517 193.798 81.3517C193.094 81.3517 192.63 80.8157 192.63 80.0637C192.63 79.3117 193.094 78.7837 193.798 78.7837C194.174 78.7837 194.47 78.9357 194.686 79.2397L195.238 78.7277C194.966 78.3597 194.51 78.0397 193.758 78.0397C192.582 78.0397 191.758 78.8957 191.758 80.0637C191.758 81.2397 192.582 82.0957 193.758 82.0957Z" fill="#3356D7"/>
<path d="M199.957 81.9997V76.6637H199.141L197.605 78.2157L198.149 78.7837L199.021 77.8797V81.9997H199.957Z" fill="#3356D7"/>
<path d="M201.501 82.0877C201.805 82.0877 202.061 81.8317 202.061 81.5277C202.061 81.2237 201.805 80.9677 201.501 80.9677C201.197 80.9677 200.941 81.2237 200.941 81.5277C200.941 81.8317 201.197 82.0877 201.501 82.0877Z" fill="#3356D7"/>
<path d="M69.1722 36.9996V29.6626H62.7812V36.9996H64.0682V30.7956H67.8853V36.9996H69.1722Z" fill="#3356D7"/>
<path d="M70.2575 37.1316C71.6765 37.1316 72.6335 36.6366 72.9855 33.5236L73.2935 30.7956H75.8345V36.9996H77.1215V29.6626H72.1385L71.7095 33.4356C71.4565 35.6026 71.0495 35.9876 70.2575 35.9876V37.1316Z" fill="#3356D7"/>
<path d="M85.2797 36.9996L82.3977 29.6626H80.7917L77.9097 36.9996H79.3727L79.9117 35.5916H83.2777L83.8167 36.9996H85.2797ZM82.9147 34.4586H80.2747L81.5947 30.9606L82.9147 34.4586Z" fill="#3356D7"/>
<path d="M88.3973 36.9996V30.7956H90.6193V29.6626H84.8883V30.7956H87.1103V36.9996H88.3973Z" fill="#3356D7"/>
<path d="M96.737 36.9996V35.8666H92.997V33.8316H96.66V32.6986H92.997V30.7956H96.737V29.6626H91.71V36.9996H96.737Z" fill="#3356D7"/>
<path d="M98.9386 36.9996L101.403 33.9086L101.766 34.3376V36.9996H103.053V34.3376L103.416 33.9086L105.88 36.9996H107.464L104.263 33.1276L107.244 29.6626H105.649L103.053 32.8306V29.6626H101.766V32.8306L99.1696 29.6626H97.5746L100.556 33.1276L97.3546 36.9996H98.9386Z" fill="#3356D7"/>
<path d="M117.534 36.9996V29.6626H111.143V36.9996H112.43V30.7956H116.247V36.9996H117.534Z" fill="#3356D7"/>
<path d="M120.379 36.9996V34.2606H122.315C123.844 34.2606 124.713 33.2046 124.713 31.9616C124.713 30.7186 123.855 29.6626 122.315 29.6626H119.092V36.9996H120.379ZM122.139 33.1276H120.379V30.7956H122.139C122.865 30.7956 123.393 31.2576 123.393 31.9616C123.393 32.6656 122.865 33.1276 122.139 33.1276Z" fill="#3356D7"/>
<path d="M127.027 36.9996L130.855 31.7636V36.9996H132.142V29.6626H130.822L127.071 34.7556V29.6626H125.784V36.9996H127.027Z" fill="#3356D7"/>
<path d="M140.092 36.9996V29.6626H138.805V32.6656H134.988V29.6626H133.701V36.9996H134.988V33.7986H138.805V36.9996H140.092Z" fill="#3356D7"/>
<path d="M142.805 36.9996L144.433 34.2606H145.709V36.9996H146.996V29.6626H143.773C142.321 29.6626 141.375 30.6086 141.375 31.9616C141.375 33.2706 142.233 33.9746 143.113 34.1176L141.32 36.9996H142.805ZM143.949 33.1276C143.223 33.1276 142.695 32.6656 142.695 31.9616C142.695 31.2576 143.223 30.7956 143.949 30.7956H145.709V33.1276H143.949Z" fill="#3356D7"/>
<path d="M151.594 36.9996V30.7956H153.816V29.6626H148.085V30.7956H150.307V36.9996H151.594Z" fill="#3356D7"/>
</svg>
