<svg width="24" height="12" viewBox="0 0 24 12" fill="none" xmlns="http://www.w3.org/2000/svg">
<g clip-path="url(#clip0_418_68065)">
<path d="M6.67157 0H11.351C12.0043 0 12.4105 0.544797 12.2581 1.21541L10.0795 10.7865C9.92577 11.4547 9.27176 12 8.61809 12H3.93907C3.28677 12 2.87958 11.4547 3.03197 10.7865L5.21151 1.21541C5.36389 0.544797 6.01756 0 6.67157 0Z" fill="#E21836"/>
<path d="M10.9613 0H16.3426C16.9957 0 16.7012 0.544797 16.5476 1.21541L14.3693 10.7865C14.2164 11.4547 14.2641 12 13.6096 12H8.22836C7.57389 12 7.16887 11.4547 7.32262 10.7865L9.5008 1.21541C9.65546 0.544797 10.3078 0 10.9613 0Z" fill="#00447C"/>
<path d="M16.1296 0H20.809C21.4631 0 21.8694 0.544797 21.7158 1.21541L19.5375 10.7865C19.3838 11.4547 18.7293 12 18.0753 12H13.398C12.7435 12 12.3376 11.4547 12.4909 10.7865L14.6695 1.21541C14.8219 0.544797 15.4751 0 16.1296 0Z" fill="#007B84"/>
<path fill-rule="evenodd" clip-rule="evenodd" d="M14.9355 5.94893C14.9528 5.86234 15.0558 5.34905 15.0567 5.34905C15.0567 5.34905 15.1445 4.97243 15.1498 4.95878C15.1498 4.95878 15.1774 4.91956 15.205 4.90404H15.2456C15.6287 4.90404 16.0614 4.90404 16.4005 4.6488C16.6312 4.47373 16.7889 4.21522 16.8593 3.90104C16.8776 3.82402 16.891 3.7324 16.891 3.64078C16.891 3.52046 16.8674 3.40141 16.7992 3.3084C16.6263 3.06086 16.282 3.05631 15.8845 3.05444L15.6885 3.05631C15.1797 3.06273 14.9756 3.06086 14.8918 3.05035C14.8847 3.08828 14.8714 3.15574 14.8714 3.15574C14.8714 3.15574 14.6891 4.02009 14.6891 4.02149L14.2324 5.94578C14.6767 5.9403 14.8588 5.9403 14.9355 5.94893ZM7.89369 3.06722C7.41248 3.07224 7.27036 3.06722 7.22497 3.05625C7.20751 3.1411 6.88279 4.67383 6.88188 4.67512C6.81196 4.98521 6.76109 5.20626 6.58829 5.34899C6.4902 5.43197 6.37569 5.47201 6.24292 5.47201C6.02952 5.47201 5.9052 5.36358 5.88432 5.15794L5.88033 5.08733C5.88033 5.08733 5.94534 4.67197 5.94534 4.66963C5.94534 4.66963 6.28615 3.27286 6.34717 3.08823C6.35037 3.07772 6.35128 3.07224 6.35208 3.06722C5.68871 3.07317 5.57112 3.06722 5.56302 3.05625C5.55857 3.07131 5.54215 3.1579 5.54215 3.1579L5.19416 4.73219L5.16427 4.8657L5.10645 5.30243C5.10645 5.43197 5.13131 5.53771 5.18081 5.62711C5.33935 5.9106 5.79159 5.95308 6.04743 5.95308C6.37706 5.95308 6.68627 5.88142 6.89522 5.75059C7.25752 5.53154 7.35261 5.18929 7.43717 4.88493L7.43746 4.88391L7.47669 4.72764C7.47669 4.72764 7.82776 3.27695 7.88742 3.08823L7.88815 3.08479C7.88994 3.07647 7.89096 3.07166 7.89369 3.06722ZM9.08825 4.23747C9.00362 4.23747 8.84895 4.25848 8.71003 4.32815C8.67123 4.34854 8.63406 4.37135 8.59606 4.39466L8.56164 4.41568L8.60704 4.24797L8.58217 4.21973C8.30683 4.27678 8.23123 4.28764 8.00036 4.32083L7.94949 4.32815L7.92668 4.34368C7.89508 4.61176 7.86702 4.81331 7.74989 5.34025C7.70529 5.53446 7.65898 5.73053 7.61256 5.92426L7.62511 5.94889C7.90398 5.93383 7.98861 5.93383 8.23098 5.93792L8.2506 5.91609C8.2589 5.87263 8.26524 5.83813 8.27143 5.80453C8.2882 5.71336 8.30376 5.62884 8.3536 5.38997C8.36039 5.35712 8.36875 5.31594 8.37801 5.27027C8.41245 5.1005 8.45948 4.86868 8.48545 4.77316C8.54601 4.74445 8.60578 4.71621 8.66281 4.71621C8.79554 4.71621 8.78279 4.83198 8.77724 4.88236L8.77687 4.88579C8.77105 4.9669 8.72155 5.23183 8.67079 5.45929L8.63692 5.60611C8.62468 5.66234 8.61182 5.71774 8.59899 5.77305C8.58708 5.82437 8.57517 5.8757 8.56381 5.92741L8.57407 5.94889C8.84895 5.93383 8.93279 5.93383 9.16752 5.93792L9.19512 5.91609C9.23755 5.664 9.24998 5.59654 9.32526 5.2295L9.36313 5.06085C9.4367 4.7308 9.47365 4.56344 9.41799 4.42712C9.35914 4.27435 9.21793 4.23747 9.08825 4.23747ZM10.3742 4.59254L10.4226 4.58301L10.4279 4.59573L10.4319 4.6095C10.4201 4.66012 10.4079 4.71076 10.3958 4.76156C10.3806 4.82504 10.3653 4.88893 10.3504 4.95321C10.3384 5.00741 10.3259 5.06102 10.3135 5.11436C10.2994 5.1754 10.2853 5.23614 10.272 5.29692C10.2507 5.39537 10.2345 5.46882 10.2219 5.52573C10.2035 5.60901 10.1929 5.65687 10.1856 5.69583C10.178 5.73284 10.1738 5.75981 10.1672 5.80312C10.1629 5.83135 10.1575 5.86664 10.1494 5.91606L10.1361 5.9275L10.1236 5.93788C10.0778 5.93762 10.0372 5.9371 10.0003 5.93663C9.92265 5.93564 9.8611 5.93485 9.80107 5.93707C9.71998 5.93781 9.64089 5.94168 9.52717 5.94724L9.49403 5.94886L9.48695 5.93707L9.47851 5.92423C9.5101 5.8024 9.52908 5.75024 9.54526 5.70573L9.55197 5.68719C9.57022 5.63748 9.58676 5.58823 9.61881 5.44689C9.66021 5.26226 9.68564 5.13376 9.70218 5.02067C9.71654 4.94015 9.72589 4.86849 9.7357 4.79334C9.73921 4.76645 9.74279 4.73904 9.74667 4.71069L9.75693 4.7024L9.76811 4.69202C9.90931 4.67194 9.99885 4.65829 10.0907 4.64323C10.1726 4.63229 10.255 4.61604 10.3742 4.59254ZM10.4257 4.11721C10.2929 4.03703 10.0599 4.06247 9.90305 4.17323C9.74668 4.28177 9.72889 4.43582 9.8612 4.51705C9.99168 4.59501 10.2256 4.57179 10.3811 4.4601C10.5371 4.34922 10.5566 4.19657 10.4257 4.11721ZM11.9799 5.67363C11.7727 5.89841 11.4973 5.97415 11.2287 5.97415C11.1235 5.97415 10.9604 5.9605 10.8473 5.91078C10.4806 5.75894 10.539 5.35093 10.5898 5.12428C10.6401 4.90183 10.7234 4.66981 10.9039 4.49883C11.1551 4.2618 11.4768 4.24814 11.6118 4.24814C11.8364 4.24814 12.0529 4.29961 12.1754 4.46009C12.256 4.56536 12.3202 4.7382 12.2378 5.10841C12.2125 5.2201 12.1394 5.49133 11.9799 5.67363ZM11.2078 5.14115C11.2697 4.86082 11.3428 4.62554 11.5294 4.62554C11.6757 4.62554 11.6863 4.8006 11.6213 5.08187C11.6096 5.14431 11.5562 5.37644 11.484 5.47529C11.4336 5.54823 11.374 5.59247 11.3081 5.59247C11.2884 5.59247 11.1718 5.59247 11.1699 5.41519C11.169 5.32766 11.1865 5.23826 11.2078 5.14115ZM12.9302 5.91621L12.9092 5.93803C12.6673 5.93395 12.5839 5.93395 12.3046 5.94901L12.2922 5.92438C12.3385 5.73064 12.3848 5.53457 12.4294 5.34037C12.5465 4.81331 12.5733 4.61187 12.6063 4.34379L12.6272 4.32827L12.6846 4.32001C12.9102 4.28755 12.9882 4.27634 13.2608 4.21973L13.2835 4.24809L13.2411 4.4158C13.2897 4.38522 13.3392 4.35476 13.3886 4.32827C13.5267 4.25848 13.6822 4.23759 13.767 4.23759C13.8948 4.23759 14.0369 4.27447 14.0975 4.42724C14.1522 4.56355 14.1148 4.7308 14.0409 5.06085L14.004 5.22961C13.9264 5.59654 13.9152 5.664 13.8738 5.91621L13.8453 5.93803C13.6092 5.93395 13.5286 5.93395 13.2528 5.94901L13.2425 5.92753C13.2556 5.8681 13.2695 5.80939 13.2836 5.75044C13.2949 5.70269 13.3064 5.65468 13.3173 5.60611L13.3494 5.4593C13.4011 5.23183 13.4506 4.96702 13.4555 4.88579L13.4558 4.88273C13.4614 4.83255 13.4745 4.71621 13.3423 4.71621C13.2842 4.71621 13.2261 4.74379 13.1662 4.77226L13.164 4.77328C13.1402 4.86331 13.0965 5.07422 13.0621 5.24032C13.0501 5.29792 13.0393 5.35018 13.0308 5.39009C12.9796 5.64379 12.9652 5.72339 12.9474 5.82183L12.9473 5.82275C12.9422 5.8508 12.9368 5.88055 12.9302 5.91621ZM15.4661 3.55409C15.467 3.55082 15.2732 4.41342 15.2732 4.41342L15.2652 4.45672H15.3704C15.5329 4.45672 15.6907 4.45123 15.8195 4.38517C15.9758 4.30721 16.0975 4.1458 16.1389 3.95382C16.1843 3.74374 16.1193 3.5828 15.9616 3.52036C15.9522 3.51943 15.5526 3.4843 15.5526 3.4843L15.4751 3.47613L15.4724 3.50986L15.4661 3.55409ZM16.4795 5.15706C16.4283 5.38044 16.3694 5.78846 16.7343 5.93388C16.8506 5.98453 16.9549 5.99958 17.0608 5.9941C17.1727 5.98791 17.2764 5.93049 17.3724 5.84786L17.3464 5.94987L17.363 5.97169C17.6254 5.96037 17.7069 5.96037 17.9912 5.96259L18.017 5.94251L18.0218 5.91362C18.0616 5.67369 18.1018 5.4318 18.2055 4.97243C18.2581 4.74356 18.3106 4.51692 18.3645 4.28898L18.3561 4.26389C18.0625 4.31956 17.984 4.33147 17.7016 4.37243L17.6802 4.39029L17.6716 4.45809C17.6277 4.3855 17.5641 4.32353 17.4659 4.2849C17.3403 4.23436 17.0453 4.29949 16.7918 4.53571C16.6136 4.70435 16.5281 4.93543 16.4795 5.15706ZM17.4183 4.66257C17.2312 4.66257 17.159 4.89552 17.0962 5.17083C17.0744 5.26887 17.0569 5.35815 17.0578 5.44486C17.0618 5.61899 17.1773 5.61899 17.196 5.61899C17.2619 5.61899 17.3764 5.5757 17.4245 5.5059C17.4502 5.47101 17.4736 5.41861 17.4937 5.36305L17.5087 5.30143C17.5236 5.24075 17.5384 5.18002 17.5524 5.1189C17.5653 5.06229 17.5761 5.01223 17.5862 4.96472C17.5988 4.77426 17.5365 4.66257 17.4183 4.66257ZM20.3164 4.26165L20.2937 4.23515C20.0032 4.29538 19.9506 4.30495 19.6837 4.34183L19.6641 4.3619L19.6629 4.36682C19.6624 4.36933 19.6618 4.37212 19.661 4.37474L19.6601 4.37019C19.5519 4.62571 19.5043 4.712 19.4573 4.79732C19.418 4.86861 19.3791 4.93922 19.3055 5.10732C19.305 5.09877 19.3048 5.09186 19.3046 5.08477C19.3043 5.07799 19.3041 5.07085 19.3037 5.06215L19.2632 4.26165L19.2377 4.23515C19.1547 4.25158 19.0938 4.26424 19.0435 4.27471C18.9091 4.30263 18.8496 4.31501 18.6452 4.34183L18.6233 4.3619C18.6213 4.3681 18.6206 4.3747 18.6199 4.38169C18.6195 4.38548 18.619 4.38939 18.6184 4.39341L18.6202 4.3975C18.6479 4.54233 18.6485 4.54751 18.6648 4.68531C18.6692 4.72225 18.6747 4.76892 18.6822 4.83014C18.6906 4.90287 18.7004 4.97582 18.7102 5.04852C18.7196 5.11803 18.7289 5.18733 18.7369 5.25601L18.7494 5.36155C18.7701 5.5344 18.7856 5.66483 18.814 5.96583C18.7347 6.09971 18.6807 6.19883 18.6314 6.28936C18.5626 6.41555 18.503 6.52507 18.3966 6.68884L18.3978 6.69164L18.2692 6.89985C18.2544 6.92179 18.2411 6.93685 18.2224 6.94327C18.2019 6.95365 18.1752 6.95552 18.1381 6.95552H18.0668L17.9609 7.31615L18.3244 7.32257C18.5378 7.32164 18.6719 7.21952 18.7441 7.08227L18.9727 6.68149H18.969L18.9931 6.65324C19.1468 6.31456 20.3164 4.26165 20.3164 4.26165ZM16.3256 8.998H16.4798L16.3604 9.3968H16.208L16.172 9.51992H15.6288L15.6658 9.3968H14.5635L14.6736 9.02753H14.7858L15.3642 7.06635L15.4795 6.67106H16.0329L15.975 6.87028C15.975 6.87028 16.1225 6.76174 16.2624 6.72486C16.3781 6.69335 16.9493 6.67865 17.1406 6.67456V6.67339H17.7322L17.738 6.89853C17.734 6.93681 17.7661 6.95466 17.8352 6.95466H17.9554L17.8454 7.32661H17.526C17.2497 7.34669 17.1446 7.22543 17.1516 7.08864L17.1458 6.86736L17.0857 7.06635H16.8964L16.3256 8.998ZM16.0274 7.45891C15.9388 7.484 15.7739 7.5601 15.7739 7.5601L15.9206 7.06642H16.3603L16.2542 7.42611C16.2542 7.42611 16.1184 7.43428 16.0274 7.45891ZM15.807 8.20295C15.8979 8.18194 16.0361 8.1642 16.0361 8.1642L16.143 7.80451H15.7011L15.5496 8.31826C15.5496 8.31826 15.7175 8.23073 15.807 8.20295ZM15.7897 9.0026H15.3486L15.4765 8.56902H15.9162L15.7897 9.0026ZM17.4875 7.80452H16.8518L16.96 7.43116H18.7293L18.6192 7.80452H18.0258L17.9331 8.10726H18.5283L18.4294 8.43824H17.7865L17.672 8.57771H17.9331L17.9968 8.99483C17.9987 9.00567 18.0001 9.01554 18.0013 9.02453C18.0049 9.04998 18.0075 9.06832 18.0174 9.08143C18.0307 9.09601 18.1091 9.10383 18.1546 9.10383H18.2338L18.1132 9.50951H17.9122C17.885 9.50951 17.8456 9.50778 17.7925 9.50544L17.771 9.5045C17.7266 9.50051 17.6918 9.47956 17.66 9.46044C17.6491 9.45383 17.6385 9.44745 17.628 9.44206C17.5909 9.42432 17.5361 9.37868 17.5228 9.30072L17.4599 8.88454L17.1673 9.29442C17.0745 9.42432 16.949 9.52329 16.7364 9.52329H16.3273L16.4348 9.16079H16.5912C16.6366 9.16079 16.6758 9.14258 16.7057 9.12706C16.7354 9.11434 16.7623 9.09835 16.7921 9.05318L17.2189 8.43824H16.6553L16.752 8.10726H17.3962L17.4875 7.80452ZM11.4825 9.08692L11.6309 8.5818H12.2408L12.3522 8.20611H11.7418L11.835 7.8952H12.4315L12.542 7.53142H11.0495L10.9412 7.8952H11.2803L11.1899 8.20611H10.8498L10.7372 8.58822H11.0761L10.8784 9.25649C10.8559 9.33097 10.8802 9.36665 10.9032 9.40059C10.9076 9.40696 10.9118 9.41327 10.9158 9.41977C10.9412 9.4598 10.967 9.48629 11.0249 9.50135C11.0847 9.515 11.1256 9.52317 11.1813 9.52317H11.8688L11.9913 9.10699L11.6866 9.14982C11.6277 9.14982 11.4647 9.14259 11.4825 9.08692ZM11.3977 6.95466L11.5522 6.66884H12.1599L12.0531 6.8767H12.6652L12.5542 7.2574H11.718L11.6275 7.33758C11.6044 7.36035 11.5903 7.36426 11.5723 7.36925C11.5597 7.37275 11.5451 7.37678 11.5242 7.38823C11.4769 7.41239 11.3781 7.46071 11.2493 7.46071H10.9815L11.0893 7.09506H11.1699C11.2377 7.09506 11.2844 7.08876 11.308 7.0737C11.3348 7.05585 11.3646 7.0171 11.3977 6.95466ZM12.7866 9.09417C12.7723 9.07316 12.7826 9.03616 12.8043 8.95914L13.0329 8.18501H13.846C13.9645 8.18326 14.0501 8.18186 14.1057 8.17777C14.1655 8.17135 14.2305 8.14953 14.3014 8.11031C14.3745 8.06923 14.4119 8.02593 14.4435 7.97622C14.4787 7.92661 14.5353 7.81808 14.5839 7.65071L14.8712 6.67106L14.0274 6.67608C14.0274 6.67608 13.7676 6.71529 13.6532 6.75859C13.5377 6.80691 13.3728 6.94183 13.3728 6.94183L13.449 6.67328H12.9278L12.198 9.14972C12.1721 9.24589 12.1548 9.31568 12.1508 9.35758C12.1496 9.39749 12.194 9.43704 12.2298 9.46897L12.2434 9.48118C12.2776 9.50761 12.3247 9.50996 12.3733 9.51238C12.3867 9.51305 12.4002 9.51372 12.4136 9.5149C12.4787 9.51992 12.5713 9.52307 12.6992 9.52307H13.0998L13.2227 9.09825L12.8641 9.13292C12.8258 9.13292 12.7981 9.11191 12.7866 9.09417ZM14.0347 7.66229H13.1807L13.1281 7.83828H13.8676C13.9262 7.83121 13.9536 7.83467 13.9676 7.83644C13.9743 7.83729 13.978 7.83775 13.9805 7.83642L14.0347 7.66229ZM13.3517 7.07814H14.213L14.1511 7.28786C14.1511 7.28786 13.7451 7.28378 13.6801 7.29603C13.3941 7.34668 13.227 7.50307 13.227 7.50307L13.3517 7.07814ZM13.9654 8.47316C13.9811 8.46125 13.9922 8.44538 13.9993 8.41935L14.0501 8.25339H14.448L14.3994 8.48868C14.3789 8.56256 14.3611 8.61718 14.3067 8.66468C14.2497 8.71428 14.1828 8.76633 14.0265 8.76633L13.7369 8.77858L13.7347 9.04433C13.7321 9.10423 13.7442 9.11153 13.7551 9.11811C13.7578 9.11975 13.7604 9.12134 13.7628 9.12369C13.7758 9.13699 13.7875 9.1421 13.7996 9.14742L13.8006 9.14785L13.8924 9.14236L14.1686 9.12684L14.0541 9.5149H13.7369C13.515 9.5149 13.3502 9.50941 13.2967 9.46611C13.2432 9.43145 13.2362 9.38815 13.237 9.31334L13.2575 8.27662H13.7637L13.7565 8.48868H13.8782C13.92 8.48868 13.9481 8.48459 13.9654 8.47316Z" fill="#FEFEFE"/>
</g>
<defs>
<clipPath id="clip0_418_68065">
<rect width="24" height="12" fill="white"/>
</clipPath>
</defs>
</svg>
