<svg width="24" height="12" viewBox="0 0 24 12" fill="none" xmlns="http://www.w3.org/2000/svg">
<path fill-rule="evenodd" clip-rule="evenodd" d="M15.3318 3.78511C14.7544 3.85714 14.4907 4.13445 14.484 4.39376C14.4759 4.73687 14.9269 4.95904 15.4692 5.22613C16.2773 5.62418 17.288 6.12201 17.2834 7.26861C17.2758 8.77401 15.9014 9.75 13.8069 9.75C12.9112 9.741 12.049 9.56543 11.5829 9.36465L11.9435 7.77551L11.9935 7.79721C12.4514 7.99593 13.0274 8.24592 13.9978 8.23289C14.5713 8.22389 15.1879 8.0105 15.1918 7.52341C15.1966 7.20378 14.9347 6.97689 14.156 6.62305C13.4003 6.27551 12.3962 5.69118 12.4067 4.64856C12.4192 3.23679 13.8079 2.25 15.7835 2.25C16.5517 2.25 17.1731 2.40846 17.6527 2.57323L17.3026 4.10834C16.4069 3.72389 15.6185 3.75 15.3318 3.78511ZM19.8827 2.83088C20.0248 2.49712 20.3449 2.28296 20.7238 2.28296H22.4087L23.9999 9.74989H22.17L21.9333 8.63458H19.4073L18.9962 9.74989H16.923L19.8827 2.83088ZM21.0231 4.30042L19.9746 7.10492H21.6131L21.0231 4.30042ZM9.86535 2.38403L8.21484 9.63553H10.2125L11.8611 2.38403H9.86535ZM4.94926 7.36537L6.92569 2.28296H8.92308L5.84631 9.74989H3.83798L2.32193 3.79044C2.23168 3.4233 2.15146 3.28887 1.8725 3.13312C1.41577 2.88187 0.661846 2.64731 0 2.49898L0.0437584 2.28296H3.27459C3.68756 2.28296 4.05768 2.56202 4.14976 3.04411L4.94926 7.36537Z" fill="#1A1F71"/>
</svg>
